Preview_RobotoExtremo-wght_400.00_wdth_25.00_opsz_18.00_GRAD_0.00_XTRA_468.00_XOPQ_96.00_YOPQ_79.00.ufo
<glyph name="exclam" format="2">
  <advance width="601"/>
  <unicode hex="0021"/>
  <outline>
    <contour>
      <point x="181.87692307692308" y="94.44615384615385" type="qcurve" smooth="yes"/>
      <point x="181.87692307692308" y="142.04615384615386"/>
      <point x="243.2" y="210.36923076923077"/>
      <point x="300.5538461538461" y="210.36923076923077" type="qcurve" smooth="yes"/>
      <point x="357.90769230769234" y="210.36923076923077"/>
      <point x="419.2307692307692" y="142.04615384615386"/>
      <point x="419.2307692307692" y="94.44615384615385" type="qcurve" smooth="yes"/>
      <point x="419.2307692307692" y="46.815384615384616"/>
      <point x="357.90769230769234" y="-21.50769230769231"/>
      <point x="300.55384615384617" y="-21.50769230769231" type="qcurve" smooth="yes"/>
      <point x="243.2" y="-21.50769230769231"/>
      <point x="181.87692307692308" y="46.84615384615385"/>
    </contour>
    <contour>
      <point x="222.56923076923076" y="406.95384615384614" type="line"/>
      <point x="208.87692307692308" y="1456.0" type="line"/>
      <point x="391.2923076923077" y="1456.0" type="line"/>
      <point x="377.5692307692308" y="406.95384615384614" type="line"/>
    </contour>
  </outline>
</glyph>
<glyph name="quotedbl" format="2">
  <advance width="733"/>
  <unicode hex="0022"/>
  <outline>
    <contour>
      <point x="111.44615384615385" y="979.2461538461539" type="line"/>
      <point x="97.53846153846153" y="1323.2" type="line"/>
      <point x="97.53846153846153" y="1456.0" type="line"/>
      <point x="269.1076923076923" y="1456.0" type="line"/>
      <point x="269.1076923076923" y="1323.2" type="line"/>
      <point x="254.2615384615385" y="979.2461538461539" type="line"/>
    </contour>
    <contour>
      <point x="478.7076923076923" y="979.2461538461539" type="line"/>
      <point x="464.8" y="1323.2" type="line"/>
      <point x="464.8" y="1456.0" type="line"/>
      <point x="635.4307692307692" y="1456.0" type="line"/>
      <point x="635.4307692307692" y="1323.2" type="line"/>
      <point x="620.5846153846154" y="979.2461538461539" type="line"/>
    </contour>
  </outline>
</glyph>
<glyph name="numbersign" format="2">
  <advance width="1422"/>
  <unicode hex="0023"/>
  <outline>
    <contour>
      <point x="239.2153846153846" y="-19.692307692307693" type="line"/>
      <point x="635.3538461538461" y="1475.6923076923078" type="line"/>
      <point x="771.7538461538461" y="1475.6615384615386" type="line"/>
      <point x="376.58461538461535" y="-19.723076923076924" type="line"/>
    </contour>
    <contour>
      <point x="650.4923076923077" y="-19.692307692307693" type="line"/>
      <point x="1045.6923076923076" y="1475.6923076923078" type="line"/>
      <point x="1183.0" y="1475.6923076923078" type="line"/>
      <point x="787.8615384615384" y="-19.692307692307693" type="line"/>
    </contour>
    <contour>
      <point x="109.01538461538462" y="407.0153846153846" type="line"/>
      <point x="109.01538461538462" y="539.5384615384615" type="line"/>
      <point x="1248.7692307692307" y="539.5384615384615" type="line"/>
      <point x="1248.7692307692307" y="407.0153846153846" type="line"/>
    </contour>
    <contour>
      <point x="173.5076923076923" y="916.4000000000001" type="line"/>
      <point x="173.5076923076923" y="1048.923076923077" type="line"/>
      <point x="1313.2615384615385" y="1048.923076923077" type="line"/>
      <point x="1313.2615384615385" y="916.4000000000001" type="line"/>
    </contour>
  </outline>
</glyph>
<glyph name="dollar" format="2">
  <advance width="1015"/>
  <unicode hex="0024"/>
  <outline>
    <contour>
      <point x="87.84615384615384" y="408.723076923077" type="qcurve" smooth="yes"/>
      <point x="87.84615384615384" y="423.18461538461537" type="line"/>
      <point x="261.26153846153846" y="423.18461538461537" type="line"/>
      <point x="261.26153846153846" y="406.26153846153846" type="line" smooth="yes"/>
      <point x="261.2307692307692" y="272.55384615384617"/>
      <point x="395.5076923076923" y="150.8153846153846"/>
      <point x="515.9538461538461" y="150.8153846153846" type="qcurve" smooth="yes"/>
      <point x="638.4615384615385" y="150.8153846153846"/>
      <point x="764.7384615384616" y="277.13846153846157"/>
      <point x="764.7384615384616" y="390.46153846153845" type="qcurve" smooth="yes"/>
      <point x="764.7384615384616" y="481.16923076923075"/>
      <point x="651.8769230769232" y="612.5076923076923"/>
      <point x="468.5230769230769" y="668.8000000000001" type="qcurve" smooth="yes"/>
      <point x="301.15384615384613" y="720.7076923076924"/>
      <point x="102.75384615384615" y="918.3384615384615"/>
      <point x="102.75384615384615" y="1079.2923076923078" type="qcurve" smooth="yes"/>
      <point x="102.75384615384615" y="1251.8923076923077"/>
      <point x="328.86153846153843" y="1456.0"/>
      <point x="507.5692307692307" y="1456.0" type="qcurve" smooth="yes"/>
      <point x="693.9076923076923" y="1456.0"/>
      <point x="912.9538461538461" y="1232.2615384615385"/>
      <point x="912.9538461538461" y="1056.1076923076923" type="qcurve" smooth="yes"/>
      <point x="912.9538461538461" y="1038.8153846153846" type="line"/>
      <point x="739.5384615384615" y="1038.8153846153846" type="line"/>
      <point x="739.5384615384615" y="1057.0" type="line" smooth="yes"/>
      <point x="739.5384615384615" y="1172.3692307692309"/>
      <point x="622.7692307692308" y="1304.8461538461538"/>
      <point x="508.4153846153846" y="1304.8461538461538" type="qcurve" smooth="yes"/>
      <point x="392.7846153846154" y="1304.8461538461538"/>
      <point x="275.26153846153846" y="1197.1846153846154"/>
      <point x="275.26153846153846" y="1093.0461538461539" type="qcurve" smooth="yes"/>
      <point x="275.26153846153846" y="986.9384615384615"/>
      <point x="395.84615384615387" y="877.3538461538461"/>
      <point x="575.6615384615385" y="818.9692307692308" type="qcurve" smooth="yes"/>
      <point x="761.9846153846154" y="757.9230769230769"/>
      <point x="936.2769230769231" y="540.0307692307692"/>
      <point x="936.2769230769231" y="390.4307692307692" type="qcurve" smooth="yes"/>
      <point x="936.2769230769231" y="208.6923076923077"/>
      <point x="707.5692307692308" y="0.0"/>
      <point x="516.3230769230769" y="0.0" type="qcurve" smooth="yes"/>
      <point x="321.8923076923077" y="0.0"/>
      <point x="87.84615384615384" y="208.26153846153846"/>
    </contour>
    <contour>
      <point x="446.2769230769231" y="-148.76923076923077" type="line"/>
      <point x="446.2769230769231" y="729.2307692307693" type="line"/>
      <point x="577.7538461538462" y="729.2307692307693" type="line"/>
      <point x="577.7538461538462" y="98.46153846153847" type="line"/>
      <point x="587.5999999999999" y="88.46153846153847" type="line"/>
      <point x="587.5999999999999" y="-148.76923076923077" type="line"/>
    </contour>
    <contour>
      <point x="456.18461538461537" y="729.2307692307693" type="line"/>
      <point x="456.18461538461537" y="1357.2307692307693" type="line"/>
      <point x="446.4307692307692" y="1367.2307692307693" type="line"/>
      <point x="446.4307692307692" y="1604.153846153846" type="line"/>
      <point x="587.7538461538462" y="1604.153846153846" type="line"/>
      <point x="587.7538461538462" y="729.2307692307693" type="line"/>
    </contour>
  </outline>
</glyph>
<glyph name="ampersand" format="2">
  <advance width="1095"/>
  <unicode hex="0026"/>
  <outline>
    <contour>
      <point x="78.33846153846154" y="377.9384615384615" type="qcurve" smooth="yes"/>
      <point x="78.33846153846154" y="538.3384615384615"/>
      <point x="264.7846153846154" y="757.1076923076923"/>
      <point x="387.26153846153846" y="855.9230769230769" type="qcurve" smooth="yes"/>
      <point x="516.0" y="958.4153846153846" type="line" smooth="yes"/>
      <point x="581.2923076923076" y="1010.6461538461538"/>
      <point x="623.5230769230769" y="1108.5230769230768"/>
      <point x="623.5230769230769" y="1171.2615384615385" type="qcurve" smooth="yes"/>
      <point x="623.5230769230769" y="1252.3076923076922"/>
      <point x="560.2153846153847" y="1338.8307692307692"/>
      <point x="494.66153846153844" y="1338.8307692307692" type="qcurve" smooth="yes"/>
      <point x="431.1076923076923" y="1338.8307692307692"/>
      <point x="362.0153846153846" y="1242.7692307692307"/>
      <point x="362.0153846153846" y="1161.476923076923" type="qcurve" smooth="yes"/>
      <point x="362.0153846153846" y="1090.8307692307692"/>
      <point x="419.7846153846154" y="960.6461538461538"/>
      <point x="500.96923076923076" y="841.7538461538462" type="qcurve" smooth="yes"/>
      <point x="1071.0153846153844" y="0.0" type="line"/>
      <point x="872.0923076923077" y="0.0" type="line"/>
      <point x="371.7230769230769" y="740.323076923077" type="line" smooth="yes"/>
      <point x="281.6615384615385" y="872.4923076923077"/>
      <point x="189.63076923076923" y="1059.876923076923"/>
      <point x="189.63076923076923" y="1161.4153846153845" type="qcurve" smooth="yes"/>
      <point x="189.63076923076923" y="1309.2"/>
      <point x="361.6307692307692" y="1485.4153846153847"/>
      <point x="494.6307692307692" y="1485.4153846153847" type="qcurve" smooth="yes"/>
      <point x="627.7538461538462" y="1485.4153846153847"/>
      <point x="786.1538461538461" y="1319.1076923076923"/>
      <point x="786.1538461538461" y="1181.6923076923076" type="qcurve" smooth="yes"/>
      <point x="786.1538461538461" y="1062.5076923076924"/>
      <point x="686.876923076923" y="902.1846153846154"/>
      <point x="605.7384615384615" y="837.3076923076923" type="qcurve" smooth="yes"/>
      <point x="476.0" y="735.5692307692308" type="line" smooth="yes"/>
      <point x="364.7692307692308" y="649.5538461538462"/>
      <point x="251.87692307692308" y="489.4769230769231"/>
      <point x="251.87692307692308" y="378.40000000000003" type="qcurve" smooth="yes"/>
      <point x="251.87692307692308" y="265.2923076923077"/>
      <point x="372.8615384615385" y="126.67692307692309"/>
      <point x="475.32307692307694" y="126.67692307692309" type="qcurve" smooth="yes"/>
      <point x="620.6153846153845" y="126.67692307692309"/>
      <point x="830.5692307692308" y="416.5846153846154"/>
      <point x="830.2307692307693" y="676.0923076923077" type="qcurve"/>
      <point x="992.9538461538461" y="676.0923076923077" type="line"/>
      <point x="993.2307692307693" y="380.4"/>
      <point x="696.2461538461538" y="-19.692307692307693"/>
      <point x="475.10769230769233" y="-19.692307692307693" type="qcurve" smooth="yes"/>
      <point x="289.4307692307693" y="-19.692307692307693"/>
      <point x="78.33846153846154" y="216.83076923076922"/>
    </contour>
  </outline>
</glyph>
<glyph name="quotesingle" format="2">
  <advance width="386"/>
  <unicode hex="0027"/>
  <outline>
    <contour>
      <point x="121.6" y="979.2461538461539" type="line"/>
      <point x="98.15384615384616" y="1323.2" type="line"/>
      <point x="98.15384615384616" y="1456.0" type="line"/>
      <point x="288.1384615384615" y="1456.0" type="line"/>
      <point x="288.1384615384615" y="1323.2" type="line"/>
      <point x="263.75384615384615" y="979.2461538461539" type="line"/>
    </contour>
  </outline>
</glyph>
<glyph name="parenleft" format="2">
  <advance width="679"/>
  <unicode hex="0028"/>
  <outline>
    <contour>
      <point x="576.5538461538462" y="-434.7692307692308" type="line"/>
      <point x="389.0923076923077" y="-336.0615384615385"/>
      <point x="121.66153846153846" y="116.55384615384615"/>
      <point x="121.66153846153846" y="512.2307692307693" type="qcurve" smooth="yes"/>
      <point x="121.66153846153846" y="527.9538461538461" type="line" smooth="yes"/>
      <point x="121.66153846153846" y="923.2923076923076"/>
      <point x="389.1538461538462" y="1377.5692307692307"/>
      <point x="576.5538461538462" y="1476.0" type="qcurve"/>
      <point x="578.123076923077" y="1324.2" type="line"/>
      <point x="468.0923076923077" y="1248.1230769230767"/>
      <point x="304.7692307692308" y="885.5384615384614"/>
      <point x="304.7692307692308" y="533.723076923077" type="qcurve" smooth="yes"/>
      <point x="304.7692307692308" y="505.87692307692305" type="line" smooth="yes"/>
      <point x="304.7692307692308" y="156.0923076923077"/>
      <point x="467.6307692307692" y="-206.03076923076924"/>
      <point x="578.1846153846154" y="-283.0615384615384" type="qcurve"/>
    </contour>
  </outline>
</glyph>
<glyph name="parenright" format="2">
  <advance width="679"/>
  <unicode hex="0029"/>
  <outline>
    <contour>
      <point x="102.67692307692307" y="-434.7692307692308" type="qcurve"/>
      <point x="101.04615384615384" y="-283.0615384615384" type="line"/>
      <point x="211.6" y="-206.03076923076924"/>
      <point x="373.4923076923077" y="156.0923076923077"/>
      <point x="373.4923076923077" y="505.87692307692305" type="qcurve" smooth="yes"/>
      <point x="373.4923076923077" y="533.723076923077" type="line" smooth="yes"/>
      <point x="373.4923076923077" y="885.5384615384614"/>
      <point x="211.13846153846154" y="1248.123076923077"/>
      <point x="101.1076923076923" y="1324.2" type="qcurve"/>
      <point x="102.67692307692307" y="1476.0" type="line"/>
      <point x="289.10769230769233" y="1377.5692307692307"/>
      <point x="557.5692307692307" y="923.2923076923076"/>
      <point x="557.5692307692307" y="527.9538461538461" type="qcurve" smooth="yes"/>
      <point x="557.5692307692307" y="512.2307692307693" type="line" smooth="yes"/>
      <point x="557.5692307692307" y="116.55384615384615"/>
      <point x="289.16923076923075" y="-336.0615384615385"/>
    </contour>
  </outline>
</glyph>
<glyph name="asterisk" format="2">
  <advance width="965"/>
  <unicode hex="002A"/>
  <outline>
    <contour>
      <point x="56.83076923076923" y="1099.7846153846153" type="line"/>
      <point x="112.3076923076923" y="1272.4769230769232" type="line"/>
      <point x="427.15384615384613" y="1133.5692307692307" type="line"/>
      <point x="392.7076923076923" y="1475.6923076923076" type="line"/>
      <point x="572.3076923076923" y="1475.6923076923076" type="line"/>
      <point x="538.8307692307692" y="1133.5692307692307" type="line"/>
      <point x="852.676923076923" y="1272.4769230769232" type="line"/>
      <point x="908.1846153846154" y="1099.7846153846153" type="line"/>
      <point x="572.3384615384616" y="1026.8615384615384" type="line"/>
      <point x="802.7076923076924" y="771.2923076923076" type="line"/>
      <point x="656.7692307692308" y="664.6153846153846" type="line"/>
      <point x="482.5076923076923" y="961.5999999999999" type="line"/>
      <point x="308.2153846153846" y="664.6153846153846" type="line"/>
      <point x="163.24615384615385" y="771.2923076923076" type="line"/>
      <point x="392.67692307692306" y="1026.8615384615384" type="line"/>
    </contour>
  </outline>
</glyph>
<glyph name="plus" format="2">
  <advance width="1145"/>
  <unicode hex="002B"/>
  <outline>
    <contour>
      <point x="151.75384615384615" y="594.9846153846154" type="line"/>
      <point x="151.75384615384615" y="753.0153846153846" type="line"/>
      <point x="993.5692307692308" y="753.0153846153846" type="line"/>
      <point x="993.5692307692308" y="594.9846153846154" type="line"/>
    </contour>
    <contour>
      <point x="487.8615384615385" y="176.92307692307693" type="line"/>
      <point x="487.8615384615385" y="1171.076923076923" type="line"/>
      <point x="657.4615384615385" y="1171.076923076923" type="line"/>
      <point x="657.4615384615385" y="176.92307692307693" type="line"/>
    </contour>
  </outline>
</glyph>
<glyph name="comma" format="2">
  <advance width="564"/>
  <unicode hex="002C"/>
  <outline>
    <contour>
      <point x="110.61538461538461" y="-211.87692307692308" type="line"/>
      <point x="156.12307692307692" y="-150.43076923076924"/>
      <point x="205.7846153846154" y="-19.723076923076924"/>
      <point x="205.7846153846154" y="67.44615384615385" type="qcurve" smooth="yes"/>
      <point x="205.7846153846154" y="213.75384615384615" type="line"/>
      <point x="377.4769230769231" y="213.75384615384615" type="line"/>
      <point x="377.4769230769231" y="67.44615384615385" type="line" smooth="yes"/>
      <point x="377.5076923076923" y="-39.53846153846154"/>
      <point x="285.4923076923077" y="-217.56923076923076"/>
      <point x="210.60000000000002" y="-281.8307692307692" type="qcurve"/>
    </contour>
  </outline>
</glyph>
<glyph name="hyphen" format="2">
  <advance width="562"/>
  <unicode hex="002D"/>
  <outline>
    <contour>
      <point x="40.30769230769231" y="546.7538461538462" type="line"/>
      <point x="40.30769230769231" y="711.8461538461538" type="line"/>
      <point x="522.0923076923076" y="711.8461538461538" type="line"/>
      <point x="522.0923076923076" y="546.7538461538462" type="line"/>
    </contour>
  </outline>
</glyph>
<glyph name="period" format="2">
  <advance width="560"/>
  <unicode hex="002E"/>
  <outline>
    <contour>
      <point x="156.43076923076922" y="100.26153846153846" type="qcurve" smooth="yes"/>
      <point x="156.43076923076922" y="150.76923076923077"/>
      <point x="220.66153846153844" y="222.0"/>
      <point x="280.92307692307696" y="222.0" type="qcurve" smooth="yes"/>
      <point x="340.21538461538466" y="222.0"/>
      <point x="403.4769230769231" y="150.76923076923077"/>
      <point x="403.4769230769231" y="99.2923076923077" type="qcurve" smooth="yes"/>
      <point x="403.4769230769231" y="49.723076923076924"/>
      <point x="340.21538461538466" y="-21.50769230769231"/>
      <point x="279.9538461538462" y="-21.50769230769231" type="qcurve" smooth="yes"/>
      <point x="220.66153846153844" y="-21.50769230769231"/>
      <point x="156.43076923076922" y="49.753846153846155"/>
    </contour>
  </outline>
</glyph>
<glyph name="slash" format="2">
  <advance width="471"/>
  <unicode hex="002F"/>
  <outline>
    <contour>
      <point x="-97.63076923076923" y="-122.6" type="line"/>
      <point x="405.13846153846157" y="1456.0" type="line"/>
      <point x="568.8923076923078" y="1456.0" type="line"/>
      <point x="66.0923076923077" y="-122.6" type="line"/>
    </contour>
  </outline>
</glyph>
<glyph name="zero" format="2">
  <advance width="1017"/>
  <unicode hex="0030"/>
  <outline>
    <contour>
      <point x="115.53846153846155" y="399.4" type="qcurve" smooth="yes"/>
      <point x="115.53846153846155" y="1056.5076923076924" type="line" smooth="yes"/>
      <point x="115.53846153846155" y="1247.6"/>
      <point x="323.1384615384615" y="1485.3846153846152"/>
      <point x="508.4153846153846" y="1485.3846153846152" type="qcurve" smooth="yes"/>
      <point x="691.7538461538462" y="1485.3846153846152"/>
      <point x="901.3538461538462" y="1247.6"/>
      <point x="901.3538461538462" y="1056.5076923076924" type="qcurve" smooth="yes"/>
      <point x="901.3538461538462" y="399.4" type="line" smooth="yes"/>
      <point x="901.3538461538462" y="210.18461538461537"/>
      <point x="691.7538461538462" y="-29.384615384615387"/>
      <point x="508.4153846153846" y="-29.384615384615387" type="qcurve" smooth="yes"/>
      <point x="323.1384615384615" y="-29.384615384615387"/>
      <point x="115.53846153846155" y="210.18461538461537"/>
    </contour>
    <contour>
      <point x="298.7692307692308" y="389.46153846153845" type="line" smooth="yes"/>
      <point x="298.7692307692308" y="277.16923076923075"/>
      <point x="401.12307692307695" y="121.86153846153846"/>
      <point x="508.4153846153846" y="121.86153846153846" type="qcurve" smooth="yes"/>
      <point x="615.7076923076924" y="121.86153846153846"/>
      <point x="718.123076923077" y="277.16923076923075"/>
      <point x="718.123076923077" y="389.46153846153845" type="qcurve" smooth="yes"/>
      <point x="718.123076923077" y="1066.3846153846155" type="line" smooth="yes"/>
      <point x="718.123076923077" y="1180.8923076923077"/>
      <point x="615.7076923076924" y="1334.1384615384616"/>
      <point x="508.4153846153846" y="1334.1384615384616" type="qcurve" smooth="yes"/>
      <point x="401.1538461538462" y="1334.1384615384616"/>
      <point x="298.7692307692308" y="1180.8923076923077"/>
      <point x="298.7692307692308" y="1066.3846153846155" type="qcurve" smooth="yes"/>
    </contour>
  </outline>
</glyph>
<glyph name="one" format="2">
  <advance width="1017"/>
  <unicode hex="0031"/>
  <outline>
    <contour>
      <point x="474.0615384615385" y="0.0" type="line"/>
      <point x="474.0615384615385" y="1241.9538461538461" type="line"/>
      <point x="180.92307692307693" y="1116.7846153846156" type="line"/>
      <point x="180.92307692307693" y="1294.7230769230769" type="line"/>
      <point x="627.7846153846153" y="1475.3846153846155" type="line"/>
      <point x="655.4153846153846" y="1475.3846153846155" type="line"/>
      <point x="655.4153846153846" y="0.0" type="line"/>
    </contour>
  </outline>
</glyph>
<glyph name="two" format="2">
  <advance width="1017"/>
  <unicode hex="0032"/>
  <outline>
    <contour>
      <point x="115.04615384615384" y="0.0" type="line"/>
      <point x="115.04615384615384" y="134.4" type="line"/>
      <point x="551.2307692307692" y="748.6615384615385" type="line" smooth="yes"/>
      <point x="629.5384615384615" y="854.0615384615385"/>
      <point x="709.6153846153846" y="1013.1076923076923"/>
      <point x="709.6153846153846" y="1107.676923076923" type="qcurve" smooth="yes"/>
      <point x="709.6153846153846" y="1209.4923076923078"/>
      <point x="607.2923076923078" y="1334.1384615384613"/>
      <point x="515.1076923076923" y="1334.1384615384613" type="qcurve" smooth="yes"/>
      <point x="422.10769230769233" y="1334.1384615384613"/>
      <point x="294.61538461538464" y="1190.7846153846156"/>
      <point x="294.61538461538464" y="1034.769230769231" type="qcurve" smooth="yes"/>
      <point x="294.61538461538464" y="1018.6153846153846" type="line"/>
      <point x="115.41538461538461" y="1018.6153846153846" type="line"/>
      <point x="115.41538461538461" y="1035.6923076923078" type="line" smooth="yes"/>
      <point x="115.38461538461539" y="1248.0307692307692"/>
      <point x="346.5230769230769" y="1485.3846153846152"/>
      <point x="515.2615384615384" y="1485.3846153846152" type="qcurve" smooth="yes"/>
      <point x="683.2153846153846" y="1485.3846153846152"/>
      <point x="888.9692307692308" y="1278.5538461538463"/>
      <point x="888.9692307692308" y="1117.676923076923" type="qcurve" smooth="yes"/>
      <point x="888.9692307692308" y="996.9230769230769"/>
      <point x="776.8461538461538" y="797.7538461538461"/>
      <point x="676.123076923077" y="657.9692307692308" type="qcurve" smooth="yes"/>
      <point x="311.84615384615387" y="149.3076923076923" type="line"/>
      <point x="922.5076923076923" y="149.3076923076923" type="line"/>
      <point x="922.5076923076923" y="0.0" type="line"/>
    </contour>
  </outline>
</glyph>
<glyph name="three" format="2">
  <advance width="1017"/>
  <unicode hex="0033"/>
  <outline>
    <contour>
      <point x="85.96923076923076" y="374.55384615384617" type="qcurve" smooth="yes"/>
      <point x="85.96923076923076" y="392.0" type="line"/>
      <point x="261.4461538461539" y="392.0" type="line"/>
      <point x="261.4461538461539" y="374.83076923076925" type="line" smooth="yes"/>
      <point x="261.4461538461539" y="254.18461538461537"/>
      <point x="385.18461538461537" y="121.86153846153847"/>
      <point x="487.87692307692305" y="121.86153846153847" type="qcurve" smooth="yes"/>
      <point x="590.6923076923077" y="121.86153846153847"/>
      <point x="712.4307692307692" y="255.0769230769231"/>
      <point x="712.4307692307692" y="399.84615384615387" type="qcurve" smooth="yes"/>
      <point x="712.4307692307692" y="543.7692307692307"/>
      <point x="572.3538461538462" y="685.5076923076923"/>
      <point x="454.4769230769231" y="685.5076923076923" type="qcurve" smooth="yes"/>
      <point x="355.10769230769233" y="685.5076923076923" type="line"/>
      <point x="355.10769230769233" y="833.8461538461538" type="line"/>
      <point x="445.2923076923077" y="833.8461538461538" type="line" smooth="yes"/>
      <point x="553.9692307692308" y="833.7846153846154"/>
      <point x="669.8153846153847" y="968.3538461538462"/>
      <point x="669.8153846153847" y="1091.4615384615383" type="qcurve" smooth="yes"/>
      <point x="669.8153846153847" y="1214.8307692307692"/>
      <point x="572.2461538461539" y="1334.1384615384613"/>
      <point x="488.0" y="1334.1384615384613" type="qcurve" smooth="yes"/>
      <point x="403.75384615384615" y="1334.1384615384613"/>
      <point x="295.8" y="1215.2615384615383"/>
      <point x="295.8" y="1104.4615384615386" type="qcurve" smooth="yes"/>
      <point x="295.8" y="1087.3846153846152" type="line"/>
      <point x="120.38461538461539" y="1087.3846153846152" type="line"/>
      <point x="120.38461538461539" y="1105.076923076923" type="line" smooth="yes"/>
      <point x="120.38461538461539" y="1263.2923076923078"/>
      <point x="328.79999999999995" y="1485.3846153846152"/>
      <point x="487.96923076923076" y="1485.3846153846152" type="qcurve" smooth="yes"/>
      <point x="648.3538461538461" y="1485.3846153846152"/>
      <point x="851.1076923076923" y="1272.2461538461537"/>
      <point x="851.1076923076923" y="1100.3692307692309" type="qcurve" smooth="yes"/>
      <point x="851.1076923076923" y="998.3692307692307"/>
      <point x="757.2461538461539" y="815.6615384615385"/>
      <point x="657.7538461538462" y="766.6769230769231" type="qcurve"/>
      <point x="657.7538461538462" y="762.6769230769231" type="line"/>
      <point x="766.2153846153847" y="731.1999999999999"/>
      <point x="895.6615384615385" y="542.1538461538462"/>
      <point x="895.6615384615385" y="400.81538461538463" type="qcurve" smooth="yes"/>
      <point x="895.6615384615385" y="198.5846153846154"/>
      <point x="664.9846153846154" y="-29.384615384615387"/>
      <point x="487.8461538461538" y="-29.384615384615387" type="qcurve" smooth="yes"/>
      <point x="311.2307692307692" y="-29.384615384615387"/>
      <point x="85.96923076923076" y="196.4923076923077"/>
    </contour>
  </outline>
</glyph>
<glyph name="four" format="2">
  <advance width="1017"/>
  <unicode hex="0034"/>
  <outline>
    <contour>
      <point x="606.3076923076924" y="0.0" type="line"/>
      <point x="606.3076923076924" y="397.7846153846154" type="line"/>
      <point x="606.4923076923077" y="446.6769230769231" type="line"/>
      <point x="606.4923076923077" y="1086.0" type="line"/>
      <point x="594.7384615384615" y="1086.0" type="line"/>
      <point x="248.98461538461538" y="494.2769230769231" type="line"/>
      <point x="670.1692307692308" y="494.2769230769231" type="line"/>
      <point x="732.9692307692308" y="494.4307692307693" type="line"/>
      <point x="951.6769230769231" y="494.4307692307693" type="line"/>
      <point x="951.6769230769231" y="344.15384615384613" type="line"/>
      <point x="54.52307692307692" y="344.15384615384613" type="line"/>
      <point x="54.52307692307692" y="464.95384615384614" type="line"/>
      <point x="634.2307692307693" y="1456.0" type="line"/>
      <point x="775.9384615384615" y="1456.0" type="line"/>
      <point x="775.9384615384615" y="0.0" type="line"/>
    </contour>
  </outline>
</glyph>
<glyph name="five" format="2">
  <advance width="1017"/>
  <unicode hex="0035"/>
  <outline>
    <contour>
      <point x="105.44615384615385" y="360.5384615384615" type="qcurve" smooth="yes"/>
      <point x="105.44615384615385" y="377.4923076923077" type="line"/>
      <point x="279.04615384615386" y="377.4923076923077" type="line"/>
      <point x="279.04615384615386" y="360.5384615384615" type="line" smooth="yes"/>
      <point x="279.04615384615386" y="249.3076923076923"/>
      <point x="399.75384615384615" y="121.86153846153847"/>
      <point x="500.5384615384615" y="121.86153846153847" type="qcurve" smooth="yes"/>
      <point x="602.2615384615385" y="121.86153846153847"/>
      <point x="729.7846153846154" y="298.6923076923077"/>
      <point x="729.7846153846154" y="465.0" type="qcurve" smooth="yes"/>
      <point x="729.7846153846154" y="629.323076923077"/>
      <point x="602.2307692307692" y="797.3538461538461"/>
      <point x="501.3846153846154" y="797.3538461538461" type="qcurve" smooth="yes"/>
      <point x="425.89230769230767" y="797.3538461538461"/>
      <point x="308.1230769230769" y="731.9076923076923"/>
      <point x="262.5076923076923" y="676.4923076923077" type="qcurve"/>
      <point x="148.36923076923077" y="728.9846153846154" type="line"/>
      <point x="218.24615384615385" y="1456.0" type="line"/>
      <point x="845.6769230769231" y="1456.0" type="line"/>
      <point x="845.6769230769231" y="1294.0923076923077" type="line"/>
      <point x="366.4" y="1294.0923076923077" type="line"/>
      <point x="324.66153846153844" y="888.123076923077" type="line"/>
      <point x="366.73846153846154" y="915.876923076923"/>
      <point x="466.5846153846154" y="949.4769230769231"/>
      <point x="525.5384615384615" y="949.4769230769231" type="qcurve" smooth="yes"/>
      <point x="686.9538461538461" y="949.4769230769231"/>
      <point x="909.1384615384616" y="694.5538461538462"/>
      <point x="909.1384615384616" y="465.0" type="qcurve" smooth="yes"/>
      <point x="909.1384615384616" y="232.13846153846154"/>
      <point x="678.5230769230769" y="-29.384615384615387"/>
      <point x="500.6307692307692" y="-29.384615384615387" type="qcurve" smooth="yes"/>
      <point x="323.89230769230767" y="-29.384615384615387"/>
      <point x="105.44615384615385" y="191.79999999999998"/>
    </contour>
  </outline>
</glyph>
<glyph name="six" format="2">
  <advance width="1017"/>
  <unicode hex="0036"/>
  <outline>
    <contour>
      <point x="94.0" y="612.8615384615384" type="qcurve" smooth="yes"/>
      <point x="94.0" y="644.4307692307692" type="line" smooth="yes"/>
      <point x="94.0" y="1027.723076923077"/>
      <point x="439.6" y="1483.1384615384616"/>
      <point x="758.3846153846154" y="1485.0153846153846" type="qcurve" smooth="yes"/>
      <point x="775.5999999999999" y="1485.3846153846152" type="line"/>
      <point x="776.7076923076922" y="1334.4461538461537" type="line"/>
      <point x="759.4615384615385" y="1334.0153846153846" type="line" smooth="yes"/>
      <point x="532.5846153846154" y="1332.476923076923"/>
      <point x="271.3538461538462" y="1007.7538461538462"/>
      <point x="271.3538461538462" y="656.1538461538461" type="qcurve" smooth="yes"/>
      <point x="271.3538461538462" y="604.3076923076923" type="line" smooth="yes"/>
      <point x="271.3538461538462" y="339.24615384615385"/>
      <point x="414.9230769230769" y="121.70769230769231"/>
      <point x="525.0769230769231" y="121.70769230769231" type="qcurve" smooth="yes"/>
      <point x="634.2615384615384" y="121.70769230769231"/>
      <point x="753.6307692307691" y="300.03076923076924"/>
      <point x="753.6307692307691" y="463.7230769230769" type="qcurve" smooth="yes"/>
      <point x="753.6307692307691" y="625.276923076923"/>
      <point x="634.3230769230769" y="801.2153846153846"/>
      <point x="525.1999999999999" y="801.2153846153846" type="qcurve" smooth="yes"/>
      <point x="422.0153846153846" y="801.2153846153846"/>
      <point x="265.13846153846157" y="625.3230769230769"/>
      <point x="265.0769230769231" y="464.03076923076924" type="qcurve"/>
      <point x="198.4769230769231" y="464.03076923076924" type="line"/>
      <point x="198.4769230769231" y="684.3538461538461"/>
      <point x="395.8461538461538" y="952.4"/>
      <point x="557.7076923076924" y="952.4" type="qcurve" smooth="yes"/>
      <point x="726.2923076923076" y="952.4"/>
      <point x="932.9230769230769" y="685.5538461538462"/>
      <point x="932.9230769230769" y="463.7230769230769" type="qcurve" smooth="yes"/>
      <point x="932.9230769230769" y="240.3076923076923"/>
      <point x="701.7538461538462" y="-29.384615384615387"/>
      <point x="525.1692307692308" y="-29.384615384615387" type="qcurve" smooth="yes"/>
      <point x="348.24615384615385" y="-29.384615384615387"/>
      <point x="94.0" y="271.0769230769231"/>
    </contour>
  </outline>
</glyph>
<glyph name="seven" format="2">
  <advance width="1017"/>
  <unicode hex="0037"/>
  <outline>
    <contour>
      <point x="238.8923076923077" y="0.0" type="line"/>
      <point x="721.3846153846154" y="1305.7230769230769" type="line"/>
      <point x="82.36923076923078" y="1305.7230769230769" type="line"/>
      <point x="82.36923076923078" y="1456.0" type="line"/>
      <point x="906.3384615384615" y="1456.0" type="line"/>
      <point x="906.3384615384615" y="1354.553846153846" type="line"/>
      <point x="424.15384615384613" y="0.0" type="line"/>
    </contour>
  </outline>
</glyph>
<glyph name="eight" format="2">
  <advance width="1017"/>
  <unicode hex="0038"/>
  <outline>
    <contour>
      <point x="109.16923076923077" y="385.84615384615387" type="qcurve" smooth="yes"/>
      <point x="109.16923076923077" y="518.0153846153846"/>
      <point x="226.9230769230769" y="697.9846153846154"/>
      <point x="324.86153846153843" y="743.0307692307692" type="qcurve"/>
      <point x="324.86153846153843" y="746.9384615384615" type="line"/>
      <point x="249.3076923076923" y="791.1076923076923"/>
      <point x="148.43076923076922" y="964.6461538461539"/>
      <point x="148.43076923076922" y="1087.123076923077" type="qcurve" smooth="yes"/>
      <point x="148.43076923076922" y="1269.0307692307692"/>
      <point x="353.18461538461537" y="1485.353846153846"/>
      <point x="508.4461538461538" y="1485.353846153846" type="qcurve" smooth="yes"/>
      <point x="663.676923076923" y="1485.353846153846"/>
      <point x="868.4615384615385" y="1269.4"/>
      <point x="868.4615384615385" y="1087.123076923077" type="qcurve" smooth="yes"/>
      <point x="868.4615384615385" y="964.7384615384615"/>
      <point x="766.5846153846154" y="791.0769230769231"/>
      <point x="691.9692307692308" y="747.0" type="qcurve"/>
      <point x="691.9692307692308" y="743.0923076923077" type="line"/>
      <point x="790.0" y="698.2"/>
      <point x="907.723076923077" y="519.0153846153846"/>
      <point x="907.723076923077" y="385.84615384615387" type="qcurve" smooth="yes"/>
      <point x="907.723076923077" y="186.2153846153846"/>
      <point x="680.276923076923" y="-29.384615384615387"/>
      <point x="508.4461538461538" y="-29.384615384615387" type="qcurve" smooth="yes"/>
      <point x="336.6153846153846" y="-29.384615384615387"/>
      <point x="109.16923076923077" y="186.4923076923077"/>
    </contour>
    <contour>
      <point x="286.55384615384617" y="394.6615384615385" type="qcurve" smooth="yes"/>
      <point x="286.55384615384617" y="271.75384615384615"/>
      <point x="402.4769230769231" y="121.76923076923077"/>
      <point x="508.4461538461538" y="121.76923076923077" type="qcurve" smooth="yes"/>
      <point x="613.4461538461538" y="121.76923076923077"/>
      <point x="729.3692307692307" y="271.9076923076923"/>
      <point x="729.3692307692307" y="394.63076923076926" type="qcurve" smooth="yes"/>
      <point x="729.3692307692307" y="518.3230769230769"/>
      <point x="613.6923076923077" y="668.9230769230769"/>
      <point x="508.4461538461538" y="668.9230769230769" type="qcurve" smooth="yes"/>
      <point x="402.2" y="668.9230769230769"/>
      <point x="286.55384615384617" y="518.5384615384615"/>
    </contour>
    <contour>
      <point x="321.7846153846154" y="1078.3384615384614" type="qcurve" smooth="yes"/>
      <point x="321.7846153846154" y="963.5384615384615"/>
      <point x="419.04615384615386" y="821.0461538461539"/>
      <point x="508.4461538461538" y="821.0461538461539" type="qcurve" smooth="yes"/>
      <point x="596.876923076923" y="821.0461538461539"/>
      <point x="695.1076923076923" y="963.6615384615384"/>
      <point x="695.1076923076923" y="1078.3384615384614" type="qcurve" smooth="yes"/>
      <point x="695.1076923076923" y="1193.0153846153846"/>
      <point x="596.8461538461539" y="1334.230769230769"/>
      <point x="508.4461538461538" y="1334.230769230769" type="qcurve" smooth="yes"/>
      <point x="419.0769230769231" y="1334.230769230769"/>
      <point x="321.7846153846154" y="1193.1384615384613"/>
    </contour>
  </outline>
</glyph>
<glyph name="nine" format="2">
  <advance width="1017"/>
  <unicode hex="0039"/>
  <outline>
    <contour>
      <point x="83.96923076923078" y="1001.9692307692308" type="qcurve" smooth="yes"/>
      <point x="83.96923076923078" y="1221.5076923076924"/>
      <point x="315.1384615384615" y="1485.3846153846152"/>
      <point x="491.7230769230769" y="1485.3846153846152" type="qcurve" smooth="yes"/>
      <point x="669.6153846153846" y="1485.3846153846152"/>
      <point x="922.8923076923077" y="1184.923076923077"/>
      <point x="922.8923076923077" y="843.1384615384616" type="qcurve" smooth="yes"/>
      <point x="922.8923076923077" y="811.5692307692308" type="line" smooth="yes"/>
      <point x="922.8923076923077" y="428.2769230769231"/>
      <point x="577.2923076923078" y="-27.138461538461538"/>
      <point x="258.5076923076923" y="-29.015384615384615" type="qcurve" smooth="yes"/>
      <point x="241.29230769230767" y="-29.384615384615387" type="line"/>
      <point x="240.18461538461537" y="121.55384615384617" type="line"/>
      <point x="257.4307692307692" y="121.9846153846154" type="line" smooth="yes"/>
      <point x="484.3076923076923" y="123.52307692307693"/>
      <point x="745.5384615384615" y="448.24615384615385"/>
      <point x="745.5384615384615" y="799.8461538461539" type="qcurve" smooth="yes"/>
      <point x="745.5384615384615" y="851.6923076923077" type="line" smooth="yes"/>
      <point x="745.5384615384615" y="1116.753846153846"/>
      <point x="601.9692307692308" y="1334.2923076923078"/>
      <point x="491.81538461538463" y="1334.2923076923078" type="qcurve" smooth="yes"/>
      <point x="382.63076923076926" y="1334.2923076923078"/>
      <point x="264.2307692307693" y="1160.8153846153846"/>
      <point x="264.2307692307693" y="1001.9692307692308" type="qcurve" smooth="yes"/>
      <point x="264.2307692307693" y="845.2615384615385"/>
      <point x="382.5692307692308" y="674.1692307692308"/>
      <point x="491.69230769230774" y="674.1692307692308" type="qcurve" smooth="yes"/>
      <point x="594.876923076923" y="674.1692307692308"/>
      <point x="751.7538461538462" y="844.2461538461539"/>
      <point x="751.8153846153847" y="1001.6615384615385" type="qcurve"/>
      <point x="819.3846153846154" y="1001.6615384615385" type="line"/>
      <point x="819.3846153846154" y="785.2153846153847"/>
      <point x="621.0461538461539" y="522.9846153846154"/>
      <point x="459.18461538461537" y="522.9846153846154" type="qcurve" smooth="yes"/>
      <point x="291.5692307692307" y="522.9846153846154"/>
      <point x="83.96923076923078" y="784.0153846153846"/>
    </contour>
  </outline>
</glyph>
<glyph name="colon" format="2">
  <advance width="581"/>
  <unicode hex="003A"/>
  <outline>
    <contour>
      <point x="171.93846153846152" y="94.44615384615385" type="qcurve" smooth="yes"/>
      <point x="171.93846153846152" y="142.04615384615386"/>
      <point x="233.26153846153846" y="210.36923076923077"/>
      <point x="290.6153846153846" y="210.36923076923077" type="qcurve" smooth="yes"/>
      <point x="347.96923076923076" y="210.36923076923077"/>
      <point x="409.2923076923077" y="142.04615384615386"/>
      <point x="409.2923076923077" y="94.44615384615385" type="qcurve" smooth="yes"/>
      <point x="409.2923076923077" y="46.815384615384616"/>
      <point x="347.96923076923076" y="-21.50769230769231"/>
      <point x="290.6153846153846" y="-21.50769230769231" type="qcurve" smooth="yes"/>
      <point x="233.26153846153846" y="-21.50769230769231"/>
      <point x="171.93846153846152" y="46.84615384615385"/>
    </contour>
    <contour>
      <point x="171.93846153846152" y="944.1999999999999" type="qcurve" smooth="yes"/>
      <point x="171.93846153846152" y="991.8"/>
      <point x="233.26153846153846" y="1060.123076923077"/>
      <point x="290.6153846153846" y="1060.123076923077" type="qcurve" smooth="yes"/>
      <point x="347.96923076923076" y="1060.123076923077"/>
      <point x="409.2923076923077" y="991.8"/>
      <point x="409.2923076923077" y="944.1999999999999" type="qcurve" smooth="yes"/>
      <point x="409.2923076923077" y="896.5692307692308"/>
      <point x="347.96923076923076" y="828.2461538461538"/>
      <point x="290.6153846153846" y="828.2461538461538" type="qcurve" smooth="yes"/>
      <point x="233.26153846153846" y="828.2461538461538"/>
      <point x="171.93846153846152" y="896.6"/>
    </contour>
  </outline>
</glyph>
<glyph name="semicolon" format="2">
  <advance width="581"/>
  <unicode hex="003B"/>
  <outline>
    <contour>
      <point x="119.33846153846153" y="-211.87692307692308" type="line"/>
      <point x="164.84615384615387" y="-150.43076923076924"/>
      <point x="215.47692307692307" y="-19.723076923076924"/>
      <point x="215.47692307692307" y="67.44615384615385" type="qcurve" smooth="yes"/>
      <point x="215.47692307692307" y="213.75384615384613" type="line"/>
      <point x="386.2" y="213.75384615384613" type="line"/>
      <point x="386.2" y="68.41538461538462" type="line" smooth="yes"/>
      <point x="386.2307692307692" y="-39.53846153846154"/>
      <point x="295.18461538461537" y="-216.6"/>
      <point x="219.3230769230769" y="-281.8307692307692" type="qcurve"/>
    </contour>
    <contour>
      <point x="171.93846153846152" y="944.1999999999999" type="qcurve" smooth="yes"/>
      <point x="171.93846153846152" y="991.8"/>
      <point x="233.26153846153846" y="1060.123076923077"/>
      <point x="290.6153846153846" y="1060.123076923077" type="qcurve" smooth="yes"/>
      <point x="347.96923076923076" y="1060.123076923077"/>
      <point x="409.2923076923077" y="991.8"/>
      <point x="409.2923076923077" y="944.1999999999999" type="qcurve" smooth="yes"/>
      <point x="409.2923076923077" y="896.5692307692308"/>
      <point x="347.96923076923076" y="828.2461538461538"/>
      <point x="290.6153846153846" y="828.2461538461538" type="qcurve" smooth="yes"/>
      <point x="233.26153846153846" y="828.2461538461538"/>
      <point x="171.93846153846152" y="896.6"/>
    </contour>
  </outline>
</glyph>
<glyph name="less" format="2">
  <advance width="1044"/>
  <unicode hex="003C"/>
  <outline>
    <contour>
      <point x="869.2615384615384" y="225.2923076923077" type="line"/>
      <point x="167.26153846153846" y="605.1692307692308" type="line"/>
      <point x="167.26153846153846" y="742.8307692307693" type="line"/>
      <point x="869.2615384615384" y="1122.7076923076925" type="line"/>
      <point x="869.2615384615384" y="940.9384615384615" type="line"/>
      <point x="350.96923076923076" y="674.0" type="line"/>
      <point x="869.2615384615384" y="407.0615384615384" type="line"/>
    </contour>
  </outline>
</glyph>
<glyph name="equal" format="2">
  <advance width="1040"/>
  <unicode hex="003D"/>
  <outline>
    <contour>
      <point x="151.93846153846152" y="396.96923076923076" type="line"/>
      <point x="151.93846153846152" y="554.0307692307692" type="line"/>
      <point x="888.1538461538462" y="554.0307692307692" type="line"/>
      <point x="888.1538461538462" y="396.96923076923076" type="line"/>
    </contour>
    <contour>
      <point x="151.93846153846152" y="794.0307692307692" type="line"/>
      <point x="151.93846153846152" y="951.0923076923077" type="line"/>
      <point x="888.1538461538462" y="951.0923076923077" type="line"/>
      <point x="888.1538461538462" y="794.0307692307692" type="line"/>
    </contour>
  </outline>
</glyph>
<glyph name="greater" format="2">
  <advance width="1044"/>
  <unicode hex="003E"/>
  <outline>
    <contour>
      <point x="175.20000000000002" y="225.2923076923077" type="line"/>
      <point x="175.20000000000002" y="407.0615384615385" type="line"/>
      <point x="693.4923076923077" y="674.0" type="line"/>
      <point x="175.20000000000002" y="940.9384615384616" type="line"/>
      <point x="175.20000000000002" y="1122.7076923076925" type="line"/>
      <point x="877.2" y="742.8307692307693" type="line"/>
      <point x="877.2" y="605.1692307692308" type="line"/>
    </contour>
  </outline>
</glyph>
<glyph name="question" format="2">
  <advance width="933"/>
  <unicode hex="003F"/>
  <outline>
    <contour>
      <point x="308.4923076923077" y="94.13846153846154" type="qcurve" smooth="yes"/>
      <point x="308.4923076923077" y="141.73846153846154"/>
      <point x="369.81538461538463" y="210.06153846153845"/>
      <point x="426.2" y="210.06153846153845" type="qcurve" smooth="yes"/>
      <point x="483.55384615384617" y="210.06153846153845"/>
      <point x="544.876923076923" y="141.73846153846154"/>
      <point x="544.876923076923" y="94.13846153846154" type="qcurve" smooth="yes"/>
      <point x="544.876923076923" y="46.50769230769231"/>
      <point x="484.5230769230769" y="-21.815384615384616"/>
      <point x="427.16923076923075" y="-21.815384615384616" type="qcurve" smooth="yes"/>
      <point x="369.81538461538463" y="-21.815384615384616"/>
      <point x="308.4923076923077" y="46.53846153846154"/>
    </contour>
    <contour>
      <point x="105.47692307692309" y="1093.4923076923076" type="line"/>
      <point x="105.47692307692309" y="1118.9692307692308" type="line" smooth="yes"/>
      <point x="105.47692307692309" y="1289.4615384615386"/>
      <point x="289.7846153846154" y="1475.7230769230769"/>
      <point x="449.95384615384614" y="1475.7230769230769" type="qcurve" smooth="yes"/>
      <point x="610.2153846153846" y="1475.7230769230769"/>
      <point x="790.0461538461539" y="1280.7384615384617"/>
      <point x="790.0461538461539" y="1106.0" type="qcurve" smooth="yes"/>
      <point x="790.0461538461539" y="970.6615384615385"/>
      <point x="663.0307692307692" y="764.876923076923"/>
      <point x="601.1076923076923" y="698.923076923077" type="qcurve" smooth="yes"/>
      <point x="533.1538461538462" y="625.3846153846154"/>
      <point x="505.9384615384615" y="489.81538461538463"/>
      <point x="505.9384615384615" y="422.0" type="qcurve" smooth="yes"/>
      <point x="505.9384615384615" y="407.6923076923077" type="line"/>
      <point x="330.58461538461535" y="407.6923076923077" type="line"/>
      <point x="330.58461538461535" y="421.9384615384615" type="line" smooth="yes"/>
      <point x="330.58461538461535" y="543.8"/>
      <point x="378.3076923076923" y="688.4615384615385"/>
      <point x="464.6461538461538" y="789.0769230769231" type="qcurve" smooth="yes"/>
      <point x="533.2615384615384" y="868.4153846153846"/>
      <point x="614.5384615384614" y="1005.8307692307692"/>
      <point x="614.5384615384614" y="1106.2153846153847" type="qcurve" smooth="yes"/>
      <point x="614.5384615384614" y="1211.4461538461537"/>
      <point x="533.3538461538461" y="1320.569230769231"/>
      <point x="450.1384615384615" y="1320.569230769231" type="qcurve" smooth="yes"/>
      <point x="367.1076923076923" y="1320.569230769231"/>
      <point x="279.95384615384614" y="1220.5384615384614"/>
      <point x="279.95384615384614" y="1118.9076923076923" type="qcurve" smooth="yes"/>
      <point x="279.95384615384614" y="1093.4923076923076" type="line"/>
    </contour>
  </outline>
</glyph>
<glyph name="at" format="2">
  <advance width="1829"/>
  <unicode hex="0040"/>
  <outline>
    <contour>
      <point x="532.4615384615385" y="405.4153846153846" type="qcurve" smooth="yes"/>
      <point x="532.8307692307693" y="683.0769230769231"/>
      <point x="787.3846153846154" y="1051.753846153846"/>
      <point x="955.3846153846154" y="1051.753846153846" type="qcurve" smooth="yes"/>
      <point x="1030.123076923077" y="1051.753846153846"/>
      <point x="1157.7846153846153" y="985.5076923076923"/>
      <point x="1199.353846153846" y="948.276923076923" type="qcurve"/>
      <point x="1295.153846153846" y="948.276923076923" type="line"/>
      <point x="1192.0615384615385" y="354.12307692307695" type="line" smooth="yes"/>
      <point x="1170.5230769230768" y="232.46153846153845"/>
      <point x="1238.8615384615384" y="136.8"/>
      <point x="1300.0923076923077" y="136.8" type="qcurve" smooth="yes"/>
      <point x="1409.7076923076925" y="136.8"/>
      <point x="1546.1692307692306" y="421.90769230769234"/>
      <point x="1546.4461538461537" y="653.2" type="qcurve" smooth="yes"/>
      <point x="1546.8153846153846" y="925.2307692307693"/>
      <point x="1236.7384615384615" y="1336.1076923076923"/>
      <point x="953.5846153846154" y="1336.1076923076923" type="qcurve" smooth="yes"/>
      <point x="669.1230769230768" y="1336.1076923076923"/>
      <point x="287.0769230769231" y="824.6769230769231"/>
      <point x="287.0769230769231" y="463.7846153846154" type="qcurve" smooth="yes"/>
      <point x="287.0769230769231" y="102.06153846153846"/>
      <point x="617.7076923076922" y="-288.9076923076923"/>
      <point x="867.9692307692308" y="-288.9076923076923" type="qcurve" smooth="yes"/>
      <point x="987.876923076923" y="-288.9076923076923"/>
      <point x="1155.2923076923075" y="-235.46153846153848"/>
      <point x="1212.7384615384615" y="-199.76923076923077" type="qcurve"/>
      <point x="1212.7384615384615" y="-349.2307692307692" type="line"/>
      <point x="1151.6923076923076" y="-392.7692307692308"/>
      <point x="987.6923076923077" y="-438.33846153846156"/>
      <point x="867.9692307692308" y="-438.33846153846156" type="qcurve" smooth="yes"/>
      <point x="558.4769230769231" y="-438.33846153846156"/>
      <point x="111.56923076923077" y="44.184615384615384"/>
      <point x="111.56923076923077" y="463.7846153846154" type="qcurve" smooth="yes"/>
      <point x="111.56923076923077" y="882.4923076923077"/>
      <point x="610.8615384615384" y="1485.5384615384614"/>
      <point x="953.5846153846154" y="1485.5384615384614" type="qcurve" smooth="yes"/>
      <point x="1296.3076923076924" y="1485.5384615384614"/>
      <point x="1717.3846153846155" y="1002.8923076923077"/>
      <point x="1717.0153846153846" y="653.2" type="qcurve" smooth="yes"/>
      <point x="1716.7384615384617" y="364.0923076923077"/>
      <point x="1481.7846153846153" y="5.815384615384616"/>
      <point x="1310.9076923076925" y="5.815384615384616" type="qcurve" smooth="yes"/>
      <point x="1211.353846153846" y="5.815384615384616"/>
      <point x="1063.2461538461537" y="104.06153846153848"/>
      <point x="1028.7076923076922" y="182.8923076923077" type="qcurve"/>
      <point x="987.3846153846154" y="103.84615384615384"/>
      <point x="869.4461538461538" y="5.815384615384616"/>
      <point x="800.1846153846154" y="5.815384615384616" type="qcurve" smooth="yes"/>
      <point x="676.8461538461539" y="5.815384615384616"/>
      <point x="532.0615384615385" y="223.87692307692308"/>
    </contour>
    <contour>
      <point x="711.7538461538461" y="405.44615384615383" type="qcurve" smooth="yes"/>
      <point x="711.2923076923076" y="281.6923076923077"/>
      <point x="778.2153846153846" y="155.5846153846154"/>
      <point x="840.446153846154" y="155.5846153846154" type="qcurve" smooth="yes"/>
      <point x="900.7076923076922" y="155.5846153846154"/>
      <point x="996.9538461538461" y="262.4"/>
      <point x="1021.4923076923078" y="394.0" type="qcurve" smooth="yes"/>
      <point x="1108.769230769231" y="874.4461538461538" type="line"/>
      <point x="1083.1384615384616" y="895.0153846153846"/>
      <point x="1013.676923076923" y="917.1384615384616"/>
      <point x="978.7076923076922" y="917.1384615384616" type="qcurve" smooth="yes"/>
      <point x="862.7076923076922" y="917.1384615384616"/>
      <point x="712.1846153846153" y="625.6923076923076"/>
    </contour>
  </outline>
</glyph>
<glyph name="A" format="2">
  <advance width="1064"/>
  <unicode hex="0041"/>
  <anchor x="625.6" y="1432.0" name="top"/>
  <outline>
    <contour>
      <point x="-0.3076923076923077" y="0.0" type="line"/>
      <point x="435.9384615384615" y="1465.6615384615384" type="line"/>
      <point x="627.4461538461538" y="1465.6615384615384" type="line"/>
      <point x="1064.6307692307691" y="0.0" type="line"/>
      <point x="880.3692307692309" y="0.0" type="line"/>
      <point x="564.2153846153846" y="1101.1076923076923" type="line" smooth="yes"/>
      <point x="555.4" y="1135.353846153846"/>
      <point x="540.4" y="1200.8"/>
      <point x="534.5230769230769" y="1233.0153846153846" type="qcurve"/>
      <point x="526.7384615384615" y="1233.0153846153846" type="line"/>
      <point x="520.8615384615384" y="1200.8"/>
      <point x="504.9230769230769" y="1135.353846153846"/>
      <point x="495.1384615384615" y="1101.1076923076923" type="qcurve" smooth="yes"/>
      <point x="177.04615384615383" y="0.0" type="line"/>
    </contour>
    <contour>
      <point x="199.47692307692307" y="382.24615384615385" type="line"/>
      <point x="244.6153846153846" y="534.4307692307692" type="line"/>
      <point x="816.7384615384616" y="534.4307692307692" type="line"/>
      <point x="860.9076923076923" y="382.24615384615385" type="line"/>
    </contour>
  </outline>
</glyph>
<glyph name="B" format="2">
  <advance width="1100"/>
  <unicode hex="0042"/>
  <outline>
    <contour>
      <point x="166.1846153846154" y="0.0" type="line"/>
      <point x="166.1846153846154" y="1456.0" type="line"/>
      <point x="559.8461538461538" y="1456.0" type="line" smooth="yes"/>
      <point x="749.276923076923" y="1456.0"/>
      <point x="965.7846153846154" y="1270.6769230769232"/>
      <point x="965.7846153846154" y="1071.6153846153845" type="qcurve" smooth="yes"/>
      <point x="965.7846153846154" y="948.3692307692307"/>
      <point x="861.5692307692308" y="795.7538461538461"/>
      <point x="782.3384615384616" y="768.0615384615385" type="qcurve"/>
      <point x="782.3384615384616" y="764.123076923077" type="line"/>
      <point x="880.9538461538461" y="735.4923076923077"/>
      <point x="1002.8615384615384" y="561.6615384615385"/>
      <point x="1002.8615384615384" y="417.9384615384615" type="qcurve" smooth="yes"/>
      <point x="1002.8615384615384" y="218.33846153846153"/>
      <point x="776.5384615384615" y="0.0"/>
      <point x="588.123076923077" y="0.0" type="qcurve" smooth="yes"/>
    </contour>
    <contour>
      <point x="343.6" y="151.27692307692305" type="line"/>
      <point x="588.5538461538462" y="151.27692307692305" type="line" smooth="yes"/>
      <point x="710.0923076923077" y="151.27692307692305"/>
      <point x="823.3230769230769" y="294.81538461538463"/>
      <point x="823.3230769230769" y="418.90769230769234" type="qcurve" smooth="yes"/>
      <point x="823.3230769230769" y="541.723076923077"/>
      <point x="709.8153846153846" y="682.8"/>
      <point x="588.6769230769231" y="682.8" type="qcurve" smooth="yes"/>
      <point x="343.6" y="682.8" type="line"/>
    </contour>
    <contour>
      <point x="343.6" y="833.2" type="line"/>
      <point x="559.2923076923076" y="833.2" type="line" smooth="yes"/>
      <point x="679.6461538461538" y="833.2"/>
      <point x="786.2769230769231" y="957.123076923077"/>
      <point x="786.2461538461539" y="1071.4923076923076" type="qcurve" smooth="yes"/>
      <point x="786.2153846153847" y="1185.8615384615384"/>
      <point x="679.8615384615384" y="1304.6923076923076"/>
      <point x="559.7538461538462" y="1304.6923076923076" type="qcurve" smooth="yes"/>
      <point x="343.6" y="1304.6923076923076" type="line"/>
    </contour>
  </outline>
</glyph>
<glyph name="C" format="2">
  <advance width="1133"/>
  <unicode hex="0043"/>
  <anchor x="703.4153846153846" y="0" name="bottom"/>
  <outline>
    <contour>
      <point x="112.75384615384615" y="667.3538461538462" type="qcurve" smooth="yes"/>
      <point x="112.75384615384615" y="788.9538461538461" type="line" smooth="yes"/>
      <point x="112.75384615384615" y="1118.0"/>
      <point x="402.79999999999995" y="1485.3846153846152"/>
      <point x="622.0" y="1485.3846153846152" type="qcurve" smooth="yes"/>
      <point x="838.9538461538461" y="1485.3846153846152"/>
      <point x="1073.723076923077" y="1205.6923076923076"/>
      <point x="1083.4153846153845" y="1009.3538461538462" type="qcurve" smooth="yes"/>
      <point x="1083.4153846153845" y="988.276923076923" type="line"/>
      <point x="902.123076923077" y="988.276923076923" type="line"/>
      <point x="902.123076923077" y="1009.0461538461539" type="line" smooth="yes"/>
      <point x="896.3076923076923" y="1128.7384615384617"/>
      <point x="761.0615384615385" y="1328.076923076923"/>
      <point x="621.9692307692308" y="1328.076923076923" type="qcurve" smooth="yes"/>
      <point x="478.87692307692305" y="1328.076923076923"/>
      <point x="295.13846153846157" y="1041.1076923076923"/>
      <point x="295.13846153846157" y="788.9538461538461" type="qcurve" smooth="yes"/>
      <point x="295.13846153846157" y="667.3538461538462" type="line" smooth="yes"/>
      <point x="295.13846153846157" y="414.67692307692306"/>
      <point x="478.81538461538463" y="127.67692307692307"/>
      <point x="621.9384615384615" y="127.67692307692307" type="qcurve" smooth="yes"/>
      <point x="761.123076923077" y="127.67692307692307"/>
      <point x="896.4" y="327.2307692307692"/>
      <point x="902.2153846153847" y="447.69230769230774" type="qcurve" smooth="yes"/>
      <point x="902.2153846153847" y="467.7230769230769" type="line"/>
      <point x="1083.4461538461537" y="467.7230769230769" type="line"/>
      <point x="1083.4461538461537" y="447.44615384615383" type="line" smooth="yes"/>
      <point x="1073.7538461538463" y="250.6769230769231"/>
      <point x="839.0769230769231" y="-29.384615384615387"/>
      <point x="622.0" y="-29.384615384615387" type="qcurve" smooth="yes"/>
      <point x="402.7692307692307" y="-29.384615384615387"/>
      <point x="112.75384615384615" y="338.4307692307692"/>
    </contour>
  </outline>
</glyph>
<glyph name="D" format="2">
  <advance width="1198"/>
  <unicode hex="0044"/>
  <outline>
    <contour>
      <point x="166.1846153846154" y="0.0" type="line"/>
      <point x="166.1846153846154" y="1456.0" type="line"/>
      <point x="523.0769230769231" y="1456.0" type="line" smooth="yes"/>
      <point x="763.8461538461539" y="1456.0"/>
      <point x="1084.3384615384614" y="1093.0461538461539"/>
      <point x="1084.3384615384614" y="785.6923076923076" type="qcurve" smooth="yes"/>
      <point x="1084.3384615384614" y="669.1076923076923" type="line" smooth="yes"/>
      <point x="1084.3384615384614" y="362.8923076923077"/>
      <point x="763.6" y="0.0"/>
      <point x="522.8923076923077" y="0.0" type="qcurve" smooth="yes"/>
    </contour>
    <contour>
      <point x="347.53846153846155" y="151.2153846153846" type="line"/>
      <point x="522.5230769230769" y="151.2153846153846" type="line" smooth="yes"/>
      <point x="696.2461538461539" y="151.2153846153846"/>
      <point x="900.9846153846154" y="426.2153846153846"/>
      <point x="900.9846153846154" y="668.923076923077" type="qcurve" smooth="yes"/>
      <point x="900.9846153846154" y="786.7384615384615" type="line" smooth="yes"/>
      <point x="900.9846153846154" y="1030.1846153846154"/>
      <point x="696.1230769230768" y="1304.6"/>
      <point x="522.5230769230769" y="1304.6" type="qcurve" smooth="yes"/>
      <point x="347.53846153846155" y="1304.6" type="line"/>
    </contour>
  </outline>
</glyph>
<glyph name="E" format="2">
  <advance width="1009"/>
  <unicode hex="0045"/>
  <anchor x="611.9384615384616" y="1432.0" name="top"/>
  <outline>
    <contour>
      <point x="166.1846153846154" y="0.0" type="line"/>
      <point x="166.1846153846154" y="1456.0" type="line"/>
      <point x="933.3230769230769" y="1456.0" type="line"/>
      <point x="933.3230769230769" y="1304.6923076923076" type="line"/>
      <point x="347.53846153846155" y="1304.6923076923076" type="line"/>
      <point x="347.53846153846155" y="827.3538461538461" type="line"/>
      <point x="843.3230769230769" y="827.3538461538461" type="line"/>
      <point x="843.3230769230769" y="675.0153846153846" type="line"/>
      <point x="347.53846153846155" y="675.0153846153846" type="line"/>
      <point x="347.53846153846155" y="151.3076923076923" type="line"/>
      <point x="943.3538461538461" y="151.3076923076923" type="line"/>
      <point x="943.3538461538461" y="0.0" type="line"/>
    </contour>
  </outline>
</glyph>
<glyph name="F" format="2">
  <advance width="977"/>
  <unicode hex="0046"/>
  <outline>
    <contour>
      <point x="166.1846153846154" y="0.0" type="line"/>
      <point x="166.1846153846154" y="1456.0" type="line"/>
      <point x="920.9230769230769" y="1456.0" type="line"/>
      <point x="920.9230769230769" y="1304.6923076923076" type="line"/>
      <point x="347.53846153846155" y="1304.6923076923076" type="line"/>
      <point x="347.53846153846155" y="798.1538461538462" type="line"/>
      <point x="839.0461538461539" y="798.1538461538462" type="line"/>
      <point x="839.0461538461539" y="647.6615384615385" type="line"/>
      <point x="347.53846153846155" y="647.6615384615385" type="line"/>
      <point x="347.53846153846155" y="0.0" type="line"/>
    </contour>
  </outline>
</glyph>
<glyph name="G" format="2">
  <advance width="1156"/>
  <unicode hex="0047"/>
  <outline>
    <contour>
      <point x="112.75384615384615" y="667.2307692307693" type="qcurve" smooth="yes"/>
      <point x="112.75384615384615" y="788.9230769230769" type="line" smooth="yes"/>
      <point x="112.75384615384615" y="1118.0"/>
      <point x="400.8307692307692" y="1485.3846153846152"/>
      <point x="618.3384615384615" y="1485.3846153846152" type="qcurve" smooth="yes"/>
      <point x="832.876923076923" y="1485.3846153846152"/>
      <point x="1068.4923076923076" y="1224.7384615384615"/>
      <point x="1077.2153846153847" y="1046.7384615384617" type="qcurve" smooth="yes"/>
      <point x="1078.1846153846154" y="1029.6" type="line"/>
      <point x="897.0461538461539" y="1029.6" type="line"/>
      <point x="896.0769230769231" y="1046.0615384615385" type="line" smooth="yes"/>
      <point x="891.2307692307693" y="1147.5384615384617"/>
      <point x="754.7384615384615" y="1328.076923076923"/>
      <point x="618.4" y="1328.076923076923" type="qcurve" smooth="yes"/>
      <point x="477.3076923076923" y="1328.076923076923"/>
      <point x="295.10769230769233" y="1041.2615384615385"/>
      <point x="295.10769230769233" y="788.2461538461538" type="qcurve" smooth="yes"/>
      <point x="295.10769230769233" y="667.2923076923078" type="line" smooth="yes"/>
      <point x="295.10769230769233" y="414.9230769230769"/>
      <point x="479.96923076923076" y="127.61538461538463"/>
      <point x="647.4153846153846" y="127.61538461538463" type="qcurve" smooth="yes"/>
      <point x="729.3538461538461" y="127.61538461538463"/>
      <point x="846.1538461538462" y="163.90769230769232"/>
      <point x="902.5846153846154" y="204.1076923076923" type="qcurve"/>
      <point x="902.5846153846154" y="573.6923076923077" type="line"/>
      <point x="627.5076923076923" y="573.6923076923077" type="line"/>
      <point x="627.5076923076923" y="725.9076923076923" type="line"/>
      <point x="1077.8769230769233" y="725.9076923076923" type="line"/>
      <point x="1077.8769230769233" y="136.75384615384615" type="line"/>
      <point x="1019.323076923077" y="75.86153846153847"/>
      <point x="802.123076923077" y="-29.384615384615387"/>
      <point x="647.4153846153846" y="-29.384615384615387" type="qcurve" smooth="yes"/>
      <point x="402.86153846153843" y="-29.384615384615387"/>
      <point x="112.75384615384615" y="338.21538461538466"/>
    </contour>
  </outline>
</glyph>
<glyph name="H" format="2">
  <advance width="1274"/>
  <unicode hex="0048"/>
  <outline>
    <contour>
      <point x="166.1846153846154" y="0.0" type="line"/>
      <point x="166.1846153846154" y="1456.0" type="line"/>
      <point x="347.53846153846155" y="1456.0" type="line"/>
      <point x="347.53846153846155" y="827.2615384615385" type="line"/>
      <point x="926.4615384615385" y="827.2615384615385" type="line"/>
      <point x="926.4615384615385" y="1456.0" type="line"/>
      <point x="1107.8153846153848" y="1456.0" type="line"/>
      <point x="1107.8153846153848" y="0.0" type="line"/>
      <point x="926.4615384615385" y="0.0" type="line"/>
      <point x="926.4615384615385" y="674.8" type="line"/>
      <point x="347.53846153846155" y="674.8" type="line"/>
      <point x="347.53846153846155" y="0.0" type="line"/>
    </contour>
  </outline>
</glyph>
<glyph name="I" format="2">
  <advance width="524"/>
  <unicode hex="0049"/>
  <anchor x="265.73846153846154" y="1432.0" name="top"/>
  <outline>
    <contour>
      <point x="171.0923076923077" y="0.0" type="line"/>
      <point x="171.0923076923077" y="1456.0" type="line"/>
      <point x="351.5384615384615" y="1456.0" type="line"/>
      <point x="351.5384615384615" y="0.0" type="line"/>
    </contour>
  </outline>
</glyph>
<glyph name="J" format="2">
  <advance width="945"/>
  <unicode hex="004A"/>
  <outline>
    <contour>
      <point x="24.23076923076923" y="393.75384615384615" type="qcurve" smooth="yes"/>
      <point x="24.23076923076923" y="407.6923076923077" type="line"/>
      <point x="205.52307692307693" y="407.6923076923077" type="line"/>
      <point x="205.52307692307693" y="394.0615384615385" type="line" smooth="yes"/>
      <point x="205.52307692307693" y="262.69230769230774"/>
      <point x="308.96923076923076" y="127.70769230769231"/>
      <point x="408.59999999999997" y="127.70769230769231" type="qcurve" smooth="yes"/>
      <point x="507.323076923077" y="127.70769230769231"/>
      <point x="611.7384615384615" y="278.32307692307694"/>
      <point x="611.7384615384615" y="418.9384615384616" type="qcurve" smooth="yes"/>
      <point x="611.7384615384615" y="1456.0" type="line"/>
      <point x="792.1230769230768" y="1456.0" type="line"/>
      <point x="792.1230769230768" y="419.15384615384613" type="line" smooth="yes"/>
      <point x="792.1230769230768" y="211.33846153846156"/>
      <point x="585.4307692307692" y="-29.353846153846156"/>
      <point x="408.6923076923077" y="-29.353846153846156" type="qcurve" smooth="yes"/>
      <point x="231.0769230769231" y="-29.353846153846156"/>
      <point x="24.23076923076923" y="196.52307692307693"/>
    </contour>
  </outline>
</glyph>
<glyph name="K" format="2">
  <advance width="1088"/>
  <unicode hex="004B"/>
  <outline>
    <contour>
      <point x="166.1846153846154" y="0.0" type="line"/>
      <point x="166.1846153846154" y="1456.0" type="line"/>
      <point x="347.53846153846155" y="1456.0" type="line"/>
      <point x="347.53846153846155" y="758.0461538461539" type="line"/>
      <point x="882.5384615384615" y="1456.0" type="line"/>
      <point x="1081.4923076923078" y="1456.0" type="line"/>
      <point x="347.53846153846155" y="524.6153846153846" type="line"/>
      <point x="347.53846153846155" y="0.0" type="line"/>
    </contour>
    <contour>
      <point x="903.3846153846154" y="0.0" type="line"/>
      <point x="425.73846153846154" y="753.5538461538462" type="line"/>
      <point x="534.9230769230769" y="885.2923076923076" type="line"/>
      <point x="1107.3384615384616" y="0.0" type="line"/>
    </contour>
  </outline>
</glyph>
<glyph name="L" format="2">
  <advance width="932"/>
  <unicode hex="004C"/>
  <outline>
    <contour>
      <point x="166.1846153846154" y="0.0" type="line"/>
      <point x="166.1846153846154" y="1456.0" type="line"/>
      <point x="347.6" y="1456.0" type="line"/>
      <point x="347.6" y="151.3076923076923" type="line"/>
      <point x="908.3692307692307" y="151.3076923076923" type="line"/>
      <point x="908.3692307692307" y="0.0" type="line"/>
    </contour>
  </outline>
</glyph>
<glyph name="M" format="2">
  <advance width="1542"/>
  <unicode hex="004D"/>
  <outline>
    <contour>
      <point x="166.1846153846154" y="0.0" type="line"/>
      <point x="166.1846153846154" y="1456.0" type="line"/>
      <point x="404.84615384615387" y="1456.0" type="line"/>
      <point x="730.2307692307692" y="372.96923076923076" type="line" smooth="yes"/>
      <point x="740.9230769230769" y="338.8"/>
      <point x="762.3076923076923" y="272.24615384615385"/>
      <point x="768.123076923077" y="233.3230769230769" type="qcurve"/>
      <point x="773.9384615384615" y="233.3230769230769" type="line"/>
      <point x="780.723076923077" y="272.24615384615385"/>
      <point x="798.2307692307693" y="338.8"/>
      <point x="808.9230769230769" y="372.96923076923076" type="qcurve" smooth="yes"/>
      <point x="1138.1538461538462" y="1456.0" type="line"/>
      <point x="1376.0" y="1456.0" type="line"/>
      <point x="1376.0" y="0.0" type="line"/>
      <point x="1200.553846153846" y="0.0" type="line"/>
      <point x="1200.553846153846" y="1005.1692307692307" type="line" smooth="yes"/>
      <point x="1200.553846153846" y="1040.4"/>
      <point x="1205.3999999999999" y="1125.7384615384615"/>
      <point x="1208.3076923076922" y="1160.1538461538462" type="qcurve"/>
      <point x="1199.5846153846153" y="1160.1538461538462" type="line"/>
      <point x="1194.6461538461538" y="1125.7384615384615"/>
      <point x="1172.2" y="1040.3384615384616"/>
      <point x="1161.5076923076922" y="1005.1692307692307" type="qcurve" smooth="yes"/>
      <point x="850.3230769230769" y="0.0" type="line"/>
      <point x="687.8307692307692" y="0.0" type="line"/>
      <point x="373.7692307692308" y="1005.1384615384615" type="line" smooth="yes"/>
      <point x="362.10769230769233" y="1040.3076923076924"/>
      <point x="344.4769230769231" y="1125.8307692307692"/>
      <point x="339.5692307692308" y="1160.1538461538462" type="qcurve"/>
      <point x="329.87692307692305" y="1160.1538461538462" type="line"/>
      <point x="333.75384615384615" y="1125.8"/>
      <point x="337.63076923076926" y="1040.2769230769231"/>
      <point x="337.63076923076926" y="1005.1076923076922" type="qcurve" smooth="yes"/>
      <point x="337.63076923076926" y="0.0" type="line"/>
    </contour>
  </outline>
</glyph>
<glyph name="N" format="2">
  <advance width="1264"/>
  <unicode hex="004E"/>
  <anchor x="723.5384615384615" y="1432.0" name="top"/>
  <outline>
    <contour>
      <point x="166.1846153846154" y="0.0" type="line"/>
      <point x="166.1846153846154" y="1456.0" type="line"/>
      <point x="361.4769230769231" y="1456.0" type="line"/>
      <point x="884.1230769230768" y="396.8153846153846" type="line" smooth="yes"/>
      <point x="898.6923076923077" y="367.55384615384617"/>
      <point x="913.6307692307693" y="340.3692307692308"/>
      <point x="923.3538461538461" y="308.16923076923075" type="qcurve"/>
      <point x="930.2307692307693" y="308.16923076923075" type="line"/>
      <point x="927.3230769230769" y="342.3076923076923"/>
      <point x="921.5076923076923" y="410.32307692307694"/>
      <point x="921.5076923076923" y="444.36923076923074" type="qcurve" smooth="yes"/>
      <point x="921.5076923076923" y="1457.9384615384615" type="line"/>
      <point x="1097.8" y="1456.0" type="line"/>
      <point x="1097.8" y="0.0" type="line"/>
      <point x="902.5692307692308" y="0.0" type="line"/>
      <point x="394.30769230769226" y="1024.0615384615385" type="line" smooth="yes"/>
      <point x="379.73846153846154" y="1053.323076923077"/>
      <point x="351.2" y="1118.5846153846155"/>
      <point x="341.44615384615383" y="1149.9692307692308" type="qcurve"/>
      <point x="333.6923076923077" y="1149.9692307692308" type="line"/>
      <point x="336.59999999999997" y="1116.646153846154"/>
      <point x="340.53846153846155" y="1037.7846153846156"/>
      <point x="340.53846153846155" y="1004.6461538461539" type="qcurve" smooth="yes"/>
      <point x="340.53846153846155" y="0.0" type="line"/>
    </contour>
  </outline>
</glyph>
<glyph name="O" format="2">
  <advance width="1247"/>
  <unicode hex="004F"/>
  <anchor x="713.323076923077" y="1432.0" name="top"/>
  <outline>
    <contour>
      <point x="112.75384615384615" y="667.2307692307693" type="qcurve" smooth="yes"/>
      <point x="112.75384615384615" y="788.9230769230769" type="line" smooth="yes"/>
      <point x="112.75384615384615" y="1118.0"/>
      <point x="395.2" y="1485.3846153846152"/>
      <point x="623.3384615384616" y="1485.3846153846152" type="qcurve" smooth="yes"/>
      <point x="851.4461538461538" y="1485.3846153846152"/>
      <point x="1133.0461538461539" y="1118.0"/>
      <point x="1133.0461538461539" y="788.9230769230769" type="qcurve" smooth="yes"/>
      <point x="1133.0461538461539" y="667.2307692307693" type="line" smooth="yes"/>
      <point x="1133.0461538461539" y="338.2769230769231"/>
      <point x="851.2615384615384" y="-29.384615384615387"/>
      <point x="623.3384615384616" y="-29.384615384615387" type="qcurve" smooth="yes"/>
      <point x="395.26153846153846" y="-29.384615384615387"/>
      <point x="112.75384615384615" y="338.24615384615385"/>
    </contour>
    <contour>
      <point x="295.13846153846157" y="667.9384615384616" type="line" smooth="yes"/>
      <point x="295.13846153846157" y="414.92307692307696"/>
      <point x="470.4307692307692" y="127.67692307692309"/>
      <point x="623.3384615384616" y="127.67692307692309" type="qcurve" smooth="yes"/>
      <point x="776.1846153846153" y="127.67692307692309"/>
      <point x="949.6923076923077" y="414.8923076923077"/>
      <point x="949.6923076923077" y="667.9384615384616" type="qcurve" smooth="yes"/>
      <point x="949.6923076923077" y="788.2153846153846" type="line" smooth="yes"/>
      <point x="949.6923076923077" y="1040.8923076923077"/>
      <point x="776.2461538461538" y="1328.076923076923"/>
      <point x="623.3384615384616" y="1328.076923076923" type="qcurve" smooth="yes"/>
      <point x="470.4307692307692" y="1328.076923076923"/>
      <point x="295.13846153846157" y="1040.8923076923077"/>
      <point x="295.13846153846157" y="788.2153846153846" type="qcurve" smooth="yes"/>
    </contour>
  </outline>
</glyph>
<glyph name="P" format="2">
  <advance width="1061"/>
  <unicode hex="0050"/>
  <outline>
    <contour>
      <point x="166.1846153846154" y="0.0" type="line"/>
      <point x="166.1846153846154" y="1456.0" type="line"/>
      <point x="561.1692307692308" y="1456.0" type="line" smooth="yes"/>
      <point x="767.9692307692308" y="1456.0"/>
      <point x="987.4153846153846" y="1217.4"/>
      <point x="987.4153846153846" y="1016.4307692307692" type="qcurve" smooth="yes"/>
      <point x="987.4153846153846" y="815.4615384615385"/>
      <point x="767.6615384615384" y="572.9230769230769"/>
      <point x="561.7538461538461" y="572.9230769230769" type="qcurve" smooth="yes"/>
      <point x="347.6" y="572.9230769230769" type="line"/>
      <point x="347.6" y="0.0" type="line"/>
    </contour>
    <contour>
      <point x="347.6" y="725.2307692307693" type="line"/>
      <point x="561.5692307692308" y="725.2307692307693" type="line" smooth="yes"/>
      <point x="697.3076923076923" y="725.2307692307693"/>
      <point x="806.123076923077" y="891.553846153846"/>
      <point x="806.123076923077" y="1016.4" type="qcurve" smooth="yes"/>
      <point x="806.123076923077" y="1141.3846153846155"/>
      <point x="697.5846153846154" y="1304.6615384615384"/>
      <point x="561.5692307692308" y="1304.6615384615384" type="qcurve" smooth="yes"/>
      <point x="347.6" y="1304.6615384615384" type="line"/>
    </contour>
  </outline>
</glyph>
<glyph name="R" format="2">
  <advance width="1082"/>
  <unicode hex="0052"/>
  <outline>
    <contour>
      <point x="166.1846153846154" y="0.0" type="line"/>
      <point x="166.1846153846154" y="1456.0" type="line"/>
      <point x="554.2153846153846" y="1456.0" type="line" smooth="yes"/>
      <point x="756.2461538461538" y="1456.0"/>
      <point x="976.0615384615385" y="1225.2615384615385"/>
      <point x="976.0615384615385" y="1029.4615384615386" type="qcurve" smooth="yes"/>
      <point x="976.0615384615385" y="835.0461538461537"/>
      <point x="756.0923076923076" y="596.9538461538461"/>
      <point x="553.4769230769231" y="596.9538461538461" type="qcurve" smooth="yes"/>
      <point x="347.53846153846155" y="596.9538461538461" type="line"/>
      <point x="347.53846153846155" y="0.0" type="line"/>
    </contour>
    <contour>
      <point x="347.53846153846155" y="747.323076923077" type="line"/>
      <point x="554.0307692307692" y="747.323076923077" type="line" smooth="yes"/>
      <point x="688.1076923076923" y="747.323076923077"/>
      <point x="794.6153846153846" y="910.8615384615385"/>
      <point x="794.6153846153846" y="1029.4307692307693" type="qcurve" smooth="yes"/>
      <point x="794.6153846153846" y="1150.8461538461538"/>
      <point x="688.0461538461539" y="1306.6"/>
      <point x="554.0615384615385" y="1306.6" type="qcurve" smooth="yes"/>
      <point x="347.53846153846155" y="1306.6" type="line"/>
    </contour>
    <contour>
      <point x="844.2461538461539" y="0.0" type="line"/>
      <point x="539.9692307692308" y="672.2153846153846" type="line"/>
      <point x="730.8923076923077" y="672.2153846153846" type="line"/>
      <point x="1043.1384615384616" y="0.0" type="line"/>
    </contour>
  </outline>
</glyph>
<glyph name="S" format="2">
  <advance width="1047"/>
  <unicode hex="0053"/>
  <outline>
    <contour>
      <point x="87.53846153846153" y="383.8461538461538" type="qcurve" smooth="yes"/>
      <point x="87.53846153846153" y="412.4" type="line"/>
      <point x="268.83076923076925" y="412.4" type="line"/>
      <point x="268.83076923076925" y="384.15384615384613" type="line" smooth="yes"/>
      <point x="268.8" y="254.67692307692306"/>
      <point x="407.01538461538456" y="127.67692307692309"/>
      <point x="532.0" y="127.67692307692309" type="qcurve" smooth="yes"/>
      <point x="656.9230769230769" y="127.67692307692309"/>
      <point x="789.3538461538462" y="258.6153846153846"/>
      <point x="789.3538461538462" y="367.5846153846154" type="qcurve" smooth="yes"/>
      <point x="789.3538461538462" y="472.2769230769231"/>
      <point x="662.5846153846154" y="591.3384615384616"/>
      <point x="481.89230769230767" y="668.5692307692307" type="qcurve" smooth="yes"/>
      <point x="301.1076923076923" y="746.076923076923"/>
      <point x="110.98461538461538" y="934.8000000000001"/>
      <point x="110.98461538461538" y="1102.9692307692308" type="qcurve" smooth="yes"/>
      <point x="110.98461538461538" y="1268.7384615384617"/>
      <point x="330.3076923076923" y="1485.4153846153845"/>
      <point x="524.276923076923" y="1485.4153846153845" type="qcurve" smooth="yes"/>
      <point x="718.2461538461538" y="1485.4153846153845"/>
      <point x="947.0153846153845" y="1249.7230769230769"/>
      <point x="947.0153846153845" y="1079.6615384615384" type="qcurve" smooth="yes"/>
      <point x="947.0153846153845" y="1050.1538461538462" type="line"/>
      <point x="765.6923076923076" y="1050.1538461538462" type="line"/>
      <point x="765.6923076923076" y="1078.9846153846154" type="line" smooth="yes"/>
      <point x="765.6923076923076" y="1191.9692307692308"/>
      <point x="644.1384615384616" y="1328.076923076923"/>
      <point x="524.1846153846154" y="1328.076923076923" type="qcurve" smooth="yes"/>
      <point x="404.26153846153846" y="1328.076923076923"/>
      <point x="290.46153846153845" y="1221.1384615384616"/>
      <point x="290.46153846153845" y="1112.6923076923076" type="qcurve" smooth="yes"/>
      <point x="290.46153846153845" y="1018.4461538461538"/>
      <point x="413.84615384615387" y="896.6769230769231"/>
      <point x="591.4153846153847" y="822.123076923077" type="qcurve" smooth="yes"/>
      <point x="769.2615384615385" y="746.8923076923077"/>
      <point x="968.8307692307693" y="547.3230769230769"/>
      <point x="968.8307692307693" y="368.29230769230765" type="qcurve" smooth="yes"/>
      <point x="968.8307692307693" y="191.84615384615387"/>
      <point x="733.9076923076923" y="-29.384615384615387"/>
      <point x="532.0923076923076" y="-29.384615384615387" type="qcurve" smooth="yes"/>
      <point x="330.2769230769231" y="-29.384615384615387"/>
      <point x="87.53846153846153" y="191.1384615384615"/>
    </contour>
  </outline>
</glyph>
<glyph name="T" format="2">
  <advance width="1000"/>
  <unicode hex="0054"/>
  <outline>
    <contour>
      <point x="23.323076923076925" y="1304.6923076923076" type="line"/>
      <point x="23.323076923076925" y="1456.0" type="line"/>
      <point x="976.8923076923077" y="1456.0" type="line"/>
      <point x="976.8923076923077" y="1304.6923076923076" type="line"/>
      <point x="589.8461538461538" y="1304.6923076923076" type="line"/>
      <point x="589.8461538461538" y="0.0" type="line"/>
      <point x="409.46153846153845" y="0.0" type="line"/>
      <point x="409.46153846153845" y="1304.6923076923076" type="line"/>
    </contour>
  </outline>
</glyph>
<glyph name="U" format="2">
  <advance width="1192"/>
  <unicode hex="0055"/>
  <anchor x="666.8307692307693" y="1432.0" name="top"/>
  <outline>
    <contour>
      <point x="151.52307692307693" y="462.61538461538464" type="qcurve" smooth="yes"/>
      <point x="151.52307692307693" y="1456.0" type="line"/>
      <point x="331.9076923076923" y="1456.0" type="line"/>
      <point x="331.96923076923076" y="461.7846153846154" type="line" smooth="yes"/>
      <point x="331.96923076923076" y="291.7076923076923"/>
      <point x="473.1846153846154" y="127.61538461538463"/>
      <point x="596.0461538461539" y="127.61538461538463" type="qcurve" smooth="yes"/>
      <point x="717.9384615384615" y="127.61538461538463"/>
      <point x="858.3384615384616" y="292.67692307692306"/>
      <point x="858.3384615384616" y="461.7846153846154" type="qcurve" smooth="yes"/>
      <point x="858.2769230769231" y="1456.0" type="line"/>
      <point x="1039.5692307692307" y="1456.0" type="line"/>
      <point x="1039.5692307692307" y="462.61538461538464" type="line" smooth="yes"/>
      <point x="1039.5692307692307" y="216.46153846153845"/>
      <point x="787.1999999999999" y="-29.446153846153848"/>
      <point x="596.0461538461539" y="-29.446153846153848" type="qcurve" smooth="yes"/>
      <point x="404.8615384615385" y="-29.446153846153848"/>
      <point x="151.52307692307693" y="216.46153846153845"/>
    </contour>
  </outline>
</glyph>
<glyph name="V" format="2">
  <advance width="1025"/>
  <unicode hex="0056"/>
  <outline>
    <contour>
      <point x="0.3076923076923077" y="1456.0" type="line"/>
      <point x="187.53846153846155" y="1456.0" type="line"/>
      <point x="483.3692307692308" y="371.8" type="line" smooth="yes"/>
      <point x="492.09230769230766" y="339.75384615384615"/>
      <point x="504.7846153846154" y="277.4769230769231"/>
      <point x="509.63076923076926" y="245.15384615384613" type="qcurve"/>
      <point x="519.3230769230769" y="245.15384615384613" type="line"/>
      <point x="523.2" y="277.4769230769231"/>
      <point x="535.8923076923077" y="339.75384615384615"/>
      <point x="544.6153846153845" y="371.8" type="qcurve" smooth="yes"/>
      <point x="844.4769230769231" y="1456.0" type="line"/>
      <point x="1024.8307692307692" y="1456.0" type="line"/>
      <point x="604.1846153846154" y="-9.96923076923077" type="line"/>
      <point x="421.0769230769231" y="-9.96923076923077" type="line"/>
    </contour>
  </outline>
</glyph>
<glyph name="W" format="2">
  <advance width="1553"/>
  <unicode hex="0057"/>
  <outline>
    <contour>
      <point x="338.92307692307696" y="-9.96923076923077" type="line"/>
      <point x="48.76923076923077" y="1456.0" type="line"/>
      <point x="224.15384615384616" y="1456.0" type="line"/>
      <point x="421.13846153846157" y="374.67692307692306" type="line" smooth="yes"/>
      <point x="427.9230769230769" y="339.6"/>
      <point x="433.0153846153846" y="281.90769230769234"/>
      <point x="435.9230769230769" y="246.86153846153846" type="qcurve"/>
      <point x="440.7692307692307" y="246.86153846153846" type="line"/>
      <point x="442.7076923076923" y="281.9076923076923"/>
      <point x="446.83076923076925" y="339.63076923076926"/>
      <point x="454.58461538461535" y="374.67692307692306" type="qcurve" smooth="yes"/>
      <point x="682.6307692307691" y="1456.0" type="line"/>
      <point x="871.3692307692307" y="1456.0" type="line"/>
      <point x="1106.1384615384616" y="374.67692307692306" type="line" smooth="yes"/>
      <point x="1113.8923076923077" y="339.59999999999997"/>
      <point x="1117.9538461538461" y="281.9384615384615"/>
      <point x="1120.8615384615384" y="246.8923076923077" type="qcurve"/>
      <point x="1124.7384615384615" y="246.8923076923077" type="line"/>
      <point x="1127.6461538461538" y="281.9384615384615"/>
      <point x="1133.7076923076922" y="339.6307692307692"/>
      <point x="1139.5230769230768" y="374.67692307692306" type="qcurve" smooth="yes"/>
      <point x="1329.6615384615386" y="1456.0" type="line"/>
      <point x="1504.107692307692" y="1456.0" type="line"/>
      <point x="1215.2615384615385" y="-9.96923076923077" type="line"/>
      <point x="1032.4923076923078" y="-9.96923076923077" type="line"/>
      <point x="795.6615384615385" y="1082.676923076923" type="line" smooth="yes"/>
      <point x="787.9076923076923" y="1117.6923076923076"/>
      <point x="780.9076923076923" y="1171.0"/>
      <point x="778.0" y="1205.076923076923" type="qcurve"/>
      <point x="774.123076923077" y="1205.076923076923" type="line"/>
      <point x="772.1846153846154" y="1171.0"/>
      <point x="765.1846153846154" y="1117.6923076923076"/>
      <point x="757.4307692307693" y="1082.676923076923" type="qcurve" smooth="yes"/>
      <point x="519.6307692307691" y="-9.96923076923077" type="line"/>
    </contour>
  </outline>
</glyph>
<glyph name="X" format="2">
  <advance width="1018"/>
  <unicode hex="0058"/>
  <outline>
    <contour>
      <point x="24.23076923076923" y="0.0" type="line"/>
      <point x="448.73846153846154" y="806.0307692307692" type="line"/>
      <point x="460.55384615384617" y="806.0307692307692" type="line"/>
      <point x="784.2" y="1456.0" type="line"/>
      <point x="973.0923076923077" y="1456.0" type="line"/>
      <point x="568.5230769230769" y="671.5692307692308" type="line"/>
      <point x="558.6461538461539" y="671.5692307692308" type="line"/>
      <point x="213.12307692307692" y="0.0" type="line"/>
    </contour>
    <contour>
      <point x="45.01538461538461" y="1456.0" type="line"/>
      <point x="237.0" y="1456.0" type="line"/>
      <point x="561.7692307692307" y="806.123076923077" type="line"/>
      <point x="569.5230769230769" y="806.123076923077" type="line"/>
      <point x="993.7538461538462" y="0.0" type="line"/>
      <point x="800.8" y="0.0" type="line"/>
      <point x="456.3384615384615" y="672.0307692307692" type="line"/>
      <point x="448.5846153846154" y="672.0615384615385" type="line"/>
    </contour>
  </outline>
</glyph>
<glyph name="Y" format="2">
  <advance width="1020"/>
  <unicode hex="0059"/>
  <anchor x="601.1846153846154" y="1432.0" name="top"/>
  <outline>
    <contour>
      <point x="419.4615384615385" y="0.0" type="line"/>
      <point x="419.4615384615385" y="546.9538461538461" type="line"/>
      <point x="14.661538461538461" y="1456.0" type="line"/>
      <point x="211.64615384615382" y="1456.0" type="line"/>
      <point x="464.3692307692308" y="868.4769230769231" type="line" smooth="yes"/>
      <point x="477.0" y="839.1538461538461"/>
      <point x="501.3538461538461" y="769.5076923076923"/>
      <point x="511.04615384615386" y="740.0923076923077" type="qcurve"/>
      <point x="514.9230769230769" y="740.0923076923077" type="line"/>
      <point x="524.6153846153846" y="769.5076923076923"/>
      <point x="549.0" y="839.123076923077"/>
      <point x="561.6307692307693" y="868.4461538461538" type="qcurve" smooth="yes"/>
      <point x="817.2923076923076" y="1456.0" type="line"/>
      <point x="1005.3692307692309" y="1456.0" type="line"/>
      <point x="600.876923076923" y="546.9538461538461" type="line"/>
      <point x="600.876923076923" y="0.0" type="line"/>
    </contour>
  </outline>
</glyph>
<glyph name="Z" format="2">
  <advance width="966"/>
  <unicode hex="005A"/>
  <outline>
    <contour>
      <point x="35.07692307692308" y="0.0" type="line"/>
      <point x="35.07692307692308" y="132.81538461538463" type="line"/>
      <point x="689.0769230769231" y="1304.753846153846" type="line"/>
      <point x="47.107692307692304" y="1304.753846153846" type="line"/>
      <point x="47.107692307692304" y="1456.0" type="line"/>
      <point x="899.6923076923077" y="1456.0" type="line"/>
      <point x="899.6923076923077" y="1323.1846153846154" type="line"/>
      <point x="245.3846153846154" y="151.24615384615385" type="line"/>
      <point x="931.0769230769231" y="151.24615384615385" type="line"/>
      <point x="931.0769230769231" y="0.0" type="line"/>
    </contour>
  </outline>
</glyph>
<glyph name="bracketleft" format="2">
  <advance width="630"/>
  <unicode hex="005B"/>
  <outline>
    <contour>
      <point x="140.92307692307693" y="-310.0" type="line"/>
      <point x="140.92307692307693" y="1456.0" type="line"/>
      <point x="542.3076923076924" y="1456.0" type="line"/>
      <point x="542.3076923076924" y="1303.246153846154" type="line"/>
      <point x="315.58461538461535" y="1303.246153846154" type="line"/>
      <point x="315.58461538461535" y="-157.24615384615385" type="line"/>
      <point x="542.3076923076924" y="-157.24615384615385" type="line"/>
      <point x="542.3076923076924" y="-310.0" type="line"/>
    </contour>
  </outline>
</glyph>
<glyph name="backslash" format="2">
  <advance width="470"/>
  <unicode hex="005C"/>
  <outline>
    <contour>
      <point x="-97.63076923076923" y="1456.0" type="line"/>
      <point x="66.12307692307692" y="1456.0" type="line"/>
      <point x="567.9230769230769" y="-122.6" type="line"/>
      <point x="405.1692307692308" y="-122.6" type="line"/>
    </contour>
  </outline>
</glyph>
<glyph name="bracketright" format="2">
  <advance width="630"/>
  <unicode hex="005D"/>
  <outline>
    <contour>
      <point x="489.26153846153846" y="-310.0" type="line"/>
      <point x="87.87692307692308" y="-310.0" type="line"/>
      <point x="87.87692307692308" y="-157.24615384615385" type="line"/>
      <point x="314.59999999999997" y="-157.24615384615385" type="line"/>
      <point x="314.59999999999997" y="1303.246153846154" type="line"/>
      <point x="87.87692307692308" y="1303.246153846154" type="line"/>
      <point x="87.87692307692308" y="1456.0" type="line"/>
      <point x="489.26153846153846" y="1456.0" type="line"/>
    </contour>
  </outline>
</glyph>
<glyph name="asciicircum" format="2">
  <advance width="1000"/>
  <unicode hex="005E"/>
  <outline>
    <contour>
      <point x="24.53846153846154" y="725.4461538461538" type="line"/>
      <point x="419.90769230769234" y="1456.0923076923077" type="line"/>
      <point x="580.0307692307692" y="1456.0923076923077" type="line"/>
      <point x="975.4" y="725.4461538461538" type="line"/>
      <point x="786.6615384615385" y="725.4461538461538" type="line"/>
      <point x="499.95384615384614" y="1275.7230769230769" type="line"/>
      <point x="213.27692307692308" y="725.4461538461538" type="line"/>
    </contour>
  </outline>
</glyph>
<glyph name="underscore" format="2">
  <advance width="793"/>
  <unicode hex="005F"/>
  <outline>
    <contour>
      <point x="0.0" y="-263.5230769230769" type="line"/>
      <point x="0.0" y="-104.46153846153845" type="line"/>
      <point x="793.3846153846154" y="-104.46153846153845" type="line"/>
      <point x="793.3846153846154" y="-263.5230769230769" type="line"/>
    </contour>
  </outline>
</glyph>
<glyph name="grave" format="2">
  <advance width="971"/>
  <unicode hex="0060"/>
  <anchor x="503.2923076923077" y="1047.8153846153846" name="_top"/>
  <outline>
    <contour>
      <point x="533.4307692307692" y="1184.6769230769232" type="line"/>
      <point x="283.53846153846155" y="1471.6153846153845" type="line"/>
      <point x="435.66153846153844" y="1573.6615384615384" type="line"/>
      <point x="641.0461538461539" y="1265.4153846153847" type="line"/>
    </contour>
  </outline>
</glyph>
<glyph name="a" format="2">
  <advance width="952"/>
  <unicode hex="0061"/>
  <anchor x="550.5999999999999" y="1047.753846153846" name="top"/>
  <outline>
    <contour>
      <point x="87.63076923076923" y="306.7692307692308" type="qcurve" smooth="yes"/>
      <point x="87.63076923076923" y="466.8"/>
      <point x="299.44615384615383" y="643.0461538461539"/>
      <point x="464.2153846153846" y="643.0461538461539" type="qcurve" smooth="yes"/>
      <point x="641.7230769230769" y="643.0461538461539" type="line"/>
      <point x="641.7230769230769" y="721.4769230769231" type="line" smooth="yes"/>
      <point x="641.7230769230769" y="816.4461538461538"/>
      <point x="569.5384615384615" y="934.6769230769231"/>
      <point x="480.7846153846154" y="934.6769230769231" type="qcurve" smooth="yes"/>
      <point x="392.0615384615385" y="934.6769230769231"/>
      <point x="315.03076923076924" y="835.9538461538461"/>
      <point x="315.03076923076924" y="770.2461538461539" type="qcurve" smooth="yes"/>
      <point x="315.03076923076924" y="761.4307692307692" type="line"/>
      <point x="140.64615384615385" y="761.4307692307692" type="line"/>
      <point x="140.64615384615385" y="769.8153846153846" type="line" smooth="yes"/>
      <point x="140.64615384615385" y="893.3692307692307"/>
      <point x="326.8615384615385" y="1077.1692307692308"/>
      <point x="484.7230769230769" y="1077.1692307692308" type="qcurve" smooth="yes"/>
      <point x="643.5538461538462" y="1077.1692307692308"/>
      <point x="817.0461538461539" y="898.4307692307692"/>
      <point x="817.0461538461539" y="721.2" type="qcurve" smooth="yes"/>
      <point x="817.0461538461539" y="237.3846153846154" type="line" smooth="yes"/>
      <point x="817.0461538461539" y="172.87692307692308"/>
      <point x="834.7076923076922" y="59.38461538461539"/>
      <point x="850.553846153846" y="16.0" type="qcurve"/>
      <point x="850.553846153846" y="0.0" type="line"/>
      <point x="680.2923076923076" y="0.0" type="line"/>
      <point x="669.446153846154" y="22.6"/>
      <point x="649.7846153846153" y="93.27692307692308"/>
      <point x="645.8461538461539" y="129.63076923076923" type="qcurve"/>
      <point x="617.3076923076923" y="70.49230769230769"/>
      <point x="489.10769230769233" y="-19.56923076923077"/>
      <point x="388.4153846153846" y="-19.56923076923077" type="qcurve" smooth="yes"/>
      <point x="261.66153846153844" y="-19.56923076923077"/>
      <point x="87.63076923076923" y="148.16923076923078"/>
    </contour>
    <contour>
      <point x="263.0153846153846" y="316.1538461538462" type="qcurve" smooth="yes"/>
      <point x="263.0153846153846" y="224.2"/>
      <point x="340.1384615384615" y="122.70769230769231"/>
      <point x="421.3230769230769" y="122.70769230769231" type="qcurve" smooth="yes"/>
      <point x="506.3538461538461" y="122.70769230769231"/>
      <point x="641.7230769230769" y="260.4769230769231"/>
      <point x="641.7230769230769" y="338.21538461538466" type="qcurve"/>
      <point x="641.7230769230769" y="516.1846153846154" type="line"/>
      <point x="480.9384615384615" y="516.1846153846154" type="line" smooth="yes"/>
      <point x="373.3076923076923" y="516.1846153846154"/>
      <point x="263.0153846153846" y="409.0769230769231"/>
    </contour>
  </outline>
</glyph>
<glyph name="b" format="2">
  <advance width="1011"/>
  <unicode hex="0062"/>
  <outline>
    <contour>
      <point x="144.67692307692306" y="0.0" type="line"/>
      <point x="144.67692307692306" y="1533.5384615384614" type="line"/>
      <point x="320.0" y="1533.5384615384614" type="line"/>
      <point x="320.0" y="940.2615384615384" type="line"/>
      <point x="356.95384615384614" y="998.1230769230768"/>
      <point x="481.4" y="1067.4153846153845"/>
      <point x="569.8000000000001" y="1067.4153846153845" type="qcurve" smooth="yes"/>
      <point x="733.2615384615384" y="1067.4153846153845"/>
      <point x="927.8000000000001" y="774.2153846153846"/>
      <point x="927.8000000000001" y="548.5846153846154" type="qcurve" smooth="yes"/>
      <point x="927.8000000000001" y="499.32307692307694" type="line" smooth="yes"/>
      <point x="927.8000000000001" y="274.0307692307692"/>
      <point x="733.3538461538461" y="-19.630769230769232"/>
      <point x="569.8923076923077" y="-19.630769230769232" type="qcurve" smooth="yes"/>
      <point x="481.73846153846154" y="-19.630769230769232"/>
      <point x="348.5076923076923" y="60.61538461538461"/>
      <point x="316.1230769230769" y="119.50769230769231" type="qcurve"/>
      <point x="312.24615384615385" y="119.50769230769231" type="line"/>
      <point x="305.46153846153845" y="0.0" type="line"/>
    </contour>
    <contour>
      <point x="320.0" y="283.04615384615386" type="line"/>
      <point x="344.4153846153846" y="220.33846153846156"/>
      <point x="450.73846153846154" y="126.64615384615385"/>
      <point x="526.9538461538461" y="126.64615384615385" type="qcurve" smooth="yes"/>
      <point x="641.0" y="126.64615384615385"/>
      <point x="748.5692307692308" y="341.0153846153846"/>
      <point x="748.5692307692308" y="499.6" type="qcurve" smooth="yes"/>
      <point x="748.5692307692308" y="547.8461538461539" type="line" smooth="yes"/>
      <point x="748.5692307692308" y="706.8"/>
      <point x="641.1846153846153" y="921.0769230769231"/>
      <point x="527.0769230769231" y="921.0769230769231" type="qcurve" smooth="yes"/>
      <point x="450.92307692307696" y="921.0769230769231"/>
      <point x="344.38461538461536" y="827.2923076923078"/>
      <point x="320.0" y="764.3384615384615" type="qcurve"/>
    </contour>
  </outline>
</glyph>
<glyph name="c" format="2">
  <advance width="881"/>
  <unicode hex="0063"/>
  <anchor x="558.6307692307693" y="0" name="bottom"/>
  <outline>
    <contour>
      <point x="83.49230769230769" y="499.5384615384615" type="qcurve" smooth="yes"/>
      <point x="83.49230769230769" y="548.3076923076923" type="line" smooth="yes"/>
      <point x="83.49230769230769" y="781.5999999999999"/>
      <point x="299.84615384615387" y="1077.1076923076923"/>
      <point x="489.8153846153846" y="1077.1076923076923" type="qcurve" smooth="yes"/>
      <point x="665.0923076923077" y="1077.1076923076923"/>
      <point x="846.4615384615385" y="854.9692307692308"/>
      <point x="846.4615384615385" y="717.4" type="qcurve" smooth="yes"/>
      <point x="846.4615384615385" y="706.4615384615385" type="line"/>
      <point x="676.9538461538461" y="706.4615384615385" type="line"/>
      <point x="676.9538461538461" y="716.8153846153846" type="line" smooth="yes"/>
      <point x="676.9538461538461" y="802.123076923077"/>
      <point x="588.1692307692307" y="930.8307692307692"/>
      <point x="489.75384615384615" y="930.8307692307692" type="qcurve" smooth="yes"/>
      <point x="372.95384615384614" y="930.8307692307692"/>
      <point x="262.75384615384615" y="709.9538461538461"/>
      <point x="262.75384615384615" y="548.3076923076923" type="qcurve" smooth="yes"/>
      <point x="262.75384615384615" y="499.5384615384615" type="line" smooth="yes"/>
      <point x="262.75384615384615" y="337.8"/>
      <point x="372.9230769230769" y="116.95384615384616"/>
      <point x="489.75384615384615" y="116.95384615384616" type="qcurve" smooth="yes"/>
      <point x="588.1999999999999" y="116.95384615384616"/>
      <point x="676.9538461538461" y="245.44615384615383"/>
      <point x="676.9538461538461" y="331.0615384615385" type="qcurve" smooth="yes"/>
      <point x="676.9538461538461" y="341.2923076923077" type="line"/>
      <point x="846.4615384615385" y="341.2923076923077" type="line"/>
      <point x="846.4615384615385" y="330.4769230769231" type="line" smooth="yes"/>
      <point x="846.4615384615385" y="192.72307692307695"/>
      <point x="664.9692307692309" y="-29.353846153846156"/>
      <point x="489.8153846153846" y="-29.353846153846156" type="qcurve" smooth="yes"/>
      <point x="299.96923076923076" y="-29.353846153846156"/>
      <point x="83.49230769230769" y="266.12307692307695"/>
    </contour>
  </outline>
</glyph>
<glyph name="d" format="2">
  <advance width="1011"/>
  <unicode hex="0064"/>
  <outline>
    <contour>
      <point x="83.49230769230769" y="499.3230769230769" type="qcurve" smooth="yes"/>
      <point x="83.49230769230769" y="548.5846153846154" type="line" smooth="yes"/>
      <point x="83.49230769230769" y="774.2153846153847"/>
      <point x="278.0615384615384" y="1067.4153846153845"/>
      <point x="441.4923076923077" y="1067.4153846153845" type="qcurve" smooth="yes"/>
      <point x="529.8923076923078" y="1067.4153846153845"/>
      <point x="654.3384615384615" y="998.123076923077"/>
      <point x="691.2923076923078" y="940.2615384615384" type="qcurve"/>
      <point x="691.2923076923078" y="1533.5384615384614" type="line"/>
      <point x="866.6153846153845" y="1533.5384615384614" type="line"/>
      <point x="866.6153846153845" y="0.0" type="line"/>
      <point x="705.8307692307692" y="0.0" type="line"/>
      <point x="699.0461538461539" y="119.50769230769231" type="line"/>
      <point x="695.1692307692308" y="119.50769230769231" type="line"/>
      <point x="662.7846153846154" y="60.61538461538461"/>
      <point x="529.5538461538462" y="-19.630769230769232"/>
      <point x="441.4" y="-19.630769230769232" type="qcurve" smooth="yes"/>
      <point x="277.96923076923076" y="-19.630769230769232"/>
      <point x="83.49230769230769" y="274.03076923076924"/>
    </contour>
    <contour>
      <point x="262.723076923077" y="499.59999999999997" type="line" smooth="yes"/>
      <point x="262.723076923077" y="341.0153846153846"/>
      <point x="370.2923076923077" y="126.64615384615385"/>
      <point x="484.3384615384615" y="126.64615384615385" type="qcurve" smooth="yes"/>
      <point x="560.5846153846153" y="126.64615384615385"/>
      <point x="666.9076923076924" y="221.30769230769232"/>
      <point x="691.2923076923078" y="283.04615384615386" type="qcurve"/>
      <point x="691.2923076923078" y="764.3384615384615" type="line"/>
      <point x="666.9076923076924" y="826.3230769230769"/>
      <point x="560.3692307692307" y="921.0769230769231"/>
      <point x="484.24615384615385" y="921.0769230769231" type="qcurve" smooth="yes"/>
      <point x="370.10769230769233" y="921.0769230769231"/>
      <point x="262.723076923077" y="706.8"/>
      <point x="262.723076923077" y="547.8461538461538" type="qcurve" smooth="yes"/>
    </contour>
  </outline>
</glyph>
<glyph name="e" format="2">
  <advance width="910"/>
  <unicode hex="0065"/>
  <anchor x="546.5846153846154" y="1048.7230769230769" name="top"/>
  <outline>
    <contour>
      <point x="83.49230769230769" y="499.44615384615383" type="qcurve" smooth="yes"/>
      <point x="83.49230769230769" y="548.1846153846153" type="line" smooth="yes"/>
      <point x="83.49230769230769" y="781.3846153846154"/>
      <point x="302.24615384615385" y="1077.1076923076923"/>
      <point x="481.33846153846156" y="1077.1076923076923" type="qcurve" smooth="yes"/>
      <point x="660.7692307692307" y="1077.1076923076923"/>
      <point x="855.0153846153846" y="801.1076923076923"/>
      <point x="855.0153846153846" y="565.6307692307691" type="qcurve" smooth="yes"/>
      <point x="855.0153846153846" y="485.26153846153846" type="line"/>
      <point x="180.55384615384617" y="485.26153846153846" type="line"/>
      <point x="180.55384615384617" y="627.4153846153846" type="line"/>
      <point x="677.6615384615385" y="627.4153846153846" type="line"/>
      <point x="677.6615384615385" y="633.2923076923076" type="line"/>
      <point x="677.6615384615385" y="761.0153846153846"/>
      <point x="588.5692307692308" y="930.8307692307692"/>
      <point x="481.40000000000003" y="930.8307692307692" type="qcurve" smooth="yes"/>
      <point x="373.29230769230765" y="930.8307692307692"/>
      <point x="259.81538461538463" y="709.7384615384615"/>
      <point x="259.81538461538463" y="548.0307692307692" type="qcurve" smooth="yes"/>
      <point x="259.81538461538463" y="499.5692307692307" type="line" smooth="yes"/>
      <point x="259.81538461538463" y="338.0769230769231"/>
      <point x="380.86153846153843" y="116.86153846153847"/>
      <point x="506.6307692307692" y="116.86153846153847" type="qcurve" smooth="yes"/>
      <point x="583.9076923076923" y="116.86153846153847"/>
      <point x="693.2923076923078" y="203.84615384615384"/>
      <point x="730.0307692307692" y="264.5692307692307" type="qcurve"/>
      <point x="848.1692307692308" y="174.06153846153848" type="line"/>
      <point x="806.6769230769231" y="98.55384615384615"/>
      <point x="631.6307692307691" y="-29.353846153846156"/>
      <point x="506.6923076923077" y="-29.353846153846156" type="qcurve" smooth="yes"/>
      <point x="302.18461538461537" y="-29.353846153846156"/>
      <point x="83.49230769230769" y="266.0615384615385"/>
    </contour>
  </outline>
</glyph>
<glyph name="f" format="2">
  <advance width="506"/>
  <unicode hex="0066"/>
  <outline>
    <contour>
      <point x="158.58461538461538" y="0.0" type="line"/>
      <point x="158.58461538461538" y="1201.9384615384615" type="line" smooth="yes"/>
      <point x="158.58461538461538" y="1374.153846153846"/>
      <point x="323.9384615384615" y="1553.6"/>
      <point x="467.2923076923077" y="1553.6" type="qcurve" smooth="yes"/>
      <point x="493.2307692307693" y="1553.6"/>
      <point x="550.4923076923077" y="1545.476923076923"/>
      <point x="574.9692307692308" y="1537.5384615384614" type="qcurve"/>
      <point x="565.4153846153846" y="1393.3538461538462" type="line"/>
      <point x="547.7846153846153" y="1398.323076923077"/>
      <point x="504.67692307692306" y="1404.323076923077"/>
      <point x="482.0769230769231" y="1404.323076923077" type="qcurve" smooth="yes"/>
      <point x="411.61538461538464" y="1404.323076923077"/>
      <point x="333.9384615384616" y="1302.8307692307692"/>
      <point x="333.9384615384616" y="1201.4461538461537" type="qcurve" smooth="yes"/>
      <point x="333.9384615384616" y="990.5846153846154" type="line"/>
      <point x="333.9384615384616" y="968.9230769230769" type="line"/>
      <point x="333.9384615384616" y="0.0" type="line"/>
    </contour>
    <contour>
      <point x="24.384615384615383" y="911.1076923076923" type="line"/>
      <point x="24.384615384615383" y="1047.753846153846" type="line"/>
      <point x="227.44615384615383" y="1047.753846153846" type="line"/>
      <point x="264.83076923076925" y="1047.753846153846" type="line"/>
      <point x="516.5230769230769" y="1047.753846153846" type="line"/>
      <point x="516.5230769230769" y="911.1076923076923" type="line"/>
    </contour>
  </outline>
</glyph>
<glyph name="g" format="2">
  <advance width="1011"/>
  <unicode hex="0067"/>
  <outline>
    <contour>
      <point x="115.55384615384615" y="-288.73846153846154" type="qcurve"/>
      <point x="220.15384615384616" y="-154.27692307692308" type="line"/>
      <point x="256.53846153846155" y="-203.0769230769231"/>
      <point x="384.92307692307696" y="-280.38461538461536"/>
      <point x="466.3538461538462" y="-280.38461538461536" type="qcurve" smooth="yes"/>
      <point x="570.4769230769231" y="-280.38461538461536"/>
      <point x="691.2923076923078" y="-125.01538461538462"/>
      <point x="691.2923076923078" y="16.276923076923076" type="qcurve" smooth="yes"/>
      <point x="691.2923076923078" y="106.9076923076923" type="line"/>
      <point x="654.0615384615385" y="48.98461538461538"/>
      <point x="529.5538461538462" y="-19.630769230769232"/>
      <point x="441.4" y="-19.630769230769232" type="qcurve" smooth="yes"/>
      <point x="277.9384615384616" y="-19.630769230769232"/>
      <point x="83.49230769230769" y="274.03076923076924"/>
      <point x="83.49230769230769" y="499.3230769230769" type="qcurve" smooth="yes"/>
      <point x="83.49230769230769" y="548.5846153846154" type="line" smooth="yes"/>
      <point x="83.49230769230769" y="774.2153846153847"/>
      <point x="278.03076923076924" y="1067.4153846153845"/>
      <point x="441.4923076923077" y="1067.4153846153845" type="qcurve" smooth="yes"/>
      <point x="529.8923076923077" y="1067.4153846153845"/>
      <point x="663.0615384615385" y="986.4923076923077"/>
      <point x="695.1692307692308" y="927.6615384615385" type="qcurve"/>
      <point x="699.0461538461539" y="927.6615384615385" type="line"/>
      <point x="705.8307692307692" y="1047.753846153846" type="line"/>
      <point x="866.6153846153845" y="1047.753846153846" type="line"/>
      <point x="866.6153846153845" y="15.476923076923075" type="line" smooth="yes"/>
      <point x="866.6153846153845" y="-202.2153846153846"/>
      <point x="647.4307692307692" y="-435.3846153846154"/>
      <point x="471.16923076923075" y="-435.3846153846154" type="qcurve" smooth="yes"/>
      <point x="361.16923076923075" y="-435.3846153846154"/>
      <point x="179.04615384615386" y="-353.13846153846157"/>
    </contour>
    <contour>
      <point x="262.723076923077" y="499.59999999999997" type="line" smooth="yes"/>
      <point x="262.723076923077" y="341.0153846153846"/>
      <point x="370.32307692307694" y="126.64615384615385"/>
      <point x="484.3384615384615" y="126.64615384615385" type="qcurve" smooth="yes"/>
      <point x="560.6461538461538" y="126.64615384615385"/>
      <point x="666.9076923076924" y="221.30769230769232"/>
      <point x="691.2923076923078" y="283.04615384615386" type="qcurve"/>
      <point x="691.2923076923078" y="764.3384615384615" type="line"/>
      <point x="666.9076923076924" y="826.323076923077"/>
      <point x="560.3384615384615" y="921.0769230769231"/>
      <point x="484.2153846153846" y="921.0769230769231" type="qcurve" smooth="yes"/>
      <point x="370.16923076923075" y="921.0769230769231"/>
      <point x="262.723076923077" y="706.8"/>
      <point x="262.723076923077" y="547.8461538461538" type="qcurve" smooth="yes"/>
    </contour>
  </outline>
</glyph>
<glyph name="h" format="2">
  <advance width="991"/>
  <unicode hex="0068"/>
  <outline>
    <contour>
      <point x="144.67692307692306" y="0.0" type="line"/>
      <point x="144.67692307692306" y="1533.5384615384614" type="line"/>
      <point x="320.0" y="1533.5384615384614" type="line"/>
      <point x="320.0" y="931.8461538461538" type="line"/>
      <point x="363.07692307692304" y="995.8000000000001"/>
      <point x="494.55384615384617" y="1067.4461538461537"/>
      <point x="574.9846153846154" y="1067.4461538461537" type="qcurve" smooth="yes"/>
      <point x="704.2461538461538" y="1067.4461538461537"/>
      <point x="856.0461538461539" y="898.7076923076924"/>
      <point x="856.0461538461539" y="700.6461538461538" type="qcurve" smooth="yes"/>
      <point x="856.0461538461539" y="0.0" type="line"/>
      <point x="680.723076923077" y="0.0" type="line"/>
      <point x="680.723076923077" y="701.5384615384615" type="line" smooth="yes"/>
      <point x="680.723076923077" y="817.6"/>
      <point x="597.5384615384615" y="918.2923076923078"/>
      <point x="519.3846153846154" y="918.2923076923078" type="qcurve" smooth="yes"/>
      <point x="451.8615384615385" y="918.2923076923078"/>
      <point x="349.2307692307692" y="832.2615384615384"/>
      <point x="320.0" y="764.6461538461539" type="qcurve"/>
      <point x="320.0" y="0.0" type="line"/>
    </contour>
  </outline>
</glyph>
<glyph name="i" format="2">
  <advance width="483"/>
  <unicode hex="0069"/>
  <outline>
    <contour>
      <point x="153.64615384615385" y="0.0" type="line"/>
      <point x="153.64615384615385" y="1047.753846153846" type="line"/>
      <point x="329.0" y="1047.753846153846" type="line"/>
      <point x="329.0" y="0.0" type="line"/>
    </contour>
    <contour>
      <point x="136.5846153846154" y="1368.0" type="qcurve" smooth="yes"/>
      <point x="136.5846153846154" y="1411.569230769231"/>
      <point x="190.87692307692308" y="1470.9538461538461"/>
      <point x="241.35384615384615" y="1470.9538461538461" type="qcurve" smooth="yes"/>
      <point x="291.8307692307692" y="1470.9538461538461"/>
      <point x="346.0923076923077" y="1411.6000000000001"/>
      <point x="346.0923076923077" y="1368.0" type="qcurve" smooth="yes"/>
      <point x="346.0923076923077" y="1324.4307692307693"/>
      <point x="291.79999999999995" y="1265.0153846153846"/>
      <point x="241.3230769230769" y="1265.0153846153846" type="qcurve" smooth="yes"/>
      <point x="190.84615384615384" y="1265.0153846153846"/>
      <point x="136.5846153846154" y="1324.4307692307693"/>
    </contour>
  </outline>
</glyph>
<glyph name="j" format="2">
  <advance width="483"/>
  <unicode hex="006A"/>
  <outline>
    <contour>
      <point x="-51.07692307692307" y="-409.66153846153844" type="qcurve"/>
      <point x="-50.49230769230769" y="-266.5076923076923" type="line"/>
      <point x="-32.800000000000004" y="-272.4153846153846"/>
      <point x="29.03076923076923" y="-286.16923076923075"/>
      <point x="53.84615384615385" y="-286.16923076923075" type="qcurve" smooth="yes"/>
      <point x="101.04615384615386" y="-286.16923076923075"/>
      <point x="153.55384615384617" y="-215.21538461538464"/>
      <point x="153.55384615384617" y="-132.46153846153845" type="qcurve" smooth="yes"/>
      <point x="153.55384615384617" y="1047.753846153846" type="line"/>
      <point x="328.9076923076923" y="1047.753846153846" type="line"/>
      <point x="328.9076923076923" y="-93.16923076923077" type="line" smooth="yes"/>
      <point x="328.9076923076923" y="-271.2307692307692"/>
      <point x="205.53846153846155" y="-435.4153846153846"/>
      <point x="87.26153846153846" y="-435.4153846153846" type="qcurve" smooth="yes"/>
      <point x="53.323076923076925" y="-435.4153846153846"/>
      <point x="-29.384615384615383" y="-418.5692307692308"/>
    </contour>
    <contour>
      <point x="136.46153846153845" y="1368.0" type="qcurve" smooth="yes"/>
      <point x="136.46153846153845" y="1411.569230769231"/>
      <point x="190.78461538461536" y="1470.9538461538461"/>
      <point x="241.23076923076923" y="1470.9538461538461" type="qcurve" smooth="yes"/>
      <point x="291.70769230769235" y="1470.9538461538461"/>
      <point x="346.0" y="1411.6000000000001"/>
      <point x="346.0" y="1368.0" type="qcurve" smooth="yes"/>
      <point x="346.0" y="1324.4307692307693"/>
      <point x="291.6769230769231" y="1264.9846153846154"/>
      <point x="241.2" y="1264.9846153846154" type="qcurve" smooth="yes"/>
      <point x="190.75384615384615" y="1264.9846153846154"/>
      <point x="136.46153846153845" y="1324.4307692307693"/>
    </contour>
  </outline>
</glyph>
<glyph name="k" format="2">
  <advance width="880"/>
  <unicode hex="006B"/>
  <outline>
    <contour>
      <point x="144.67692307692306" y="0.0" type="line"/>
      <point x="144.67692307692306" y="1533.5384615384614" type="line"/>
      <point x="320.0307692307692" y="1533.5384615384614" type="line"/>
      <point x="320.0307692307692" y="612.2461538461539" type="line"/>
      <point x="658.0615384615385" y="1047.753846153846" type="line"/>
      <point x="856.7692307692308" y="1047.753846153846" type="line"/>
      <point x="320.0307692307692" y="379.6307692307692" type="line"/>
      <point x="320.0307692307692" y="0.0" type="line"/>
    </contour>
    <contour>
      <point x="696.3230769230769" y="0.0" type="line"/>
      <point x="371.7692307692308" y="524.2769230769231" type="line"/>
      <point x="475.16923076923075" y="676.5076923076923" type="line"/>
      <point x="895.9692307692308" y="0.0" type="line"/>
    </contour>
  </outline>
</glyph>
<glyph name="l" format="2">
  <advance width="480"/>
  <unicode hex="006C"/>
  <outline>
    <contour>
      <point x="152.4923076923077" y="0.0" type="line"/>
      <point x="152.4923076923077" y="1533.5384615384614" type="line"/>
      <point x="327.8153846153846" y="1533.5384615384614" type="line"/>
      <point x="327.8153846153846" y="0.0" type="line"/>
    </contour>
  </outline>
</glyph>
<glyph name="m" format="2">
  <advance width="1488"/>
  <unicode hex="006D"/>
  <outline>
    <contour>
      <point x="144.67692307692306" y="0.0" type="line"/>
      <point x="144.67692307692306" y="1047.753846153846" type="line"/>
      <point x="305.33846153846156" y="1047.753846153846" type="line"/>
      <point x="312.12307692307695" y="929.9076923076924" type="line"/>
      <point x="316.0307692307692" y="929.9076923076924" type="line"/>
      <point x="361.10769230769233" y="994.8"/>
      <point x="487.7692307692308" y="1067.4461538461537"/>
      <point x="565.2923076923076" y="1067.4461538461537" type="qcurve" smooth="yes"/>
      <point x="652.4461538461538" y="1067.4461538461537"/>
      <point x="774.8923076923078" y="985.1384615384615"/>
      <point x="806.276923076923" y="898.8615384615385" type="qcurve"/>
      <point x="810.1846153846154" y="898.8615384615385" type="line"/>
      <point x="855.3230769230769" y="979.2923076923078"/>
      <point x="988.8" y="1067.4461538461537"/>
      <point x="1076.9846153846154" y="1067.4461538461537" type="qcurve" smooth="yes"/>
      <point x="1206.3692307692309" y="1067.4461538461537"/>
      <point x="1353.323076923077" y="898.7076923076924"/>
      <point x="1353.323076923077" y="700.6461538461538" type="qcurve" smooth="yes"/>
      <point x="1353.323076923077" y="0.0" type="line"/>
      <point x="1178.0" y="0.0" type="line"/>
      <point x="1178.0" y="701.5384615384614" type="line" smooth="yes"/>
      <point x="1177.0307692307692" y="817.5999999999999"/>
      <point x="1099.6615384615384" y="918.2923076923078"/>
      <point x="1027.3230769230768" y="918.2923076923078" type="qcurve" smooth="yes"/>
      <point x="961.7384615384616" y="918.2923076923078"/>
      <point x="866.8615384615384" y="832.2615384615384"/>
      <point x="836.6615384615384" y="764.6461538461539" type="qcurve"/>
      <point x="836.6615384615384" y="0.0" type="line"/>
      <point x="661.3384615384616" y="0.0" type="line"/>
      <point x="661.3384615384616" y="701.5384615384614" type="line" smooth="yes"/>
      <point x="660.3692307692309" y="817.6"/>
      <point x="582.0307692307692" y="918.2923076923078"/>
      <point x="509.6923076923077" y="918.2923076923078" type="qcurve" smooth="yes"/>
      <point x="445.0769230769231" y="918.2923076923078"/>
      <point x="349.2307692307692" y="832.2615384615384"/>
      <point x="320.0" y="764.6461538461539" type="qcurve"/>
      <point x="320.0" y="0.0" type="line"/>
    </contour>
  </outline>
</glyph>
<glyph name="n" format="2">
  <advance width="991"/>
  <unicode hex="006E"/>
  <anchor x="584.2923076923076" y="1047.753846153846" name="top"/>
  <outline>
    <contour>
      <point x="144.67692307692306" y="0.0" type="line"/>
      <point x="144.67692307692306" y="1047.753846153846" type="line"/>
      <point x="305.33846153846156" y="1047.753846153846" type="line"/>
      <point x="312.12307692307695" y="929.9076923076923" type="line"/>
      <point x="316.0307692307692" y="929.9076923076923" type="line"/>
      <point x="361.10769230769233" y="994.8"/>
      <point x="494.55384615384617" y="1067.4461538461537"/>
      <point x="574.9846153846154" y="1067.4461538461537" type="qcurve" smooth="yes"/>
      <point x="704.2461538461538" y="1067.4461538461537"/>
      <point x="856.0461538461539" y="898.7076923076924"/>
      <point x="856.0461538461539" y="700.6461538461538" type="qcurve" smooth="yes"/>
      <point x="856.0461538461539" y="0.0" type="line"/>
      <point x="680.7230769230769" y="0.0" type="line"/>
      <point x="680.7230769230769" y="701.5384615384615" type="line" smooth="yes"/>
      <point x="680.7230769230769" y="818.5692307692308"/>
      <point x="596.5692307692308" y="918.2923076923078"/>
      <point x="519.3846153846154" y="918.2923076923078" type="qcurve" smooth="yes"/>
      <point x="451.8615384615385" y="918.2923076923078"/>
      <point x="349.2307692307692" y="832.2615384615384"/>
      <point x="320.0" y="764.6461538461539" type="qcurve"/>
      <point x="320.0" y="0.0" type="line"/>
    </contour>
  </outline>
</glyph>
<glyph name="o" format="2">
  <advance width="996"/>
  <unicode hex="006F"/>
  <anchor x="568.6307692307691" y="1047.753846153846" name="top"/>
  <outline>
    <contour>
      <point x="83.49230769230769" y="499.38461538461536" type="qcurve" smooth="yes"/>
      <point x="83.49230769230769" y="548.3076923076923" type="line" smooth="yes"/>
      <point x="83.49230769230769" y="781.6"/>
      <point x="308.66153846153844" y="1077.1076923076923"/>
      <point x="497.7230769230769" y="1077.1076923076923" type="qcurve" smooth="yes"/>
      <point x="686.8153846153847" y="1077.1076923076923"/>
      <point x="912.9846153846154" y="781.6"/>
      <point x="912.9846153846154" y="548.3076923076923" type="qcurve" smooth="yes"/>
      <point x="912.9846153846154" y="499.38461538461536" type="line" smooth="yes"/>
      <point x="912.9846153846154" y="266.12307692307695"/>
      <point x="686.8153846153847" y="-29.353846153846156"/>
      <point x="497.7230769230769" y="-29.353846153846156" type="qcurve" smooth="yes"/>
      <point x="308.66153846153844" y="-29.353846153846156"/>
      <point x="83.49230769230769" y="266.12307692307695"/>
    </contour>
    <contour>
      <point x="262.75384615384615" y="548.123076923077" type="qcurve" smooth="yes"/>
      <point x="262.75384615384615" y="499.4153846153846" type="line" smooth="yes"/>
      <point x="262.75384615384615" y="337.67692307692306"/>
      <point x="380.8" y="116.86153846153847"/>
      <point x="497.75384615384615" y="116.86153846153847" type="qcurve" smooth="yes"/>
      <point x="614.7076923076924" y="116.86153846153847"/>
      <point x="733.723076923077" y="337.67692307692306"/>
      <point x="733.723076923077" y="499.4153846153846" type="qcurve" smooth="yes"/>
      <point x="733.723076923077" y="548.123076923077" type="line" smooth="yes"/>
      <point x="733.723076923077" y="709.9538461538461"/>
      <point x="614.7692307692308" y="930.8307692307693"/>
      <point x="497.75384615384615" y="930.8307692307693" type="qcurve" smooth="yes"/>
      <point x="381.70769230769235" y="930.8307692307693"/>
      <point x="262.75384615384615" y="709.9538461538461"/>
    </contour>
  </outline>
</glyph>
<glyph name="p" format="2">
  <advance width="1011"/>
  <unicode hex="0070"/>
  <outline>
    <contour>
      <point x="144.7076923076923" y="-416.0" type="line"/>
      <point x="144.7076923076923" y="1047.753846153846" type="line"/>
      <point x="305.3692307692308" y="1047.753846153846" type="line"/>
      <point x="312.1538461538462" y="927.6615384615384" type="line"/>
      <point x="316.0615384615384" y="927.6615384615384" type="line"/>
      <point x="348.2307692307692" y="986.5846153846154"/>
      <point x="481.4307692307692" y="1067.4153846153845"/>
      <point x="569.8307692307693" y="1067.4153846153845" type="qcurve" smooth="yes"/>
      <point x="733.2923076923076" y="1067.4153846153845"/>
      <point x="927.8307692307693" y="774.2153846153846"/>
      <point x="927.8307692307693" y="548.5846153846154" type="qcurve" smooth="yes"/>
      <point x="927.8307692307693" y="499.32307692307694" type="line" smooth="yes"/>
      <point x="927.8307692307693" y="274.03076923076924"/>
      <point x="733.3538461538461" y="-19.630769230769232"/>
      <point x="569.9230769230769" y="-19.630769230769232" type="qcurve" smooth="yes"/>
      <point x="481.7692307692308" y="-19.630769230769232"/>
      <point x="357.26153846153846" y="48.98461538461539"/>
      <point x="320.0307692307692" y="106.90769230769232" type="qcurve"/>
      <point x="320.0307692307692" y="-416.0" type="line"/>
    </contour>
    <contour>
      <point x="320.0307692307692" y="283.04615384615386" type="line"/>
      <point x="344.4153846153846" y="221.30769230769232"/>
      <point x="450.73846153846154" y="126.64615384615385"/>
      <point x="526.9846153846154" y="126.64615384615385" type="qcurve" smooth="yes"/>
      <point x="641.0307692307692" y="126.64615384615385"/>
      <point x="748.6" y="341.0153846153846"/>
      <point x="748.6" y="499.6" type="qcurve" smooth="yes"/>
      <point x="748.6" y="547.8461538461538" type="line" smooth="yes"/>
      <point x="748.6" y="706.8"/>
      <point x="641.2153846153846" y="921.0769230769231"/>
      <point x="527.0769230769231" y="921.0769230769231" type="qcurve" smooth="yes"/>
      <point x="450.95384615384614" y="921.0769230769231"/>
      <point x="344.4153846153846" y="826.323076923077"/>
      <point x="320.0307692307692" y="764.3384615384615" type="qcurve"/>
    </contour>
  </outline>
</glyph>
<glyph name="q" format="2">
  <advance width="1011"/>
  <unicode hex="0071"/>
  <outline>
    <contour>
      <point x="83.49230769230769" y="499.3230769230769" type="qcurve" smooth="yes"/>
      <point x="83.49230769230769" y="548.5846153846154" type="line" smooth="yes"/>
      <point x="83.49230769230769" y="774.2153846153847"/>
      <point x="278.0615384615384" y="1067.4153846153845"/>
      <point x="441.4923076923077" y="1067.4153846153845" type="qcurve" smooth="yes"/>
      <point x="529.8923076923077" y="1067.4153846153845"/>
      <point x="663.0615384615385" y="986.4923076923077"/>
      <point x="695.1692307692308" y="927.6615384615385" type="qcurve"/>
      <point x="699.0461538461539" y="927.6615384615385" type="line"/>
      <point x="705.8307692307692" y="1047.753846153846" type="line"/>
      <point x="866.6153846153845" y="1047.753846153846" type="line"/>
      <point x="866.6153846153845" y="-416.0" type="line"/>
      <point x="691.2923076923078" y="-416.0" type="line"/>
      <point x="691.2923076923078" y="106.90769230769232" type="line"/>
      <point x="691.2923076923078" y="106.90769230769232" type="line"/>
      <point x="654.0615384615385" y="48.98461538461538"/>
      <point x="529.5538461538462" y="-19.630769230769232"/>
      <point x="441.4" y="-19.630769230769232" type="qcurve" smooth="yes"/>
      <point x="277.9692307692308" y="-19.630769230769232"/>
      <point x="83.49230769230769" y="274.03076923076924"/>
    </contour>
    <contour>
      <point x="262.723076923077" y="499.59999999999997" type="line" smooth="yes"/>
      <point x="262.723076923077" y="341.0153846153846"/>
      <point x="370.2923076923077" y="126.64615384615385"/>
      <point x="484.3384615384615" y="126.64615384615385" type="qcurve" smooth="yes"/>
      <point x="560.553846153846" y="126.64615384615385"/>
      <point x="666.8769230769232" y="221.30769230769232"/>
      <point x="691.2923076923078" y="283.04615384615386" type="qcurve"/>
      <point x="691.2923076923078" y="764.3384615384615" type="line"/>
      <point x="666.9076923076924" y="826.3230769230769"/>
      <point x="560.3692307692307" y="921.0769230769231"/>
      <point x="484.2153846153846" y="921.0769230769231" type="qcurve" smooth="yes"/>
      <point x="370.10769230769233" y="921.0769230769231"/>
      <point x="262.723076923077" y="706.8"/>
      <point x="262.723076923077" y="547.8461538461538" type="qcurve" smooth="yes"/>
    </contour>
  </outline>
</glyph>
<glyph name="r" format="2">
  <advance width="613"/>
  <unicode hex="0072"/>
  <outline>
    <contour>
      <point x="144.67692307692306" y="0.0" type="line"/>
      <point x="144.67692307692306" y="1047.753846153846" type="line"/>
      <point x="305.3076923076923" y="1047.753846153846" type="line"/>
      <point x="312.0923076923077" y="934.4461538461538" type="line"/>
      <point x="316.0" y="934.4461538461538" type="line"/>
      <point x="347.3538461538461" y="992.8"/>
      <point x="446.53846153846155" y="1077.1384615384616"/>
      <point x="514.3384615384615" y="1077.1384615384616" type="qcurve" smooth="yes"/>
      <point x="534.1846153846153" y="1077.1384615384616"/>
      <point x="574.876923076923" y="1067.2923076923075"/>
      <point x="583.8461538461538" y="1063.2923076923075" type="qcurve"/>
      <point x="583.7846153846153" y="899.4769230769231" type="line"/>
      <point x="566.0307692307692" y="903.4461538461538"/>
      <point x="528.5230769230769" y="907.4461538461538"/>
      <point x="506.6461538461538" y="907.4461538461538" type="qcurve" smooth="yes"/>
      <point x="438.96923076923076" y="907.4461538461538"/>
      <point x="343.66153846153844" y="825.6153846153845"/>
      <point x="320.0" y="763.0461538461539" type="qcurve"/>
      <point x="320.0" y="0.0" type="line"/>
    </contour>
  </outline>
</glyph>
<glyph name="s" format="2">
  <advance width="866"/>
  <unicode hex="0073"/>
  <outline>
    <contour>
      <point x="78.09230769230768" y="309.2923076923077" type="line"/>
      <point x="253.38461538461536" y="309.2923076923077" type="line"/>
      <point x="253.38461538461536" y="301.18461538461537" type="line" smooth="yes"/>
      <point x="253.38461538461536" y="208.98461538461538"/>
      <point x="354.89230769230767" y="112.98461538461538"/>
      <point x="436.7692307692308" y="112.98461538461538" type="qcurve" smooth="yes"/>
      <point x="518.676923076923" y="112.98461538461538"/>
      <point x="612.4" y="204.92307692307693"/>
      <point x="612.4" y="277.4" type="qcurve" smooth="yes"/>
      <point x="612.4" y="349.6769230769231"/>
      <point x="531.7230769230769" y="427.73846153846154"/>
      <point x="394.95384615384614" y="471.0153846153846" type="qcurve" smooth="yes"/>
      <point x="258.03076923076924" y="514.5076923076923"/>
      <point x="103.41538461538462" y="655.276923076923"/>
      <point x="103.41538461538462" y="778.6923076923076" type="qcurve" smooth="yes"/>
      <point x="103.41538461538462" y="908.5384615384615"/>
      <point x="286.84615384615387" y="1077.1076923076923"/>
      <point x="436.7692307692308" y="1077.1076923076923" type="qcurve" smooth="yes"/>
      <point x="586.9076923076923" y="1077.1076923076923"/>
      <point x="770.1846153846154" y="898.3076923076923"/>
      <point x="770.1846153846154" y="760.123076923077" type="qcurve" smooth="yes"/>
      <point x="770.1846153846154" y="751.5230769230769" type="line"/>
      <point x="595.8615384615384" y="751.5230769230769" type="line"/>
      <point x="595.8615384615384" y="759.6307692307691" type="line" smooth="yes"/>
      <point x="595.8923076923077" y="840.8"/>
      <point x="517.7384615384615" y="934.7076923076922"/>
      <point x="436.8" y="934.7076923076922" type="qcurve" smooth="yes"/>
      <point x="356.83076923076925" y="934.7076923076922"/>
      <point x="277.8615384615385" y="850.4615384615385"/>
      <point x="277.8615384615385" y="788.3846153846154" type="qcurve" smooth="yes"/>
      <point x="277.8615384615385" y="727.1076923076923"/>
      <point x="364.73846153846154" y="653.2307692307692"/>
      <point x="501.5692307692308" y="609.9846153846154" type="qcurve" smooth="yes"/>
      <point x="638.4615384615386" y="566.6769230769231"/>
      <point x="787.7538461538461" y="421.75384615384615"/>
      <point x="787.7538461538461" y="287.4" type="qcurve" smooth="yes"/>
      <point x="787.7538461538461" y="147.12307692307692"/>
      <point x="612.1692307692308" y="-29.384615384615387"/>
      <point x="436.7692307692307" y="-29.384615384615387" type="qcurve" smooth="yes"/>
      <point x="261.36923076923074" y="-29.384615384615387"/>
      <point x="78.09230769230768" y="150.63076923076923"/>
      <point x="78.09230769230768" y="300.66153846153844" type="qcurve" smooth="yes"/>
    </contour>
  </outline>
</glyph>
<glyph name="t" format="2">
  <advance width="559"/>
  <unicode hex="0074"/>
  <outline>
    <contour>
      <point x="-0.18461538461538463" y="911.2923076923078" type="line"/>
      <point x="-0.18461538461538463" y="1047.753846153846" type="line"/>
      <point x="509.95384615384614" y="1047.753846153846" type="line"/>
      <point x="509.95384615384614" y="911.2923076923078" type="line"/>
    </contour>
    <contour>
      <point x="150.7076923076923" y="256.4307692307692" type="qcurve" smooth="yes"/>
      <point x="150.7076923076923" y="965.0461538461539" type="line"/>
      <point x="150.7076923076923" y="994.4615384615385" type="line"/>
      <point x="150.7076923076923" y="1306.7692307692307" type="line"/>
      <point x="326.0615384615384" y="1306.7692307692307" type="line"/>
      <point x="326.0615384615384" y="257.10769230769233" type="line" smooth="yes"/>
      <point x="326.0615384615384" y="184.7846153846154"/>
      <point x="369.6615384615385" y="123.64615384615385"/>
      <point x="417.86153846153843" y="123.64615384615385" type="qcurve" smooth="yes"/>
      <point x="440.5846153846154" y="123.64615384615385"/>
      <point x="483.7846153846154" y="136.4"/>
      <point x="505.32307692307694" y="145.24615384615385" type="qcurve"/>
      <point x="505.38461538461536" y="0.03076923076923077" type="line"/>
      <point x="483.7230769230769" y="-11.784615384615385"/>
      <point x="413.9230769230769" y="-29.353846153846156"/>
      <point x="371.5076923076923" y="-29.353846153846156" type="qcurve" smooth="yes"/>
      <point x="270.92307692307696" y="-29.353846153846156"/>
      <point x="150.7076923076923" y="108.73846153846154"/>
    </contour>
  </outline>
</glyph>
<glyph name="u" format="2">
  <advance width="991"/>
  <unicode hex="0075"/>
  <anchor x="552.0923076923077" y="1047.753846153846" name="top"/>
  <outline>
    <contour>
      <point x="134.9230769230769" y="347.13846153846157" type="qcurve" smooth="yes"/>
      <point x="134.9230769230769" y="1047.753846153846" type="line"/>
      <point x="310.24615384615385" y="1047.753846153846" type="line"/>
      <point x="310.24615384615385" y="346.24615384615385" type="line" smooth="yes"/>
      <point x="310.24615384615385" y="230.1846153846154"/>
      <point x="394.40000000000003" y="129.4923076923077"/>
      <point x="470.6153846153846" y="129.4923076923077" type="qcurve" smooth="yes"/>
      <point x="539.1076923076923" y="129.4923076923077"/>
      <point x="640.7692307692308" y="215.52307692307693"/>
      <point x="670.9692307692309" y="283.13846153846157" type="qcurve"/>
      <point x="670.9692307692309" y="1047.753846153846" type="line"/>
      <point x="846.2923076923076" y="1047.753846153846" type="line"/>
      <point x="846.2923076923076" y="0.0" type="line"/>
      <point x="685.6307692307693" y="0.0" type="line"/>
      <point x="679.8153846153846" y="117.84615384615385" type="line"/>
      <point x="673.9692307692309" y="117.84615384615385" type="line"/>
      <point x="630.8307692307692" y="52.95384615384616"/>
      <point x="496.4153846153846" y="-19.661538461538463"/>
      <point x="416.95384615384614" y="-19.661538461538463" type="qcurve" smooth="yes"/>
      <point x="287.6923076923077" y="-19.661538461538463"/>
      <point x="134.9230769230769" y="149.07692307692307"/>
    </contour>
  </outline>
</glyph>
<glyph name="v" format="2">
  <advance width="795"/>
  <unicode hex="0076"/>
  <outline>
    <contour>
      <point x="0.15384615384615385" y="1047.753846153846" type="line"/>
      <point x="167.75384615384615" y="1047.753846153846" type="line"/>
      <point x="366.2" y="372.83076923076925" type="line" smooth="yes"/>
      <point x="377.86153846153843" y="333.7230769230769"/>
      <point x="392.46153846153845" y="255.23076923076923"/>
      <point x="397.3384615384615" y="216.1846153846154" type="qcurve"/>
      <point x="402.1846153846154" y="216.1846153846154" type="line"/>
      <point x="406.09230769230766" y="255.23076923076923"/>
      <point x="421.69230769230774" y="333.7230769230769"/>
      <point x="433.3538461538462" y="372.83076923076925" type="qcurve" smooth="yes"/>
      <point x="631.8923076923077" y="1047.753846153846" type="line"/>
      <point x="794.6153846153846" y="1047.753846153846" type="line"/>
      <point x="467.44615384615383" y="0.0" type="line"/>
      <point x="327.2" y="0.0" type="line"/>
    </contour>
  </outline>
</glyph>
<glyph name="w" format="2">
  <advance width="1310"/>
  <unicode hex="0077"/>
  <outline>
    <contour>
      <point x="24.230769230769234" y="1047.753846153846" type="line"/>
      <point x="194.70769230769233" y="1047.753846153846" type="line"/>
      <point x="335.8769230769231" y="343.2" type="line" smooth="yes"/>
      <point x="343.63076923076926" y="304.33846153846156"/>
      <point x="359.16923076923075" y="245.8153846153846"/>
      <point x="363.0461538461538" y="206.79999999999998" type="qcurve"/>
      <point x="368.89230769230767" y="206.79999999999998" type="line"/>
      <point x="373.73846153846154" y="245.8153846153846"/>
      <point x="390.24615384615385" y="304.33846153846156"/>
      <point x="399.9384615384615" y="343.2" type="qcurve" smooth="yes"/>
      <point x="579.2153846153847" y="1047.753846153846" type="line"/>
      <point x="737.876923076923" y="1047.753846153846" type="line"/>
      <point x="918.1538461538461" y="343.2307692307692" type="line" smooth="yes"/>
      <point x="927.8461538461538" y="304.33846153846156"/>
      <point x="943.3846153846154" y="245.63076923076923"/>
      <point x="948.2307692307693" y="206.79999999999998" type="qcurve"/>
      <point x="954.0769230769231" y="206.79999999999998" type="line"/>
      <point x="958.9230769230769" y="245.63076923076923"/>
      <point x="974.4615384615385" y="304.3384615384615"/>
      <point x="982.2153846153847" y="343.2307692307692" type="qcurve" smooth="yes"/>
      <point x="1121.7230769230769" y="1047.753846153846" type="line"/>
      <point x="1285.2615384615383" y="1047.753846153846" type="line"/>
      <point x="1030.753846153846" y="0.0" type="line"/>
      <point x="872.3076923076924" y="0.0" type="line"/>
      <point x="692.9692307692308" y="656.1692307692307" type="line" smooth="yes"/>
      <point x="682.3076923076924" y="695.0"/>
      <point x="664.7384615384616" y="774.0461538461539"/>
      <point x="656.9846153846154" y="812.876923076923" type="qcurve"/>
      <point x="653.1076923076923" y="812.876923076923" type="line"/>
      <point x="645.3538461538462" y="774.0461538461539"/>
      <point x="627.7538461538462" y="695.0"/>
      <point x="617.0923076923077" y="656.1692307692307" type="qcurve" smooth="yes"/>
      <point x="437.9384615384615" y="0.0" type="line"/>
      <point x="279.4923076923077" y="0.0" type="line"/>
    </contour>
  </outline>
</glyph>
<glyph name="x" format="2">
  <advance width="830"/>
  <unicode hex="0078"/>
  <outline>
    <contour>
      <point x="19.384615384615383" y="0.0" type="line"/>
      <point x="349.13846153846157" y="578.5230769230769" type="line"/>
      <point x="359.5076923076923" y="579.7538461538461" type="line"/>
      <point x="608.0307692307692" y="1047.753846153846" type="line"/>
      <point x="794.1692307692308" y="1047.753846153846" type="line"/>
      <point x="477.0769230769231" y="482.9230769230769" type="line"/>
      <point x="464.7692307692308" y="481.69230769230774" type="line"/>
      <point x="204.64615384615385" y="0.0" type="line"/>
    </contour>
    <contour>
      <point x="36.830769230769235" y="1047.753846153846" type="line"/>
      <point x="223.87692307692308" y="1047.753846153846" type="line"/>
      <point x="478.6461538461539" y="579.2307692307693" type="line"/>
      <point x="480.86153846153843" y="578.3384615384615" type="line"/>
      <point x="810.7076923076922" y="0.0" type="line"/>
      <point x="623.6307692307693" y="0.0" type="line"/>
      <point x="358.2" y="482.03076923076924" type="line"/>
      <point x="355.04615384615386" y="482.83076923076925" type="line"/>
    </contour>
  </outline>
</glyph>
<glyph name="y" format="2">
  <advance width="808"/>
  <unicode hex="0079"/>
  <anchor x="470.03076923076924" y="1047.753846153846" name="top"/>
  <outline>
    <contour>
      <point x="46.861538461538466" y="-415.4153846153846" type="qcurve"/>
      <point x="46.861538461538466" y="-264.26153846153846" type="line"/>
      <point x="68.64615384615385" y="-272.26153846153846"/>
      <point x="123.58461538461539" y="-282.3538461538462"/>
      <point x="148.64615384615385" y="-282.3538461538462" type="qcurve" smooth="yes"/>
      <point x="206.1846153846154" y="-282.3538461538462"/>
      <point x="278.7230769230769" y="-202.98461538461538"/>
      <point x="341.67692307692306" y="9.246153846153847" type="qcurve" smooth="yes"/>
      <point x="341.6769230769231" y="10.307692307692307" type="line"/>
      <point x="16.630769230769232" y="1047.753846153846" type="line"/>
      <point x="184.23076923076923" y="1047.753846153846" type="line"/>
      <point x="384.5846153846154" y="373.38461538461536" type="line" smooth="yes"/>
      <point x="396.24615384615385" y="334.3076923076923"/>
      <point x="411.81538461538463" y="255.66153846153847"/>
      <point x="415.75384615384615" y="216.4923076923077" type="qcurve"/>
      <point x="420.59999999999997" y="216.4923076923077" type="line"/>
      <point x="424.53846153846155" y="255.66153846153847"/>
      <point x="440.1384615384615" y="334.2769230769231"/>
      <point x="450.8307692307692" y="373.3538461538462" type="qcurve" smooth="yes"/>
      <point x="644.5230769230769" y="1047.753846153846" type="line"/>
      <point x="808.1538461538462" y="1047.753846153846" type="line"/>
      <point x="469.83076923076925" y="-65.52307692307693" type="line" smooth="yes"/>
      <point x="404.33846153846156" y="-280.49230769230775"/>
      <point x="261.66153846153844" y="-435.4153846153846"/>
      <point x="157.95384615384614" y="-435.4153846153846" type="qcurve" smooth="yes"/>
      <point x="122.92307692307693" y="-435.4153846153846"/>
      <point x="69.73846153846154" y="-425.2923076923077"/>
    </contour>
  </outline>
</glyph>
<glyph name="z" format="2">
  <advance width="786"/>
  <unicode hex="007A"/>
  <outline>
    <contour>
      <point x="68.15384615384616" y="0.0" type="line"/>
      <point x="68.15384615384616" y="131.52307692307693" type="line"/>
      <point x="500.8" y="901.4153846153846" type="line"/>
      <point x="75.21538461538462" y="901.4153846153846" type="line"/>
      <point x="75.21538461538462" y="1047.753846153846" type="line"/>
      <point x="697.5692307692308" y="1047.753846153846" type="line"/>
      <point x="697.5692307692308" y="919.1384615384616" type="line"/>
      <point x="262.9846153846154" y="146.33846153846153" type="line"/>
      <point x="722.7076923076924" y="146.33846153846153" type="line"/>
      <point x="722.7076923076924" y="0.0" type="line"/>
    </contour>
  </outline>
</glyph>
<glyph name="braceleft" format="2">
  <advance width="679"/>
  <unicode hex="007B"/>
  <outline>
    <contour>
      <point x="602.4153846153846" y="-312.0" type="line"/>
      <point x="410.8615384615385" y="-312.0"/>
      <point x="190.6153846153846" y="-61.400000000000006"/>
      <point x="223.89230769230767" y="103.43076923076923" type="qcurve" smooth="yes"/>
      <point x="270.73846153846154" y="333.84615384615387" type="line" smooth="yes"/>
      <point x="292.8307692307692" y="442.36923076923074"/>
      <point x="183.75384615384615" y="510.73846153846154"/>
      <point x="87.16923076923077" y="510.73846153846154" type="qcurve"/>
      <point x="87.16923076923077" y="637.2615384615385" type="line"/>
      <point x="183.75384615384615" y="637.2615384615385"/>
      <point x="292.8307692307692" y="705.6307692307691"/>
      <point x="270.73846153846154" y="814.1538461538462" type="qcurve" smooth="yes"/>
      <point x="223.89230769230767" y="1044.569230769231" type="line" smooth="yes"/>
      <point x="190.6153846153846" y="1209.4"/>
      <point x="410.8615384615385" y="1460.0"/>
      <point x="602.4153846153846" y="1460.0" type="qcurve"/>
      <point x="602.4153846153846" y="1319.9076923076923" type="line"/>
      <point x="489.18461538461537" y="1319.9076923076923"/>
      <point x="372.2769230769231" y="1178.430769230769"/>
      <point x="399.46153846153845" y="1044.4153846153847" type="qcurve" smooth="yes"/>
      <point x="446.3076923076923" y="814.0" type="line" smooth="yes"/>
      <point x="464.2769230769231" y="730.0"/>
      <point x="392.1384615384615" y="604.9076923076923"/>
      <point x="294.0615384615384" y="574.0" type="qcurve"/>
      <point x="392.1384615384615" y="543.0923076923077"/>
      <point x="464.2769230769231" y="418.0"/>
      <point x="446.3076923076923" y="334.0" type="qcurve" smooth="yes"/>
      <point x="399.46153846153845" y="103.58461538461538" type="line" smooth="yes"/>
      <point x="372.2769230769231" y="-30.43076923076923"/>
      <point x="489.18461538461537" y="-171.90769230769232"/>
      <point x="602.4153846153846" y="-171.90769230769232" type="qcurve"/>
    </contour>
  </outline>
</glyph>
<glyph name="bar" format="2">
  <advance width="573"/>
  <unicode hex="007C"/>
  <outline>
    <contour>
      <point x="205.5076923076923" y="-416.0" type="line"/>
      <point x="205.5076923076923" y="1456.0" type="line"/>
      <point x="367.3538461538462" y="1456.0" type="line"/>
      <point x="367.3538461538462" y="-416.0" type="line"/>
    </contour>
  </outline>
</glyph>
<glyph name="braceright" format="2">
  <advance width="679"/>
  <unicode hex="007D"/>
  <outline>
    <contour>
      <point x="76.81538461538462" y="-312.0" type="qcurve"/>
      <point x="76.81538461538462" y="-171.90769230769232" type="line"/>
      <point x="190.04615384615386" y="-171.90769230769232"/>
      <point x="306.95384615384614" y="-30.43076923076923"/>
      <point x="279.7692307692308" y="103.58461538461538" type="qcurve" smooth="yes"/>
      <point x="232.92307692307693" y="334.0" type="line" smooth="yes"/>
      <point x="214.95384615384617" y="418.0"/>
      <point x="287.0923076923077" y="543.0923076923077"/>
      <point x="385.1692307692308" y="574.0" type="qcurve"/>
      <point x="287.0923076923077" y="604.9076923076923"/>
      <point x="214.95384615384617" y="730.0"/>
      <point x="232.92307692307693" y="814.0" type="qcurve" smooth="yes"/>
      <point x="279.7692307692308" y="1044.4153846153847" type="line" smooth="yes"/>
      <point x="306.95384615384614" y="1178.4307692307693"/>
      <point x="190.04615384615386" y="1319.9076923076923"/>
      <point x="76.81538461538462" y="1319.9076923076923" type="qcurve"/>
      <point x="76.81538461538462" y="1460.0" type="line"/>
      <point x="268.36923076923074" y="1460.0"/>
      <point x="489.5846153846154" y="1209.4"/>
      <point x="455.33846153846156" y="1044.569230769231" type="qcurve" smooth="yes"/>
      <point x="408.4923076923077" y="814.1538461538462" type="line" smooth="yes"/>
      <point x="386.4" y="705.6307692307691"/>
      <point x="495.4769230769231" y="637.2615384615385"/>
      <point x="592.0615384615385" y="637.2615384615385" type="qcurve"/>
      <point x="592.0615384615385" y="510.73846153846154" type="line"/>
      <point x="495.4769230769231" y="510.73846153846154"/>
      <point x="386.4" y="442.3692307692308"/>
      <point x="408.4923076923077" y="333.84615384615387" type="qcurve" smooth="yes"/>
      <point x="455.33846153846156" y="103.43076923076923" type="line" smooth="yes"/>
      <point x="489.5846153846154" y="-61.400000000000006"/>
      <point x="268.36923076923074" y="-312.0"/>
    </contour>
  </outline>
</glyph>
<glyph name="asciitilde" format="2">
  <advance width="1150"/>
  <unicode hex="007E"/>
  <outline>
    <contour>
      <point x="289.33846153846156" y="533.0153846153846" type="qcurve"/>
      <point x="289.33846153846156" y="732.8923076923077" type="line"/>
      <point x="313.4923076923077" y="775.1692307692307"/>
      <point x="376.46153846153845" y="816.9846153846154"/>
      <point x="419.40000000000003" y="817.0461538461539" type="qcurve" smooth="yes"/>
      <point x="452.75384615384615" y="817.0769230769231"/>
      <point x="535.7076923076922" y="791.7076923076922"/>
      <point x="586.8461538461538" y="766.9230769230769" type="qcurve" smooth="yes"/>
      <point x="631.2307692307692" y="744.9846153846154"/>
      <point x="703.276923076923" y="723.7692307692307"/>
      <point x="731.7538461538461" y="723.7692307692307" type="qcurve" smooth="yes"/>
      <point x="779.5076923076923" y="723.7692307692307"/>
      <point x="843.2923076923076" y="777.5846153846154"/>
      <point x="867.4769230769231" y="827.8923076923077" type="qcurve"/>
      <point x="867.4769230769231" y="627.0153846153846" type="line"/>
      <point x="844.4769230769231" y="586.6769230769231"/>
      <point x="779.5076923076923" y="543.8307692307693"/>
      <point x="734.6923076923077" y="543.8307692307693" type="qcurve" smooth="yes"/>
      <point x="705.1846153846154" y="543.8307692307693"/>
      <point x="631.0153846153846" y="565.2"/>
      <point x="587.6307692307693" y="586.1384615384616" type="qcurve" smooth="yes"/>
      <point x="536.4615384615385" y="610.9538461538461"/>
      <point x="455.63076923076926" y="636.1384615384616"/>
      <point x="423.2769230769231" y="636.1384615384616" type="qcurve" smooth="yes"/>
      <point x="378.40000000000003" y="636.1384615384616"/>
      <point x="314.52307692307687" y="585.2615384615385"/>
    </contour>
  </outline>
</glyph>
<glyph name="dieresis" format="2">
  <advance width="1008"/>
  <unicode hex="00A8"/>
  <anchor x="423.0" y="1577.0" name="mkmktop_acc"/>
  <outline>
    <contour>
      <point x="184.3846153846154" y="1302.3846153846155" type="qcurve" smooth="yes"/>
      <point x="184.3846153846154" y="1346.8923076923077"/>
      <point x="239.6769230769231" y="1408.123076923077"/>
      <point x="292.03076923076924" y="1408.123076923077" type="qcurve" smooth="yes"/>
      <point x="345.38461538461536" y="1408.123076923077"/>
      <point x="400.67692307692306" y="1346.8923076923077"/>
      <point x="400.67692307692306" y="1302.3846153846155" type="qcurve" smooth="yes"/>
      <point x="400.67692307692306" y="1259.9076923076923"/>
      <point x="345.38461538461536" y="1199.6461538461538"/>
      <point x="292.03076923076924" y="1199.6461538461538" type="qcurve" smooth="yes"/>
      <point x="239.6769230769231" y="1199.6461538461538"/>
      <point x="184.3846153846154" y="1259.9076923076923"/>
    </contour>
    <contour>
      <point x="607.2" y="1300.3846153846155" type="qcurve" smooth="yes"/>
      <point x="607.2" y="1344.8923076923077"/>
      <point x="661.5230769230769" y="1406.123076923077"/>
      <point x="714.8461538461539" y="1406.123076923077" type="qcurve" smooth="yes"/>
      <point x="767.2307692307693" y="1406.123076923077"/>
      <point x="823.4923076923077" y="1344.8923076923077"/>
      <point x="823.4923076923077" y="1300.3846153846155" type="qcurve" smooth="yes"/>
      <point x="823.4923076923077" y="1257.9076923076923"/>
      <point x="767.2307692307693" y="1197.6461538461538"/>
      <point x="714.8461538461539" y="1197.6461538461538" type="qcurve" smooth="yes"/>
      <point x="661.5230769230769" y="1197.6461538461538"/>
      <point x="607.2" y="1257.9076923076923"/>
    </contour>
  </outline>
</glyph>
<glyph name="macron" format="2">
  <advance width="1008"/>
  <unicode hex="00AF"/>
  <anchor x="473.0" y="1577.0" name="mkmktop_acc"/>
  <outline>
    <contour>
      <point x="813.0153846153846" y="1419.2307692307693" type="line"/>
      <point x="813.0153846153846" y="1268.9846153846154" type="line"/>
      <point x="194.86153846153846" y="1268.9846153846154" type="line"/>
      <point x="194.86153846153846" y="1419.2307692307693" type="line"/>
    </contour>
  </outline>
</glyph>
<glyph name="degree" format="2">
  <advance width="756"/>
  <unicode hex="00B0"/>
  <outline>
    <contour>
      <point x="127.95384615384616" y="1217.0" type="qcurve"/>
      <point x="127.95384615384616" y="1116.2440872560276"/>
      <point x="278.32192881745124" y="974.4"/>
      <point x="381.4769230769231" y="974.4" type="qcurve" smooth="yes"/>
      <point x="483.87784156142357" y="974.4"/>
      <point x="631.0" y="1116.2440872560276"/>
      <point x="631.0" y="1217.0" type="qcurve" smooth="yes"/>
      <point x="631.0" y="1317.0633754305395"/>
      <point x="483.8778415614236" y="1462.6"/>
      <point x="381.4769230769231" y="1462.6" type="qcurve" smooth="yes"/>
      <point x="278.32192881745124" y="1462.6"/>
      <point x="127.95384615384616" y="1317.0633754305395"/>
    </contour>
    <contour>
      <point x="250.87692307692308" y="1217.0" type="qcurve"/>
      <point x="250.87692307692308" y="1161.9368541905856"/>
      <point x="327.89115958668197" y="1088.4"/>
      <point x="381.4769230769231" y="1088.4" type="qcurve" smooth="yes"/>
      <point x="435.03191733639494" y="1088.4"/>
      <point x="508.0769230769231" y="1161.9368541905856"/>
      <point x="508.0769230769231" y="1217.0" type="qcurve" smooth="yes"/>
      <point x="508.0769230769231" y="1272.8172215843856"/>
      <point x="435.03191733639494" y="1348.6"/>
      <point x="381.4769230769231" y="1348.6" type="qcurve" smooth="yes"/>
      <point x="327.89115958668197" y="1348.6"/>
      <point x="250.87692307692308" y="1272.8172215843856"/>
    </contour>
  </outline>
</glyph>
<glyph name="twosuperior" format="2">
  <advance width="737"/>
  <unicode hex="00B2"/>
  <outline>
    <contour>
      <point x="83.43076923076923" y="696.3846153846154" type="line"/>
      <point x="83.43076923076923" y="803.4615384615385" type="line"/>
      <point x="365.67692307692306" y="1064.6461538461538" type="line" smooth="yes"/>
      <point x="432.2923076923077" y="1125.6461538461538"/>
      <point x="471.61538461538464" y="1215.3846153846152"/>
      <point x="471.61538461538464" y="1249.3076923076924" type="qcurve" smooth="yes"/>
      <point x="471.61538461538464" y="1298.0769230769229"/>
      <point x="420.9076923076923" y="1348.2307692307693"/>
      <point x="362.95384615384614" y="1348.2307692307693" type="qcurve" smooth="yes"/>
      <point x="299.12307692307695" y="1348.2307692307693"/>
      <point x="230.12307692307692" y="1273.923076923077"/>
      <point x="231.12307692307692" y="1197.3846153846155" type="qcurve"/>
      <point x="65.73846153846154" y="1197.3846153846155" type="line"/>
      <point x="64.76923076923077" y="1329.923076923077"/>
      <point x="219.53846153846152" y="1486.4153846153845"/>
      <point x="359.2307692307692" y="1486.4153846153845" type="qcurve" smooth="yes"/>
      <point x="491.0769230769231" y="1486.4153846153845"/>
      <point x="640.123076923077" y="1359.4615384615383"/>
      <point x="640.123076923077" y="1251.8307692307692" type="qcurve" smooth="yes"/>
      <point x="640.123076923077" y="1170.8461538461538"/>
      <point x="545.5692307692308" y="1046.8615384615384"/>
      <point x="459.3538461538462" y="969.7076923076924" type="qcurve" smooth="yes"/>
      <point x="316.8769230769231" y="842.3538461538461" type="line"/>
      <point x="670.3846153846154" y="842.3538461538461" type="line"/>
      <point x="670.3846153846154" y="696.3846153846154" type="line"/>
    </contour>
  </outline>
</glyph>
<glyph name="threesuperior" format="2">
  <advance width="738"/>
  <unicode hex="00B3"/>
  <outline>
    <contour>
      <point x="62.07692307692307" y="919.6923076923076" type="qcurve"/>
      <point x="216.73846153846154" y="919.6923076923076" type="line"/>
      <point x="216.73846153846154" y="872.723076923077"/>
      <point x="294.6461538461539" y="820.9846153846154"/>
      <point x="359.53846153846155" y="820.9846153846154" type="qcurve" smooth="yes"/>
      <point x="427.36923076923074" y="820.9846153846154"/>
      <point x="489.7692307692308" y="873.7230769230769"/>
      <point x="489.7692307692308" y="923.9230769230769" type="qcurve" smooth="yes"/>
      <point x="489.7692307692308" y="978.0"/>
      <point x="415.36923076923074" y="1028.0307692307692"/>
      <point x="343.59999999999997" y="1029.0" type="qcurve" smooth="yes"/>
      <point x="261.0153846153846" y="1029.0" type="line"/>
      <point x="261.0153846153846" y="1149.769230769231" type="line"/>
      <point x="343.59999999999997" y="1149.769230769231" type="line" smooth="yes"/>
      <point x="414.36923076923074" y="1149.769230769231"/>
      <point x="476.9846153846154" y="1205.7692307692307"/>
      <point x="476.9846153846154" y="1254.3846153846155" type="qcurve" smooth="yes"/>
      <point x="476.9846153846154" y="1300.1076923076923"/>
      <point x="424.2461538461539" y="1350.1076923076923"/>
      <point x="356.6" y="1350.1076923076923" type="qcurve" smooth="yes"/>
      <point x="300.55384615384617" y="1350.1076923076923"/>
      <point x="227.52307692307693" y="1300.1076923076923"/>
      <point x="227.4923076923077" y="1254.8923076923077" type="qcurve"/>
      <point x="72.86153846153846" y="1254.8923076923077" type="line"/>
      <point x="72.8923076923077" y="1357.923076923077"/>
      <point x="236.75384615384615" y="1486.353846153846"/>
      <point x="353.6923076923077" y="1486.353846153846" type="qcurve" smooth="yes"/>
      <point x="481.4769230769231" y="1486.353846153846"/>
      <point x="644.4" y="1372.3999999999999"/>
      <point x="644.4" y="1263.123076923077" type="qcurve" smooth="yes"/>
      <point x="644.4" y="1211.3846153846152"/>
      <point x="582.4769230769231" y="1119.1692307692308"/>
      <point x="523.0923076923076" y="1097.3846153846152" type="qcurve"/>
      <point x="589.9846153846154" y="1074.6923076923076"/>
      <point x="655.2153846153846" y="982.6923076923076"/>
      <point x="655.2153846153846" y="915.5230769230769" type="qcurve" smooth="yes"/>
      <point x="655.2153846153846" y="805.1538461538462"/>
      <point x="482.7230769230769" y="684.8000000000001"/>
      <point x="354.9384615384616" y="684.8000000000001" type="qcurve" smooth="yes"/>
      <point x="243.3846153846154" y="684.8000000000001"/>
      <point x="62.07692307692307" y="795.8461538461538"/>
    </contour>
  </outline>
</glyph>
<glyph name="acute" format="2">
  <advance width="1008"/>
  <unicode hex="00B4"/>
  <anchor x="291.0" y="1197.0" name="mkmktop_acc"/>
  <outline>
    <contour>
      <point x="348.44615384615383" y="1280.9538461538461" type="line"/>
      <point x="585.8153846153846" y="1571.753846153846" type="line"/>
      <point x="736.9692307692309" y="1467.7692307692307" type="line"/>
      <point x="442.4923076923077" y="1196.3384615384616" type="line"/>
    </contour>
  </outline>
</glyph>
<glyph name="onesuperior" format="2">
  <advance width="740"/>
  <unicode hex="00B9"/>
  <outline>
    <contour>
      <point x="120.23076923076923" y="1212.7846153846156" type="line"/>
      <point x="120.23076923076923" y="1369.6000000000001" type="line"/>
      <point x="449.3076923076923" y="1485.076923076923" type="line"/>
      <point x="493.61538461538464" y="1485.076923076923" type="line"/>
      <point x="493.61538461538464" y="696.0461538461539" type="line"/>
      <point x="333.92307692307696" y="696.0461538461539" type="line"/>
      <point x="333.92307692307696" y="1289.753846153846" type="line"/>
    </contour>
  </outline>
</glyph>
<glyph name="doubleprimemod" format="2">
  <advance width="779"/>
  <unicode hex="02BA"/>
  <outline>
    <contour>
      <point x="220.92307692307693" y="1501.3846153846155" type="line"/>
      <point x="407.7692307692308" y="1501.3846153846155" type="line"/>
      <point x="290.3538461538462" y="1003.6" type="line"/>
      <point x="169.8923076923077" y="1008.6" type="line"/>
    </contour>
    <contour>
      <point x="517.5384615384615" y="1501.3846153846155" type="line"/>
      <point x="704.3846153846154" y="1501.3846153846155" type="line"/>
      <point x="586.9692307692308" y="1003.6" type="line"/>
      <point x="466.5076923076923" y="1008.6" type="line"/>
    </contour>
  </outline>
</glyph>
<glyph name="circumflex" format="2">
  <advance width="1008"/>
  <unicode hex="02C6"/>
  <anchor x="471.0" y="1637.0" name="mkmktop_acc"/>
  <outline>
    <contour>
      <point x="559.3230769230769" y="1504.8307692307692" type="line"/>
      <point x="803.6923076923076" y="1195.5846153846155" type="line"/>
      <point x="651.3846153846154" y="1195.5846153846155" type="line"/>
      <point x="503.78461538461534" y="1352.4615384615383" type="line"/>
      <point x="357.1846153846154" y="1195.5846153846155" type="line"/>
      <point x="206.84615384615384" y="1195.5846153846155" type="line"/>
      <point x="448.24615384615385" y="1504.8307692307692" type="line"/>
    </contour>
  </outline>
</glyph>
<glyph name="breve" format="2">
  <advance width="1006"/>
  <unicode hex="02D8"/>
  <anchor x="429.0" y="1606.0" name="mkmktop_acc"/>
  <outline>
    <contour>
      <point x="741.6615384615385" y="1505.876923076923" type="qcurve"/>
      <point x="835.6461538461539" y="1452.6461538461538" type="line"/>
      <point x="801.2923076923078" y="1354.6923076923076"/>
      <point x="628.9384615384615" y="1190.4923076923076"/>
      <point x="504.9076923076923" y="1190.4923076923076" type="qcurve" smooth="yes"/>
      <point x="393.4769230769231" y="1190.4923076923076"/>
      <point x="215.46153846153845" y="1340.9076923076923"/>
      <point x="174.20000000000002" y="1453.7076923076922" type="qcurve"/>
      <point x="277.0" y="1505.9384615384615" type="line"/>
      <point x="311.4769230769231" y="1449.4307692307693"/>
      <point x="428.1384615384615" y="1352.123076923077"/>
      <point x="505.9076923076923" y="1352.123076923077" type="qcurve" smooth="yes"/>
      <point x="588.5230769230769" y="1352.123076923077"/>
      <point x="706.2153846153847" y="1445.5538461538463"/>
    </contour>
  </outline>
</glyph>
<glyph name="dotaccent" format="2">
  <advance width="1008"/>
  <unicode hex="02D9"/>
  <anchor x="250.0" y="1572.0" name="mkmktop_acc"/>
  <outline>
    <contour>
      <point x="385.10769230769233" y="1331.5846153846155" type="qcurve" smooth="yes"/>
      <point x="385.10769230769233" y="1375.1846153846154"/>
      <point x="450.46153846153845" y="1446.5076923076922"/>
      <point x="503.9384615384615" y="1446.5076923076922" type="qcurve" smooth="yes"/>
      <point x="556.4153846153846" y="1446.5076923076922"/>
      <point x="622.7692307692308" y="1375.1846153846154"/>
      <point x="622.7692307692308" y="1331.5846153846155" type="qcurve" smooth="yes"/>
      <point x="622.7692307692308" y="1287.9846153846154"/>
      <point x="556.4153846153846" y="1217.6615384615386"/>
      <point x="503.9384615384615" y="1217.6615384615386" type="qcurve" smooth="yes"/>
      <point x="450.46153846153845" y="1217.6615384615386"/>
      <point x="385.10769230769233" y="1287.9846153846154"/>
    </contour>
  </outline>
</glyph>
<glyph name="ogonek" format="2">
  <advance width="1003"/>
  <unicode hex="02DB"/>
  <outline>
    <contour>
      <point x="521.676923076923" y="56.10769230769231" type="qcurve"/>
      <point x="594.9384615384615" y="-0.12307692307692308" type="line"/>
      <point x="531.9846153846154" y="-47.784615384615385"/>
      <point x="427.2923076923077" y="-155.09230769230768"/>
      <point x="427.2923076923077" y="-218.6769230769231" type="qcurve" smooth="yes"/>
      <point x="427.2923076923077" y="-251.27692307692308"/>
      <point x="461.83076923076925" y="-290.8769230769231"/>
      <point x="504.46153846153845" y="-290.8769230769231" type="qcurve" smooth="yes"/>
      <point x="537.3076923076923" y="-290.8769230769231"/>
      <point x="589.0615384615385" y="-271.96923076923076"/>
      <point x="604.0307692307692" y="-263.87692307692305" type="qcurve"/>
      <point x="618.1846153846154" y="-384.12307692307695" type="line"/>
      <point x="593.4615384615385" y="-399.12307692307695"/>
      <point x="516.8" y="-428.24615384615385"/>
      <point x="458.3230769230769" y="-428.24615384615385" type="qcurve" smooth="yes"/>
      <point x="378.2153846153846" y="-428.24615384615385"/>
      <point x="268.6307692307692" y="-331.53846153846155"/>
      <point x="268.6307692307692" y="-239.76923076923075" type="qcurve" smooth="yes"/>
      <point x="268.6307692307692" y="-161.18461538461537"/>
      <point x="388.07692307692304" y="-6.5538461538461545"/>
    </contour>
  </outline>
</glyph>
<glyph name="tilde" format="2">
  <advance width="1008"/>
  <unicode hex="02DC"/>
  <anchor x="475.0" y="1598.0" name="mkmktop_acc"/>
  <outline>
    <contour>
      <point x="153.35384615384615" y="1288.7384615384615" type="line"/>
      <point x="185.95384615384614" y="1350.7846153846153"/>
      <point x="321.61538461538464" y="1447.2153846153847"/>
      <point x="387.32307692307694" y="1447.2153846153847" type="qcurve" smooth="yes"/>
      <point x="427.86153846153843" y="1447.2153846153847"/>
      <point x="501.9384615384616" y="1422.4"/>
      <point x="538.3230769230769" y="1398.7692307692307" type="qcurve" smooth="yes"/>
      <point x="571.7692307692307" y="1377.076923076923"/>
      <point x="648.2923076923076" y="1334.0"/>
      <point x="685.6769230769231" y="1334.0" type="qcurve" smooth="yes"/>
      <point x="725.0307692307692" y="1334.0"/>
      <point x="793.8307692307693" y="1385.8923076923077"/>
      <point x="816.6153846153846" y="1421.4307692307693" type="qcurve"/>
      <point x="896.4769230769231" y="1324.7230769230769" type="line"/>
      <point x="858.9384615384615" y="1254.7692307692307"/>
      <point x="728.3384615384615" y="1183.846153846154"/>
      <point x="672.1692307692308" y="1183.846153846154" type="qcurve" smooth="yes"/>
      <point x="623.876923076923" y="1183.846153846154"/>
      <point x="531.2923076923076" y="1226.0153846153846"/>
      <point x="500.6923076923077" y="1242.8615384615384" type="qcurve" smooth="yes"/>
      <point x="467.24615384615385" y="1261.6153846153848"/>
      <point x="400.3538461538462" y="1295.123076923077"/>
      <point x="371.8461538461538" y="1295.123076923077" type="qcurve" smooth="yes"/>
      <point x="325.61538461538464" y="1295.123076923077"/>
      <point x="246.27692307692308" y="1224.6000000000001"/>
      <point x="228.46153846153845" y="1197.9076923076925" type="qcurve"/>
    </contour>
  </outline>
</glyph>
<glyph name="hungarumlaut" format="2">
  <advance width="1008"/>
  <unicode hex="02DD"/>
  <outline>
    <contour>
      <point x="526.7846153846153" y="1192.1076923076923" type="line"/>
      <point x="752.3846153846154" y="1491.7846153846153" type="line"/>
      <point x="955.876923076923" y="1490.4" type="line"/>
      <point x="692.6461538461539" y="1191.0307692307692" type="line"/>
    </contour>
    <contour>
      <point x="250.6923076923077" y="1192.1692307692308" type="line"/>
      <point x="417.79999999999995" y="1491.8153846153846" type="line"/>
      <point x="612.5076923076923" y="1490.4" type="line"/>
      <point x="398.0769230769231" y="1191.0307692307692" type="line"/>
    </contour>
  </outline>
</glyph>
<glyph name="hookabovecomb" format="2">
  <advance width="1008"/>
  <unicode hex="0309"/>
  <outline>
    <contour>
      <point x="444.73846153846154" y="1141.1846153846154" type="line"/>
      <point x="444.73846153846154" y="1179.2923076923078" type="line" smooth="yes"/>
      <point x="444.73846153846154" y="1230.7076923076922"/>
      <point x="502.75384615384615" y="1299.8153846153846"/>
      <point x="577.9846153846154" y="1310.4769230769232" type="qcurve" smooth="yes"/>
      <point x="632.9692307692308" y="1318.2307692307693"/>
      <point x="672.2307692307693" y="1349.9230769230771"/>
      <point x="672.2307692307693" y="1390.246153846154" type="qcurve" smooth="yes"/>
      <point x="672.2307692307693" y="1428.569230769231"/>
      <point x="614.3384615384615" y="1464.1384615384616"/>
      <point x="561.2923076923076" y="1464.1384615384616" type="qcurve" smooth="yes"/>
      <point x="498.2153846153846" y="1464.1384615384616"/>
      <point x="387.7846153846154" y="1431.6307692307694"/>
      <point x="377.5692307692307" y="1423.6000000000001" type="qcurve"/>
      <point x="324.24615384615385" y="1546.8769230769233" type="line"/>
      <point x="358.7230769230769" y="1565.6923076923078"/>
      <point x="510.7846153846154" y="1606.2"/>
      <point x="591.5230769230769" y="1606.2" type="qcurve" smooth="yes"/>
      <point x="709.4615384615385" y="1606.2"/>
      <point x="832.8307692307692" y="1494.0153846153846"/>
      <point x="832.8307692307692" y="1399.3384615384616" type="qcurve" smooth="yes"/>
      <point x="832.8307692307692" y="1299.723076923077"/>
      <point x="706.5846153846154" y="1182.323076923077"/>
      <point x="566.1692307692308" y="1171.6615384615386" type="qcurve"/>
      <point x="566.1692307692308" y="1141.1846153846154" type="line"/>
    </contour>
  </outline>
</glyph>
<glyph name="breveinvertedcomb" format="2">
  <advance width="1008"/>
  <unicode hex="030F"/>
  <outline>
    <contour>
      <point x="266.7692307692307" y="1191.2307692307693" type="qcurve"/>
      <point x="172.90769230769232" y="1244.3999999999999" type="line"/>
      <point x="207.5076923076923" y="1342.3846153846155"/>
      <point x="380.38461538461536" y="1507.723076923077"/>
      <point x="504.8461538461538" y="1507.723076923077" type="qcurve" smooth="yes"/>
      <point x="616.4615384615385" y="1507.723076923077"/>
      <point x="795.2769230769231" y="1356.2615384615385"/>
      <point x="836.7846153846154" y="1243.3999999999999" type="qcurve"/>
      <point x="734.0461538461539" y="1191.2307692307693" type="line"/>
      <point x="699.446153846154" y="1247.676923076923"/>
      <point x="581.8923076923077" y="1345.6615384615384"/>
      <point x="503.8461538461538" y="1345.6615384615384" type="qcurve" smooth="yes"/>
      <point x="420.8615384615385" y="1345.6615384615384"/>
      <point x="302.33846153846156" y="1251.6153846153845"/>
    </contour>
  </outline>
</glyph>
<glyph name="commaaccentcomb" format="2">
  <advance width="1008"/>
  <unicode hex="0326"/>
  <outline>
    <contour>
      <point x="368.2307692307692" y="-523.0769230769231" type="line"/>
      <point x="397.2307692307692" y="-419.0769230769231"/>
      <point x="432.8" y="-281.5076923076923"/>
      <point x="455.9230769230769" y="-154.46153846153845" type="qcurve"/>
      <point x="655.1846153846154" y="-152.52307692307693" type="line"/>
      <point x="529.1076923076923" y="-526.1384615384616" type="line"/>
    </contour>
  </outline>
</glyph>
<glyph name="brevebelowcomb" format="2">
  <advance width="1008"/>
  <unicode hex="032E"/>
  <outline>
    <contour>
      <point x="790.4153846153846" y="-126.66153846153847" type="qcurve"/>
      <point x="882.3384615384616" y="-195.33846153846153" type="line"/>
      <point x="843.8923076923077" y="-293.723076923077"/>
      <point x="645.7846153846153" y="-458.66153846153844"/>
      <point x="503.87692307692305" y="-458.66153846153844" type="qcurve" smooth="yes"/>
      <point x="377.7230769230769" y="-458.66153846153844"/>
      <point x="173.70769230769233" y="-307.5076923076923"/>
      <point x="126.38461538461539" y="-194.33846153846153" type="qcurve"/>
      <point x="225.24615384615385" y="-126.66153846153847" type="line"/>
      <point x="267.6" y="-189.1076923076923"/>
      <point x="410.3538461538462" y="-291.75384615384615"/>
      <point x="503.9076923076923" y="-291.75384615384615" type="qcurve" smooth="yes"/>
      <point x="604.3384615384616" y="-291.75384615384615"/>
      <point x="748.0" y="-194.1076923076923"/>
    </contour>
  </outline>
</glyph>
<glyph name="endash" format="2">
  <advance width="1008"/>
  <unicode hex="2013"/>
  <outline>
    <contour>
      <point x="0.0" y="532.0" type="line"/>
      <point x="0.0" y="697.8461538461538" type="line"/>
      <point x="1007.876923076923" y="697.8461538461538" type="line"/>
      <point x="1007.876923076923" y="532.0" type="line"/>
    </contour>
  </outline>
</glyph>
<glyph name="quoteleft" format="2">
  <advance width="405"/>
  <unicode hex="2018"/>
  <outline>
    <contour>
      <point x="91.07692307692308" y="1076.5076923076922" type="line"/>
      <point x="91.07692307692308" y="1196.246153846154" type="line" smooth="yes"/>
      <point x="91.07692307692308" y="1285.353846153846"/>
      <point x="180.93846153846152" y="1487.2615384615383"/>
      <point x="262.8615384615385" y="1554.553846153846" type="qcurve"/>
      <point x="366.53846153846155" y="1482.2923076923078" type="line"/>
      <point x="321.0923076923077" y="1417.0"/>
      <point x="271.73846153846154" y="1279.3846153846152"/>
      <point x="271.73846153846154" y="1199.2153846153847" type="qcurve" smooth="yes"/>
      <point x="271.73846153846154" y="1076.5076923076922" type="line"/>
    </contour>
  </outline>
</glyph>
<glyph name="quoteright" format="2">
  <advance width="405"/>
  <unicode hex="2019"/>
  <outline>
    <contour>
      <point x="314.4" y="1457.9384615384615" type="line"/>
      <point x="314.4" y="1331.4153846153847" type="line" smooth="yes"/>
      <point x="314.4" y="1242.3076923076924"/>
      <point x="224.53846153846155" y="1040.4"/>
      <point x="143.5846153846154" y="973.1076923076923" type="qcurve"/>
      <point x="38.93846153846154" y="1045.3692307692306" type="line"/>
      <point x="85.35384615384615" y="1110.6615384615384"/>
      <point x="132.76923076923077" y="1248.2769230769231"/>
      <point x="132.76923076923077" y="1328.4461538461537" type="qcurve" smooth="yes"/>
      <point x="132.76923076923077" y="1457.9384615384615" type="line"/>
    </contour>
  </outline>
</glyph>
<glyph name="quotesinglbase" format="2">
  <advance width="405"/>
  <unicode hex="201A"/>
  <outline>
    <contour>
      <point x="314.4" y="218.03076923076924" type="line"/>
      <point x="314.4" y="91.50769230769231" type="line" smooth="yes"/>
      <point x="314.4" y="2.4"/>
      <point x="224.53846153846155" y="-199.5076923076923"/>
      <point x="143.58461538461538" y="-266.8" type="qcurve"/>
      <point x="38.93846153846154" y="-194.53846153846155" type="line"/>
      <point x="85.35384615384615" y="-129.24615384615385"/>
      <point x="132.76923076923077" y="8.36923076923077"/>
      <point x="132.76923076923077" y="88.53846153846153" type="qcurve" smooth="yes"/>
      <point x="132.76923076923077" y="218.03076923076924" type="line"/>
    </contour>
  </outline>
</glyph>
<glyph name="quotedblright" format="2">
  <advance width="819"/>
  <unicode hex="201D"/>
  <outline>
    <contour>
      <point x="314.4" y="1457.9384615384615" type="line"/>
      <point x="314.4" y="1331.4153846153847" type="line" smooth="yes"/>
      <point x="314.4" y="1242.3076923076924"/>
      <point x="224.53846153846155" y="1040.4"/>
      <point x="143.58461538461538" y="973.1076923076923" type="qcurve"/>
      <point x="38.93846153846154" y="1045.3692307692309" type="line"/>
      <point x="85.35384615384615" y="1110.6615384615384"/>
      <point x="132.76923076923077" y="1248.2769230769231"/>
      <point x="132.76923076923077" y="1328.446153846154" type="qcurve" smooth="yes"/>
      <point x="132.76923076923077" y="1457.9384615384615" type="line"/>
    </contour>
    <contour>
      <point x="727.6307692307693" y="1457.9384615384615" type="line"/>
      <point x="727.6307692307693" y="1331.4153846153847" type="line" smooth="yes"/>
      <point x="727.6307692307693" y="1242.3076923076924"/>
      <point x="637.7692307692307" y="1040.4"/>
      <point x="556.8153846153846" y="973.1076923076923" type="qcurve"/>
      <point x="452.16923076923075" y="1045.3692307692309" type="line"/>
      <point x="498.5846153846154" y="1110.6615384615384"/>
      <point x="546.0" y="1248.2769230769231"/>
      <point x="546.0" y="1328.446153846154" type="qcurve" smooth="yes"/>
      <point x="546.0" y="1457.9384615384615" type="line"/>
    </contour>
  </outline>
</glyph>
<glyph name="quotedblbase" format="2">
  <advance width="819"/>
  <unicode hex="201E"/>
  <outline>
    <contour>
      <point x="314.4" y="218.03076923076924" type="line"/>
      <point x="314.4" y="91.50769230769231" type="line" smooth="yes"/>
      <point x="314.4" y="2.4"/>
      <point x="224.53846153846155" y="-199.5076923076923"/>
      <point x="143.58461538461538" y="-266.8" type="qcurve"/>
      <point x="38.93846153846154" y="-194.53846153846155" type="line"/>
      <point x="85.35384615384615" y="-129.24615384615385"/>
      <point x="132.76923076923077" y="8.36923076923077"/>
      <point x="132.76923076923077" y="88.53846153846153" type="qcurve" smooth="yes"/>
      <point x="132.76923076923077" y="218.03076923076924" type="line"/>
    </contour>
    <contour>
      <point x="727.6307692307693" y="218.03076923076924" type="line"/>
      <point x="727.6307692307693" y="91.50769230769231" type="line" smooth="yes"/>
      <point x="727.6307692307693" y="2.4"/>
      <point x="637.7692307692307" y="-199.5076923076923"/>
      <point x="556.8153846153846" y="-266.8" type="qcurve"/>
      <point x="452.16923076923075" y="-194.53846153846155" type="line"/>
      <point x="498.5846153846154" y="-129.24615384615385"/>
      <point x="546.0" y="8.36923076923077"/>
      <point x="546.0" y="88.53846153846153" type="qcurve" smooth="yes"/>
      <point x="546.0" y="218.03076923076924" type="line"/>
    </contour>
  </outline>
</glyph>
<glyph name="second" format="2">
  <advance width="1038"/>
  <unicode hex="2033"/>
  <outline>
    <contour>
      <point x="98.83076923076923" y="966.0" type="line"/>
      <point x="389.46153846153845" y="1556.8461538461538" type="line"/>
      <point x="579.3846153846154" y="1451.7230769230769" type="line"/>
      <point x="227.55384615384617" y="887.3538461538461" type="line"/>
    </contour>
    <contour>
      <point x="492.67692307692306" y="966.0" type="line"/>
      <point x="783.3076923076923" y="1556.8461538461538" type="line"/>
      <point x="973.2307692307692" y="1451.7230769230769" type="line"/>
      <point x="621.4" y="887.3538461538461" type="line"/>
    </contour>
  </outline>
</glyph>
<glyph name="fraction" format="2">
  <advance width="342"/>
  <unicode hex="2044"/>
  <guideline x="0" y="901.0" angle="0" identifier="tcCoNUQTdD"/>
  <guideline x="0" y="555.0" angle="0" identifier="0lx51aIE0d"/>
  <outline>
    <contour>
      <point x="640.6923076923077" y="1416.8307692307692" type="line"/>
      <point x="-158.47692307692307" y="-42.66153846153846" type="line"/>
      <point x="-285.87692307692305" y="39.4" type="line"/>
      <point x="509.1384615384615" y="1492.9538461538461" type="line"/>
    </contour>
  </outline>
</glyph>
<glyph name="foursuperior" format="2">
  <advance width="738"/>
  <unicode hex="2074"/>
  <outline>
    <contour>
      <point x="59.86153846153846" y="878.9230769230769" type="line"/>
      <point x="52.76923076923077" y="980.7692307692308" type="line"/>
      <point x="423.7230769230769" y="1494.7692307692307" type="line"/>
      <point x="545.4153846153846" y="1494.7692307692307" type="line"/>
      <point x="391.8923076923077" y="1268.6153846153845" type="line"/>
      <point x="207.90769230769232" y="1007.2923076923078" type="line"/>
      <point x="687.8153846153846" y="1007.2923076923078" type="line"/>
      <point x="687.8153846153846" y="878.9230769230769" type="line"/>
    </contour>
    <contour>
      <point x="581.8461538461539" y="1494.7692307692307" type="line"/>
      <point x="581.8461538461539" y="696.0461538461539" type="line"/>
      <point x="427.1230769230769" y="696.0461538461539" type="line"/>
      <point x="427.2769230769231" y="1494.7692307692307" type="line"/>
    </contour>
  </outline>
</glyph>
<glyph name="minus" format="2">
  <advance width="1004"/>
  <unicode hex="2212"/>
  <outline>
    <contour>
      <point x="55.83076923076923" y="588.9230769230769" type="line"/>
      <point x="55.83076923076923" y="766.7692307692307" type="line"/>
      <point x="947.9846153846154" y="766.7692307692307" type="line"/>
      <point x="947.9846153846154" y="588.9230769230769" type="line"/>
    </contour>
  </outline>
</glyph>
<glyph name="acutecomb.case" format="2">
  <advance width="1008"/>
  <outline>
    <contour>
      <point x="383.2769230769231" y="1614.323076923077" type="line"/>
      <point x="618.5076923076923" y="1999.2615384615383" type="line"/>
      <point x="797.8307692307692" y="1928.0153846153846" type="line"/>
      <point x="503.3076923076923" y="1566.0461538461539" type="line"/>
    </contour>
  </outline>
</glyph>
<glyph name="acutecombstack.case" format="2">
  <advance width="1008"/>
  <outline>
    <contour>
      <point x="297.04615384615386" y="1709.9538461538461" type="line"/>
      <point x="595.276923076923" y="1933.0615384615385" type="line"/>
      <point x="709.9846153846154" y="1771.2769230769231" type="line"/>
      <point x="378.40000000000003" y="1601.4615384615386" type="line"/>
    </contour>
  </outline>
</glyph>
<glyph name="brevecomb.case" format="2">
  <advance width="1008"/>
  <outline>
    <contour>
      <point x="789.0615384615385" y="1966.123076923077" type="qcurve"/>
      <point x="881.2615384615385" y="1897.3846153846155" type="line"/>
      <point x="842.9692307692308" y="1799.4615384615386"/>
      <point x="645.5692307692308" y="1634.9538461538461"/>
      <point x="503.9384615384615" y="1634.9538461538461" type="qcurve" smooth="yes"/>
      <point x="377.81538461538463" y="1634.9538461538461"/>
      <point x="174.7846153846154" y="1785.553846153846"/>
      <point x="127.55384615384615" y="1898.323076923077" type="qcurve"/>
      <point x="226.7846153846154" y="1966.1846153846154" type="line"/>
      <point x="268.9230769230769" y="1903.9538461538461"/>
      <point x="410.6923076923077" y="1801.5846153846155"/>
      <point x="503.96923076923076" y="1801.5846153846155" type="qcurve" smooth="yes"/>
      <point x="604.0307692307692" y="1801.5846153846155"/>
      <point x="746.8307692307692" y="1899.0153846153846"/>
    </contour>
  </outline>
</glyph>
<glyph name="brevecombstack.case" format="2">
  <advance width="1008"/>
  <outline>
    <contour>
      <point x="760.9538461538461" y="1902.2153846153844" type="qcurve"/>
      <point x="863.123076923077" y="1837.4769230769232" type="line"/>
      <point x="826.7384615384615" y="1751.430769230769"/>
      <point x="638.9076923076923" y="1606.6461538461538"/>
      <point x="503.9384615384615" y="1606.6461538461538" type="qcurve" smooth="yes"/>
      <point x="383.5076923076923" y="1606.6461538461538"/>
      <point x="191.01538461538462" y="1739.4923076923078"/>
      <point x="145.6923076923077" y="1838.4153846153847" type="qcurve"/>
      <point x="254.8923076923077" y="1902.276923076923" type="line"/>
      <point x="293.15384615384613" y="1848.923076923077"/>
      <point x="420.32307692307694" y="1763.5846153846153"/>
      <point x="503.96923076923076" y="1763.5846153846153" type="qcurve" smooth="yes"/>
      <point x="594.4" y="1763.5846153846153"/>
      <point x="722.6" y="1844.9538461538461"/>
    </contour>
  </outline>
</glyph>
<glyph name="breveinvertedcomb.case" format="2">
  <advance width="1008"/>
  <outline>
    <contour>
      <point x="218.30769230769232" y="1608.8461538461538" type="qcurve"/>
      <point x="126.38461538461539" y="1677.5230769230768" type="line"/>
      <point x="164.86153846153846" y="1775.5076923076924"/>
      <point x="362.9384615384615" y="1940.8461538461538"/>
      <point x="504.8461538461538" y="1940.8461538461538" type="qcurve" smooth="yes"/>
      <point x="631.0" y="1940.8461538461538"/>
      <point x="835.0153846153846" y="1789.3846153846155"/>
      <point x="882.3384615384616" y="1676.5230769230768" type="qcurve"/>
      <point x="783.4769230769231" y="1608.8461538461538" type="line"/>
      <point x="741.123076923077" y="1671.1076923076923"/>
      <point x="598.3692307692307" y="1773.9384615384615"/>
      <point x="504.8153846153846" y="1773.9384615384615" type="qcurve" smooth="yes"/>
      <point x="404.3846153846154" y="1773.9384615384615"/>
      <point x="260.6615384615385" y="1676.0153846153846"/>
    </contour>
  </outline>
</glyph>
<glyph name="cedillacomb.case" format="2">
  <advance width="1008"/>
  <outline>
    <contour>
      <point x="423.1692307692308" y="32.06153846153846" type="line"/>
      <point x="560.1999999999999" y="32.06153846153846" type="line"/>
      <point x="532.6615384615384" y="-90.93846153846154" type="line"/>
      <point x="610.8615384615384" y="-104.66153846153846"/>
      <point x="733.5384615384615" y="-195.46153846153845"/>
      <point x="733.5384615384615" y="-272.0" type="qcurve" smooth="yes"/>
      <point x="733.5384615384615" y="-374.38461538461536"/>
      <point x="511.96923076923076" y="-498.5384615384615"/>
      <point x="312.6461538461539" y="-498.5384615384615" type="qcurve"/>
      <point x="305.92307692307696" y="-364.16923076923075" type="line"/>
      <point x="413.46153846153845" y="-365.1384615384615"/>
      <point x="534.8" y="-326.63076923076926"/>
      <point x="534.8" y="-274.12307692307695" type="qcurve" smooth="yes"/>
      <point x="534.8" y="-225.6153846153846"/>
      <point x="465.83076923076925" y="-189.23076923076925"/>
      <point x="382.41538461538465" y="-182.44615384615386" type="qcurve"/>
    </contour>
  </outline>
</glyph>
<glyph name="circumflexcombstack.case" format="2">
  <advance width="1008"/>
  <outline>
    <contour>
      <point x="564.1999999999999" y="1868.2307692307693" type="line"/>
      <point x="825.4461538461538" y="1582.2" type="line"/>
      <point x="665.3846153846154" y="1580.2615384615385" type="line"/>
      <point x="497.12307692307695" y="1717.1384615384613" type="line"/>
      <point x="334.7076923076923" y="1582.2" type="line"/>
      <point x="168.86153846153846" y="1582.2" type="line"/>
      <point x="422.2923076923077" y="1868.2307692307693" type="line"/>
    </contour>
  </outline>
</glyph>
<glyph name="diagonalbarL" format="2">
  <advance width="729"/>
  <outline>
    <contour>
      <point x="79.26153846153845" y="447.63076923076926" type="line"/>
      <point x="0.0" y="584.0" type="line"/>
      <point x="651.9384615384615" y="988.1692307692307" type="line"/>
      <point x="732.2" y="854.8000000000001" type="line"/>
    </contour>
  </outline>
</glyph>
<glyph name="diagonalbarl" format="2">
  <advance width="622"/>
  <outline>
    <contour>
      <point x="83.01538461538462" y="470.75384615384615" type="line"/>
      <point x="0.0" y="614.0" type="line"/>
      <point x="269.9538461538462" y="803.4923076923077" type="line"/>
      <point x="533.9384615384615" y="1021.2307692307692" type="line"/>
      <point x="613.2307692307693" y="880.5230769230769" type="line"/>
      <point x="344.4307692307692" y="687.7538461538461" type="line"/>
    </contour>
  </outline>
</glyph>
<glyph name="diagonalbaro" format="2">
  <advance width="504"/>
  <outline>
    <contour>
      <point x="-86.27692307692308" y="-115.72307692307692" type="line"/>
      <point x="-3.7230769230769227" y="89.8923076923077" type="line"/>
      <point x="13.723076923076924" y="85.04615384615384" type="line"/>
      <point x="211.24615384615385" y="581.4769230769231" type="line"/>
      <point x="309.2923076923077" y="513.1076923076923" type="line"/>
      <point x="129.15384615384616" y="56.261538461538464" type="line"/>
      <point x="148.53846153846155" y="52.38461538461539" type="line"/>
      <point x="75.80000000000001" y="-120.47692307692307" type="line"/>
    </contour>
    <contour>
      <point x="411.0769230769231" y="1138.0307692307692" type="line"/>
      <point x="579.0307692307692" y="1135.0615384615385" type="line"/>
      <point x="502.3538461538461" y="943.4461538461538" type="line"/>
      <point x="482.0" y="948.2923076923076" type="line"/>
      <point x="309.2923076923077" y="513.1076923076923" type="line"/>
      <point x="211.24615384615385" y="581.4769230769231" type="line"/>
      <point x="367.53846153846155" y="976.1076923076922" type="line"/>
      <point x="348.1538461538462" y="981.9230769230769" type="line"/>
    </contour>
  </outline>
</glyph>
<glyph name="dieresiscomb.case" format="2">
  <advance width="1008"/>
  <outline>
    <contour>
      <point x="162.8923076923077" y="1780.0461538461539" type="qcurve" smooth="yes"/>
      <point x="162.8923076923077" y="1834.3384615384616"/>
      <point x="222.2153846153846" y="1892.8461538461538"/>
      <point x="277.6" y="1892.8461538461538" type="qcurve" smooth="yes"/>
      <point x="330.10769230769233" y="1892.8461538461538"/>
      <point x="392.33846153846156" y="1830.4615384615386"/>
      <point x="392.33846153846156" y="1780.0461538461539" type="qcurve" smooth="yes"/>
      <point x="392.33846153846156" y="1726.7846153846153"/>
      <point x="333.9846153846154" y="1668.3076923076924"/>
      <point x="277.6" y="1668.3076923076924" type="qcurve" smooth="yes"/>
      <point x="225.12307692307692" y="1668.3076923076924"/>
      <point x="162.8923076923077" y="1729.6923076923076"/>
    </contour>
    <contour>
      <point x="615.5384615384615" y="1779.9846153846154" type="qcurve" smooth="yes"/>
      <point x="615.5384615384615" y="1834.2769230769231"/>
      <point x="674.8307692307692" y="1892.7846153846153"/>
      <point x="730.2461538461539" y="1892.7846153846153" type="qcurve" smooth="yes"/>
      <point x="782.7538461538461" y="1892.7846153846153"/>
      <point x="844.9846153846154" y="1830.4"/>
      <point x="844.9846153846154" y="1779.9846153846154" type="qcurve" smooth="yes"/>
      <point x="844.9846153846154" y="1726.7230769230769"/>
      <point x="786.6307692307693" y="1668.246153846154"/>
      <point x="730.2461538461539" y="1668.246153846154" type="qcurve" smooth="yes"/>
      <point x="677.7384615384616" y="1668.246153846154"/>
      <point x="615.5384615384615" y="1729.6307692307694"/>
    </contour>
  </outline>
</glyph>
<glyph name="dollar.rvrn" format="2">
  <advance width="1021"/>
  <outline>
    <contour>
      <point x="88.3076923076923" y="410.87692307692305" type="qcurve" smooth="yes"/>
      <point x="88.3076923076923" y="423.18461538461537" type="line"/>
      <point x="261.8461538461538" y="423.18461538461537" type="line"/>
      <point x="261.8461538461538" y="410.87692307692305" type="line" smooth="yes"/>
      <point x="261.8461538461538" y="274.9846153846154"/>
      <point x="397.6307692307692" y="151.15384615384616"/>
      <point x="519.4923076923077" y="151.15384615384616" type="qcurve" smooth="yes"/>
      <point x="643.3230769230769" y="151.15384615384616"/>
      <point x="771.2307692307693" y="278.9230769230769"/>
      <point x="771.2307692307693" y="391.3538461538462" type="qcurve" smooth="yes"/>
      <point x="771.2307692307693" y="489.7846153846154"/>
      <point x="657.2615384615384" y="607.8923076923077"/>
      <point x="471.90769230769234" y="668.5538461538462" type="qcurve" smooth="yes"/>
      <point x="282.96923076923076" y="732.4615384615385"/>
      <point x="113.03076923076924" y="914.8"/>
      <point x="113.03076923076924" y="1078.553846153846" type="qcurve" smooth="yes"/>
      <point x="113.03076923076924" y="1249.7692307692307"/>
      <point x="330.95384615384614" y="1456.0"/>
      <point x="510.5846153846154" y="1456.0" type="qcurve" smooth="yes"/>
      <point x="698.0615384615384" y="1456.0"/>
      <point x="919.0153846153846" y="1230.723076923077"/>
      <point x="919.0153846153846" y="1051.123076923077" type="qcurve" smooth="yes"/>
      <point x="919.0153846153846" y="1038.8153846153846" type="line"/>
      <point x="745.4769230769231" y="1038.8153846153846" type="line"/>
      <point x="745.4769230769231" y="1051.123076923077" type="line" smooth="yes"/>
      <point x="745.4769230769231" y="1168.9846153846154"/>
      <point x="627.5076923076923" y="1304.8461538461538"/>
      <point x="511.55384615384617" y="1304.8461538461538" type="qcurve" smooth="yes"/>
      <point x="394.9384615384615" y="1304.8461538461538"/>
      <point x="285.5692307692308" y="1189.1692307692308"/>
      <point x="285.5692307692308" y="1078.6461538461538" type="qcurve" smooth="yes"/>
      <point x="285.5692307692308" y="989.9692307692308"/>
      <point x="398.03076923076924" y="876.9846153846154"/>
      <point x="579.4461538461538" y="818.2615384615385" type="qcurve" smooth="yes"/>
      <point x="768.2923076923078" y="756.2923076923078"/>
      <point x="942.8000000000001" y="563.9538461538461"/>
      <point x="942.8000000000001" y="391.44615384615383" type="qcurve" smooth="yes"/>
      <point x="942.8000000000001" y="210.63076923076923"/>
      <point x="711.9384615384616" y="0.0"/>
      <point x="519.4923076923077" y="0.0" type="qcurve" smooth="yes"/>
      <point x="324.1076923076923" y="0.0"/>
      <point x="88.3076923076923" y="209.4923076923077"/>
    </contour>
    <contour>
      <point x="449.78461538461534" y="-150.0" type="line"/>
      <point x="449.78461538461534" y="126.15384615384616" type="line"/>
      <point x="581.5999999999999" y="126.15384615384616" type="line"/>
      <point x="581.5999999999999" y="98.46153846153847" type="line"/>
      <point x="591.3846153846155" y="88.46153846153847" type="line"/>
      <point x="591.3846153846155" y="-150.0" type="line"/>
    </contour>
    <contour>
      <point x="459.47692307692313" y="1329.5384615384614" type="line"/>
      <point x="459.47692307692313" y="1357.2307692307693" type="line"/>
      <point x="449.6923076923077" y="1367.2307692307693" type="line"/>
      <point x="449.6923076923077" y="1606.0" type="line"/>
      <point x="591.2923076923076" y="1606.0" type="line"/>
      <point x="591.2923076923076" y="1329.5384615384614" type="line"/>
    </contour>
  </outline>
</glyph>
<glyph name="dotaccentcomb.case" format="2">
  <advance width="1008"/>
  <outline>
    <contour>
      <point x="384.10769230769233" y="1785.2" type="qcurve" smooth="yes"/>
      <point x="384.10769230769233" y="1841.676923076923"/>
      <point x="445.5230769230769" y="1902.0923076923077"/>
      <point x="503.9384615384615" y="1902.0923076923077" type="qcurve" smooth="yes"/>
      <point x="558.4153846153846" y="1902.0923076923077"/>
      <point x="623.7692307692307" y="1837.7076923076922"/>
      <point x="623.7692307692307" y="1785.2" type="qcurve" smooth="yes"/>
      <point x="623.7692307692307" y="1728.7230769230769"/>
      <point x="562.3538461538461" y="1668.3076923076924"/>
      <point x="503.9384615384615" y="1668.3076923076924" type="qcurve" smooth="yes"/>
      <point x="449.46153846153845" y="1668.3076923076924"/>
      <point x="384.10769230769233" y="1732.6923076923076"/>
    </contour>
  </outline>
</glyph>
<glyph name="dotaccentcombstack.case" format="2">
  <advance width="1008"/>
  <outline>
    <contour>
      <point x="384.10769230769233" y="1784.8923076923077" type="qcurve" smooth="yes"/>
      <point x="384.10769230769233" y="1841.3692307692309"/>
      <point x="445.5230769230769" y="1901.7846153846153"/>
      <point x="503.9384615384615" y="1901.7846153846153" type="qcurve" smooth="yes"/>
      <point x="558.4153846153846" y="1901.7846153846153"/>
      <point x="623.7692307692307" y="1837.4"/>
      <point x="623.7692307692307" y="1784.8923076923077" type="qcurve" smooth="yes"/>
      <point x="623.7692307692307" y="1728.4153846153847"/>
      <point x="562.3538461538461" y="1668.0"/>
      <point x="503.9384615384615" y="1668.0" type="qcurve" smooth="yes"/>
      <point x="449.46153846153845" y="1668.0"/>
      <point x="384.10769230769233" y="1732.3846153846155"/>
    </contour>
  </outline>
</glyph>
